<?xml version="1.0" encoding="utf-8"?>
<!-- Generator: Adobe Illustrator 16.0.0, SVG Export Plug-In . SVG Version: 6.00 Build 0)  -->
<!DOCTYPE svg PUBLIC "-//W3C//DTD SVG 1.1//EN" "http://www.w3.org/Graphics/SVG/1.1/DTD/svg11.dtd">
<svg version="1.1" id="Calque_1" xmlns="http://www.w3.org/2000/svg" xmlns:xlink="http://www.w3.org/1999/xlink" x="0px" y="0px"
	 width="2000px" height="500px" viewBox="0 0 2000 500" enable-background="new 0 0 2000 500" xml:space="preserve">
<g>
	<path fill-rule="evenodd" clip-rule="evenodd" fill="none" d="M160.067,363.146c28.412-23.843,56.457-47.378,84.581-70.979
		c30.151,23.676,60.26,47.319,90.347,70.945c40.988-27.969,81.73-55.769,122.741-83.753c-28.082-23.082-55.295-45.45-82.949-68.181
		c27.527-22.866,54.909-45.611,82.491-68.522c-1.347-1.134-2.154-1.988-3.115-2.598c-18.725-11.872-37.467-23.717-56.208-35.564
		c-20.814-13.158-41.612-26.34-62.5-39.379c-0.986-0.616-3.184-0.483-4.123,0.223c-4.459,3.356-8.625,7.098-12.99,10.583
		c-12.541,10.01-25.143,19.942-37.691,29.943c-12.098,9.642-24.158,19.33-35.984,28.796c-29.08-23.749-57.792-47.197-86.867-70.941
		c-41.531,26.839-83.09,53.696-125.134,80.866c27.308,23.838,54.221,47.331,81.402,71.058
		c-27.026,22.296-53.965,44.522-81.376,67.136C75.259,309.636,117.562,336.327,160.067,363.146z M114.004,338.82
		c0,15.671-0.079,30.156,0.119,44.639c0.021,1.499,1.329,3.66,2.65,4.362c20.49,10.871,41.081,21.552,61.648,32.278
		c15.356,8.009,30.698,16.049,46.075,24.019c6.612,3.428,13.297,6.714,20.073,10.127c0-53.137,0-105.604,0-158.938
		c-7.301,6.452-13.871,12.391-20.585,18.161c-10.963,9.422-22.04,18.71-33.031,28.099c-9.626,8.223-19.151,16.565-28.881,24.664
		c-0.879,0.731-3.228,0.598-4.377-0.051c-5.246-2.955-10.332-6.197-15.428-9.411C133.073,350.969,123.912,345.116,114.004,338.82z
		 M248.304,299.196c0,52.256,0,103.404,0,154.76c0.958-0.087,1.705,0.05,2.226-0.231c20.554-11.088,41.057-22.27,61.631-33.32
		c19.86-10.666,39.824-21.138,59.621-31.917c1.557-0.848,3.039-3.419,3.074-5.219c0.259-13.158,0.146-26.323,0.121-39.485
		c-0.002-0.883-0.242-1.765-0.458-3.243c-13.61,9.453-26.678,18.53-39.6,27.506C306.079,345.121,277.549,322.443,248.304,299.196z"
		/>
	<path fill-rule="evenodd" clip-rule="evenodd" fill="#3C72B8" d="M160.067,363.146c-42.506-26.819-84.808-53.511-127.375-80.368
		c27.411-22.614,54.35-44.84,81.376-67.136c-27.181-23.728-54.094-47.22-81.402-71.058c42.043-27.17,83.603-54.027,125.134-80.866
		c29.075,23.745,57.788,47.193,86.867,70.941c11.826-9.466,23.886-19.155,35.984-28.796c12.548-10,25.15-19.933,37.691-29.943
		c4.365-3.485,8.531-7.227,12.99-10.583c0.939-0.707,3.137-0.839,4.123-0.223c20.888,13.039,41.686,26.221,62.5,39.379
		c18.741,11.847,37.483,23.692,56.208,35.564c0.961,0.61,1.769,1.463,3.115,2.598c-27.582,22.911-54.964,45.656-82.491,68.522
		c27.654,22.731,54.867,45.099,82.949,68.181c-41.011,27.984-81.753,55.784-122.741,83.753
		c-30.087-23.626-60.196-47.27-90.347-70.945C216.524,315.769,188.479,339.304,160.067,363.146z M116.497,215.643
		c9.904,5.808,19.032,11.162,28.161,16.513c14.632,8.576,29.243,17.19,43.905,25.714c17.195,9.997,34.534,19.75,51.572,30.005
		c3.403,2.048,5.791,2.081,8.839,0.147c11.26-7.143,22.535-14.262,33.852-21.313c18.542-11.552,37.123-23.039,55.682-34.562
		c11.075-6.876,22.14-13.766,33.682-20.944c-15.138-8.964-29.693-17.629-44.294-26.217c-26.982-15.869-53.979-31.713-81.038-47.452
		c-1-0.582-2.998-0.43-4.041,0.196c-9.64,5.785-19.169,11.754-28.737,17.66c-17.479,10.789-34.964,21.567-52.442,32.357
		C146.815,196.9,131.998,206.063,116.497,215.643z"/>
	<path fill-rule="evenodd" clip-rule="evenodd" fill="#3C72B8" d="M114.004,338.82c9.908,6.296,19.068,12.148,28.263,17.948
		c5.096,3.214,10.183,6.456,15.428,9.411c1.15,0.648,3.499,0.782,4.377,0.051c9.729-8.099,19.255-16.441,28.881-24.664
		c10.991-9.389,22.068-18.677,33.031-28.099c6.714-5.771,13.284-11.709,20.585-18.161c0,53.335,0,105.802,0,158.938
		c-6.776-3.413-13.461-6.699-20.073-10.127c-15.377-7.97-30.718-16.01-46.075-24.019c-20.567-10.727-41.158-21.407-61.648-32.278
		c-1.322-0.702-2.63-2.863-2.65-4.362C113.925,368.977,114.004,354.491,114.004,338.82z"/>
	<path fill-rule="evenodd" clip-rule="evenodd" fill="#3C72B8" d="M248.304,299.196c29.245,23.247,57.775,45.925,86.615,68.85
		c12.922-8.976,25.99-18.053,39.6-27.506c0.216,1.479,0.457,2.36,0.458,3.243c0.025,13.162,0.138,26.327-0.121,39.485
		c-0.035,1.8-1.517,4.371-3.074,5.219c-19.797,10.779-39.761,21.251-59.621,31.917c-20.574,11.051-41.078,22.232-61.631,33.32
		c-0.521,0.281-1.269,0.145-2.226,0.231C248.304,402.601,248.304,351.452,248.304,299.196z"/>
	<path fill-rule="evenodd" clip-rule="evenodd" fill="none" d="M116.497,215.643c15.501-9.58,30.318-18.742,45.143-27.895
		c17.478-10.79,34.963-21.568,52.442-32.357c9.567-5.906,19.097-11.875,28.737-17.66c1.043-0.625,3.041-0.777,4.041-0.196
		c27.059,15.739,54.056,31.583,81.038,47.452c14.601,8.587,29.156,17.253,44.294,26.217c-11.542,7.178-22.607,14.068-33.682,20.944
		c-18.56,11.522-37.141,23.01-55.682,34.562c-11.317,7.052-22.592,14.171-33.852,21.313c-3.048,1.934-5.436,1.9-8.839-0.147
		c-17.039-10.255-34.377-20.008-51.572-30.005c-14.663-8.524-29.273-17.138-43.905-25.714
		C135.528,226.805,126.401,221.45,116.497,215.643z M229.909,277.702c-4.138-14.68-11.121-25.62-24.765-30.515
		c-9.819-3.523-15.212-10.875-19.062-19.674c-4.666-10.664-5.747-22.011-2.952-33.261c2.771-11.15,7.961-21.033,19.222-26.438
		c0.653,0.857,1.383,1.43,1.599,2.155c2.399,8.087,4.874,16.157,7.019,24.313c2.412,9.167,2.759,19.712,15.667,21.004
		c0.449,0.045,0.922,0.693,1.286,0.613c1.695-0.372,3.869-0.396,4.929-1.474c2.621-2.663,4.885-5.728,6.96-8.853
		c0.828-1.247,1.382-3.235,1.019-4.61c-1.284-4.856-3.088-9.571-4.565-14.379c-2.148-6.992-4.586-13.932-6.129-21.061
		c-1.078-4.981,1.106-6.551,5.883-5.596c12.589,2.517,22.999,8.973,30.93,18.763c7.205,8.893,10.142,19.165,8.374,31.071
		c-1.484,9.999-5.707,18.617-9.925,27.441c-3.61,7.551-2.561,15.428-1.363,23.33c7.204-14.755,13.838-29.594,20.367-44.48
		c0.478-1.09,0.719-2.854,0.164-3.736c-4.167-6.62-2.313-11.257,4.267-14.728c1.126-0.594,2.088-1.714,2.824-2.797
		c2.385-3.513,5.393-2.882,8.722-1.733c3.271,1.128,2.523,3.715,2.644,6.089c0.066,1.301,0.419,2.587,0.491,3.889
		c0.183,3.298,0.987,6.804,0.119,9.817c-0.446,1.549-4.079,2.013-6.006,3.35c-2.028,1.407-4.481,2.92-5.459,4.995
		c-4.163,8.834-7.835,17.899-11.711,26.869c-2.799,6.477-5.636,12.938-9.012,20.681c32.128-19.623,63.005-38.481,94.316-57.605
		c-11.88-7.09-22.775-13.65-33.726-20.116c-27.941-16.499-55.881-33-83.929-49.315c-1.714-0.997-4.927-1.312-6.496-0.369
		c-14.535,8.734-28.835,17.855-43.253,26.785c-23.146,14.335-46.337,28.594-69.479,42.934c-2.155,1.335-4.091,3.022-6.609,4.905
		C158.3,236.63,193.612,256.884,229.909,277.702z"/>
	<path fill-rule="evenodd" clip-rule="evenodd" fill="#3C72B8" d="M229.909,277.702c-36.297-20.818-71.609-41.072-107.639-61.738
		c2.518-1.883,4.454-3.569,6.609-4.905c23.142-14.34,46.333-28.599,69.479-42.934c14.418-8.929,28.719-18.051,43.253-26.785
		c1.569-0.943,4.782-0.628,6.496,0.369c28.048,16.315,55.987,32.816,83.929,49.315c10.951,6.466,21.845,13.026,33.726,20.116
		c-31.312,19.125-62.188,37.983-94.316,57.605c3.376-7.743,6.213-14.204,9.012-20.681c3.876-8.97,7.549-18.035,11.711-26.869
		c0.978-2.074,3.432-3.588,5.459-4.995c1.927-1.337,5.56-1.8,6.006-3.35c0.868-3.013,0.064-6.519-0.119-9.817
		c-0.072-1.301-0.425-2.587-0.491-3.889c-0.121-2.375,0.627-4.961-2.644-6.089c-3.329-1.149-6.337-1.779-8.722,1.733
		c-0.735,1.083-1.697,2.203-2.824,2.797c-6.579,3.471-8.433,8.108-4.267,14.728c0.555,0.881,0.314,2.646-0.164,3.736
		c-6.528,14.886-13.163,29.725-20.367,44.48c-1.198-7.901-2.247-15.779,1.363-23.33c4.218-8.824,8.44-17.442,9.925-27.441
		c1.768-11.907-1.168-22.178-8.374-31.071c-7.931-9.79-18.341-16.246-30.93-18.763c-4.777-0.955-6.961,0.615-5.883,5.596
		c1.542,7.129,3.981,14.069,6.129,21.061c1.477,4.808,3.281,9.523,4.565,14.379c0.363,1.375-0.191,3.363-1.019,4.61
		c-2.075,3.125-4.339,6.189-6.96,8.853c-1.06,1.077-3.234,1.102-4.929,1.474c-0.364,0.08-0.836-0.568-1.286-0.613
		c-12.908-1.292-13.255-11.837-15.667-21.004c-2.146-8.156-4.62-16.226-7.019-24.313c-0.215-0.725-0.945-1.298-1.599-2.155
		c-11.261,5.405-16.451,15.287-19.222,26.438c-2.795,11.25-1.714,22.597,2.952,33.261c3.85,8.798,9.242,16.151,19.062,19.674
		C218.788,252.082,225.771,263.022,229.909,277.702z"/>
</g>
<g>
	<path fill="#FFFFFF" d="M650.27,338.914h-28.154V227.932c0-7.507-0.817-13.896-2.452-19.163s-3.996-9.596-7.084-12.987
		c-3.088-3.389-6.783-5.872-11.08-7.447c-4.3-1.572-9.113-2.361-14.44-2.361c-10.053,0-19.194,2.696-27.428,8.083
		c-8.236,5.39-15.621,12.806-22.16,22.251v122.607h-28.154V166.355h21.797l5.449,23.977h0.545c3.147-3.996,6.567-7.72,10.263-11.171
		c3.692-3.451,7.811-6.477,12.352-9.082c4.541-2.603,9.536-4.632,14.985-6.085s11.381-2.18,17.801-2.18
		c12.834,0,23.491,3.088,31.969,9.264c8.475,6.176,15.014,14.594,19.617,25.248h0.727c7.64-10.776,16.373-19.223,26.196-25.339
		c9.823-6.113,21.283-9.173,34.384-9.173c6.062,0,12.491,0.849,19.282,2.543c6.792,1.697,13.039,4.813,18.737,9.354
		c5.699,4.541,10.43,10.808,14.191,18.8c3.757,7.992,5.639,18.286,5.639,30.879v115.523h-28.154V227.932
		c0-7.507-0.817-13.896-2.452-19.163s-3.996-9.596-7.084-12.987c-3.088-3.389-6.783-5.872-11.08-7.447
		c-4.3-1.572-9.113-2.361-14.44-2.361c-10.053,0-19.226,2.696-27.519,8.083c-8.296,5.39-15.712,12.806-22.251,22.251V338.914z"/>
	<path fill="#FFFFFF" d="M795.764,166.355h28.154l53.595,135.322h1.104l55.012-135.322h28.154L854.927,423.377h-27.973
		l36.873-87.914L795.764,166.355z"/>
	<path fill="#3C72B8" d="M1023.178,160.18c0,7.146,1.447,13.05,4.345,17.71c2.898,4.663,6.792,8.509,11.685,11.534
		c4.891,3.028,10.566,5.512,17.026,7.447c6.46,1.938,13.191,3.755,20.196,5.449c9.417,2.302,18.687,4.845,27.803,7.629
		c9.115,2.787,17.238,6.63,24.362,11.534s12.891,11.293,17.298,19.163c4.408,7.873,6.613,17.982,6.613,30.334
		c0,12.596-2.387,23.463-7.16,32.604c-4.774,9.145-11.373,16.651-19.799,22.523c-8.427,5.875-18.392,10.234-29.895,13.078
		c-11.506,2.844-24.099,4.269-37.781,4.269c-6.298,0-12.746-0.395-19.345-1.181c-6.602-0.789-12.896-1.848-18.891-3.179
		s-11.415-2.844-16.257-4.541c-4.845-1.694-8.659-3.389-11.443-5.086v-27.064c4.359,2.18,9.264,4.178,14.713,5.994
		s11.08,3.36,16.893,4.632s11.685,2.271,17.619,2.997c5.932,0.727,11.503,1.09,16.711,1.09c8.475,0,16.558-0.727,24.249-2.18
		c7.688-1.453,14.44-3.874,20.253-7.266c5.813-3.389,10.413-8.021,13.805-13.896c3.389-5.872,5.086-13.229,5.086-22.069
		c0-7.266-1.484-13.26-4.45-17.982c-2.969-4.723-6.934-8.628-11.897-11.716c-4.967-3.088-10.688-5.6-17.165-7.538
		c-6.479-1.936-13.291-3.752-20.435-5.449c-9.445-2.18-18.681-4.632-27.7-7.356c-9.022-2.725-17.074-6.508-24.158-11.353
		c-7.084-4.842-12.777-11.08-17.074-18.709c-4.3-7.629-6.448-17.375-6.448-29.244c0-12.352,2.256-22.978,6.774-31.878
		c4.519-8.9,10.632-16.257,18.346-22.069s16.595-10.109,26.647-12.896c10.05-2.784,20.767-4.178,32.15-4.178
		c12.956,0,25.035,1.243,36.237,3.724c11.199,2.483,21.462,5.722,30.788,9.718v27.428c-10.053-4.237-20.435-7.688-31.151-10.354
		c-10.717-2.662-22.191-4.056-34.421-4.178c-9.204,0-17.196,0.999-23.977,2.997c-6.783,1.998-12.414,4.845-16.893,8.537
		c-4.481,3.695-7.811,8.174-9.99,13.441S1023.178,153.763,1023.178,160.18z"/>
	<path fill="#3C72B8" d="M1283.105,318.934c9.323,0,17.829-0.755,25.521-2.271c7.688-1.513,15.349-3.661,22.978-6.448v23.432
		c-6.176,3.028-13.805,5.418-22.887,7.175c-9.082,1.754-18.831,2.634-29.244,2.634c-12.352,0-23.948-1.575-34.784-4.723
		c-10.839-3.147-20.222-8.233-28.146-15.258c-7.925-7.021-14.131-16.194-18.618-27.519c-4.487-11.321-6.729-24.976-6.729-40.96
		c0-15.74,2.174-29.395,6.522-40.96c4.348-11.563,10.146-21.221,17.395-28.972c7.249-7.748,15.581-13.561,25.004-17.438
		c9.423-3.874,19.269-5.813,29.536-5.813c9.661,0,18.692,1.606,27.088,4.813c8.395,3.21,15.672,8.265,21.833,15.167
		c6.159,6.902,11.021,15.803,14.586,26.701c3.564,10.898,5.347,23.977,5.347,39.234c0,1.453,0,2.696,0,3.724
		c0,1.03-0.063,3.36-0.182,6.993h-119.156c0,11.021,1.663,20.375,4.995,28.063c3.329,7.691,7.87,13.927,13.623,18.709
		c5.75,4.785,12.502,8.265,20.253,10.444C1265.787,317.844,1274.143,318.934,1283.105,318.934z M1268.254,185.973
		c-6.5,0-12.536,1.271-18.116,3.814s-10.453,5.994-14.619,10.354c-4.169,4.359-7.541,9.477-10.115,15.349
		c-2.577,5.875-4.169,12.142-4.782,18.8h88.277c0-6.78-0.892-13.106-2.668-18.981c-1.776-5.872-4.382-10.989-7.816-15.349
		c-3.434-4.359-7.663-7.779-12.689-10.263C1280.696,187.216,1274.872,185.973,1268.254,185.973z"/>
	<path fill="#3C72B8" d="M1477.279,339.277c-2.424,0.968-6.116,1.876-11.08,2.725c-4.967,0.846-10.898,1.331-17.801,1.453
		c-9.082,0-16.955-1.121-23.613-3.36c-6.661-2.239-12.201-5.449-16.62-9.627c-4.422-4.178-7.72-9.232-9.899-15.167
		c-2.18-5.932-3.27-12.533-3.27-19.799V190.514h-33.24v-24.158h33.24v-47.227h28.154v47.227h51.586v24.158h-51.586v100.629
		c0,3.996,0.573,7.691,1.726,11.08c1.149,3.392,2.966,6.329,5.449,8.81c2.48,2.483,5.659,4.422,9.536,5.813
		c3.874,1.394,8.537,2.089,13.986,2.089c3.752,0,7.72-0.301,11.897-0.908c4.178-0.604,8.021-1.391,11.534-2.361V339.277z"/>
	<path fill="#3C72B8" d="M1583.902,343.455c-8.963,0-17.015-0.971-24.158-2.906c-7.146-1.936-13.413-4.66-18.8-8.174
		c-5.39-3.511-9.962-7.72-13.714-12.624c-3.755-4.904-6.721-10.263-8.9-16.075c-1.697-4.359-2.906-9.142-3.633-14.35
		c-0.727-5.205-1.09-10.898-1.09-17.074V166.355h28.154V272.07c0,9.567,1.271,17.56,3.814,23.977
		c2.906,7.266,7.598,12.987,14.077,17.165c6.477,4.178,14.741,6.267,24.794,6.267c10.654,0,19.223-2.299,25.702-6.902
		c6.477-4.601,11.108-10.776,13.896-18.527c2.058-5.932,3.088-13.26,3.088-21.979V166.355h28.154v106.078
		c0,5.813-0.335,11.233-0.999,16.257c-0.667,5.026-1.726,9.658-3.179,13.896c-2.18,5.935-5.177,11.415-8.991,16.438
		c-3.814,5.026-8.509,9.354-14.077,12.987c-5.571,3.633-12.02,6.448-19.345,8.446
		C1601.368,342.456,1593.104,343.455,1583.902,343.455z"/>
	<path fill="#3C72B8" d="M1860.904,250.637c0,11.988-1.187,22.614-3.559,31.878c-2.373,9.264-5.504,17.347-9.395,24.249
		c-3.895,6.902-8.455,12.687-13.683,17.347c-5.23,4.663-10.644,8.418-16.237,11.262c-5.597,2.847-11.281,4.904-17.06,6.176
		s-11.22,1.907-16.325,1.907c-10.583,0-19.768-1.726-27.55-5.177c-7.785-3.451-14.778-8.565-20.979-15.349h-0.533v100.447h-27.621
		V166.355h21.252l5.994,19.617h0.545c1.572-2.421,3.602-4.782,6.085-7.084c2.48-2.299,5.813-4.751,9.99-7.356
		c4.178-2.603,9.201-4.873,15.076-6.812c5.872-1.936,12.261-2.906,19.163-2.906c9.687,0,19.041,1.635,28.063,4.904
		c9.02,3.27,16.983,8.478,23.886,15.621c6.902,7.146,12.442,16.319,16.62,27.519
		C1858.815,221.061,1860.904,234.652,1860.904,250.637z M1831.479,251c0-10.05-1.067-19.072-3.198-27.064
		c-2.132-7.992-5.327-14.804-9.591-20.435c-4.263-5.631-9.499-9.959-15.709-12.987c-6.212-3.025-13.398-4.541-21.556-4.541
		c-5.847,0-11.176,0.789-15.987,2.361c-4.811,1.575-9.164,3.573-13.061,5.994c-3.896,2.424-7.246,5.026-10.047,7.811
		c-2.802,2.787-5.055,5.268-6.758,7.447v90.275c5.966,6.057,12.758,10.839,20.369,14.35c7.612,3.514,15.8,5.268,24.57,5.268
		c5.358,0,11.021-0.999,16.988-2.997c5.966-1.998,11.478-5.568,16.532-10.717c5.052-5.146,9.225-12.139,12.514-20.979
		C1829.832,275.947,1831.479,264.686,1831.479,251z"/>
</g>
</svg>
