<?xml version="1.0" standalone="no"?>
<!DOCTYPE svg PUBLIC "-//W3C//DTD SVG 20010904//EN"
 "http://www.w3.org/TR/2001/REC-SVG-20010904/DTD/svg10.dtd">
<svg version="1.0" xmlns="http://www.w3.org/2000/svg"
 width="3572.000000pt" height="3572.000000pt" viewBox="0 0 3572.000000 3572.000000"
 preserveAspectRatio="xMidYMid meet">
<metadata>
Created by potrace 1.11, written by Peter Selinger 2001-2013
</metadata>
<g transform="translate(0.000000,3572.000000) scale(0.100000,-0.100000)"
fill="#000000" stroke="none">
<path d="M5388 30753 c-2847 -1842 -5177 -3351 -5177 -3354 -1 -4 1519 -1335
3377 -2959 1857 -1624 3378 -2956 3380 -2960 1 -4 -1517 -1262 -3375 -2795
-1858 -1533 -3379 -2790 -3381 -2794 -1 -5 2371 -1505 5273 -3335 5273 -3326
5275 -3327 5298 -3309 13 10 1597 1339 3522 2953 1924 1614 3504 2934 3511
2934 8 -1 6689 -5246 7486 -5877 l36 -29 5086 3468 c2797 1908 5085 3472 5085
3475 1 4 -1512 1250 -3361 2770 -1850 1520 -3404 2798 -3454 2839 l-91 76
3454 2863 c2850 2362 3452 2866 3441 2876 -11 11 -10202 6449 -10278 6493 -26
15 -54 -8 -3705 -2933 -2024 -1621 -3685 -2952 -3692 -2957 -8 -6 -1164 933
-3623 2942 -1987 1623 -3618 2954 -3624 2956 -6 2 -2341 -1502 -5188 -3343z
m17806 -5786 c4249 -2490 5305 -3113 5293 -3122 -57 -42 -10673 -6629 -10680
-6627 -4 1 -2420 1409 -5368 3129 -4255 2482 -5357 3129 -5347 3139 7 7 2422
1502 5367 3323 l5354 3311 36 -21 c20 -12 2425 -1421 5345 -3132z"/>
<path d="M12718 24642 c-2793 -1737 -5076 -3161 -5074 -3167 3 -10 8966 -5148
8972 -5143 2 3 -7 49 -20 93 -1 6 -8 36 -16 68 -7 31 -17 57 -21 57 -4 0 -6 8
-5 17 2 9 -5 38 -15 64 -10 25 -15 49 -12 53 4 3 1 6 -5 6 -7 0 -11 3 -11 8 1
4 0 10 -1 15 -1 4 -4 12 -5 17 -1 6 -3 11 -5 13 -1 1 -3 10 -5 20 -2 10 -7 26
-11 35 -4 9 -8 19 -8 22 -2 7 -26 71 -39 100 -6 14 -9 31 -8 38 1 6 -3 12 -9
12 -5 0 -9 3 -9 8 4 24 -2 42 -13 36 -6 -4 -9 -3 -5 2 3 5 -2 25 -10 44 -9 19
-17 40 -18 45 -4 17 -77 170 -84 175 -3 3 -7 11 -9 19 -4 19 -27 68 -50 107
-9 16 -39 69 -66 117 -27 48 -53 87 -58 87 -5 0 -6 5 -3 10 3 6 0 13 -8 16 -7
2 -14 10 -14 17 0 12 -42 78 -97 153 -17 23 -38 52 -46 64 -8 12 -19 28 -25
34 -5 6 -22 27 -37 48 -15 20 -34 42 -41 50 -7 7 -21 25 -31 40 -10 15 -23 25
-29 21 -5 -3 -7 -2 -4 4 4 5 -5 20 -18 31 -14 12 -25 27 -25 33 0 5 -4 7 -10
4 -5 -3 -10 -1 -10 6 0 11 -117 130 -190 194 -19 16 -53 45 -74 65 -22 19 -36
28 -32 20 5 -8 -2 -3 -15 11 -29 32 -141 115 -151 111 -5 -1 -8 2 -8 8 0 5
-15 17 -32 26 -18 9 -35 20 -38 24 -3 3 -25 17 -50 31 -25 13 -47 26 -50 29
-14 14 -70 40 -70 33 0 -4 -5 -1 -10 8 -5 9 -22 20 -37 24 -15 3 -30 10 -33
13 -7 9 -69 42 -80 42 -4 0 -29 10 -56 22 -27 12 -52 23 -56 24 -5 1 -11 3
-15 4 -5 1 -11 2 -15 1 -5 0 -8 4 -8 10 0 6 -6 9 -14 6 -8 -3 -16 -2 -18 3 -2
5 -14 11 -28 12 -14 2 -27 5 -30 8 -4 4 -140 54 -175 63 -5 2 -32 14 -60 27
-27 13 -53 24 -57 24 -4 1 -13 7 -19 14 -7 6 -18 12 -24 12 -6 0 -32 13 -58
30 -26 16 -47 27 -47 23 0 -4 -11 4 -25 17 -14 13 -25 20 -25 16 0 -4 -12 5
-27 19 -16 14 -36 28 -45 31 -10 3 -18 10 -18 15 0 5 -7 9 -15 9 -8 0 -15 5
-15 10 0 6 -6 10 -14 10 -8 0 -16 3 -18 8 -1 4 -45 43 -97 87 -102 86 -245
227 -301 297 -19 24 -45 53 -57 65 -12 13 -19 23 -15 23 4 0 0 6 -8 13 -8 7
-26 28 -40 47 -30 43 -40 56 -65 85 -11 12 -21 29 -23 36 -2 8 -10 19 -18 26
-9 6 -15 13 -14 15 5 11 -14 37 -24 31 -6 -3 -8 -3 -4 1 6 7 -53 109 -82 144
-6 6 -7 12 -3 12 4 0 4 4 -2 8 -10 7 -20 25 -89 157 -22 44 -45 83 -49 86 -5
3 -8 8 -6 10 5 7 -35 89 -43 89 -4 0 -5 6 -2 13 3 8 -2 20 -10 27 -9 7 -13 16
-10 21 3 5 0 9 -6 9 -6 0 -9 4 -6 8 2 4 -2 21 -9 37 -12 26 -35 79 -40 95 -1
3 -7 19 -14 35 -7 17 -15 39 -17 49 -2 11 -7 22 -11 25 -5 3 -10 15 -11 26 -2
11 -13 45 -24 75 -21 58 -36 108 -62 205 -9 33 -19 67 -23 75 -3 8 -7 28 -9
43 -2 16 -9 37 -14 48 -6 10 -8 19 -4 19 3 0 1 6 -5 13 -6 8 -8 16 -5 20 3 3
0 23 -6 43 -7 21 -14 45 -15 54 -4 40 -17 117 -22 130 -3 8 -7 29 -9 45 -1 17
-5 41 -8 55 -6 29 -15 99 -20 150 -2 19 -4 35 -6 35 -1 0 -4 25 -6 55 -2 30
-6 84 -9 120 -17 207 -7 656 20 845 4 28 8 61 9 75 1 14 5 41 9 60 9 45 16 88
22 125 3 17 7 40 10 53 3 12 7 32 10 43 2 12 14 59 25 104 11 45 22 91 24 101
5 27 52 176 74 234 3 8 6 18 7 23 2 4 4 9 5 12 1 3 3 8 4 13 1 4 5 13 9 20 5
6 5 12 2 12 -3 0 1 10 9 22 9 12 16 28 16 36 0 7 9 31 20 54 11 22 17 45 14
49 -3 5 -1 9 5 9 8 0 22 26 26 50 0 3 9 20 18 38 10 17 14 32 10 32 -5 0 -3 4
3 8 6 4 23 34 39 67 15 33 33 67 40 75 6 8 18 31 25 50 8 19 22 44 32 54 9 10
15 23 12 28 -3 4 0 8 5 8 6 0 11 7 11 15 0 8 5 15 10 15 6 0 10 6 10 14 0 7 7
19 15 26 8 7 13 16 10 20 -3 4 2 10 10 14 8 3 15 12 15 19 0 8 9 22 20 32 11
10 20 22 20 27 0 5 18 33 40 63 22 30 41 58 42 62 1 5 11 16 22 25 12 10 17
17 12 18 -4 0 2 9 15 20 13 10 21 19 17 20 -3 0 6 13 20 29 43 47 57 65 55 73
-2 5 0 7 5 5 4 -1 9 3 12 8 2 6 17 21 32 33 16 13 25 28 22 33 -3 5 -2 8 3 7
4 -2 9 0 11 4 5 11 241 243 291 285 25 21 57 50 73 65 15 15 28 25 28 23 0 -5
48 34 87 72 13 12 23 19 23 15 0 -4 7 2 15 12 8 11 15 16 15 10 0 -5 4 -4 8 2
13 19 87 48 122 47 60 -2 70 -6 123 -58 17 -16 27 -23 22 -15 -5 9 -5 12 1 7
5 -5 9 -12 9 -15 1 -12 58 -107 70 -114 5 -4 7 -8 3 -8 -4 0 -2 -17 6 -37 8
-21 17 -47 22 -58 8 -24 11 -34 17 -60 3 -11 17 -65 32 -120 15 -55 28 -107
30 -115 2 -8 4 -15 5 -15 2 0 5 -16 13 -57 3 -15 9 -33 12 -38 4 -6 9 -26 11
-43 3 -18 8 -39 11 -47 3 -8 7 -19 9 -25 17 -67 26 -102 44 -170 11 -44 23
-87 25 -95 2 -8 4 -15 5 -15 1 0 3 -9 5 -19 2 -11 7 -31 11 -45 4 -14 6 -31 5
-38 -1 -6 3 -14 9 -18 5 -3 10 -19 10 -36 0 -16 4 -29 8 -29 4 0 9 -14 10 -31
1 -18 6 -37 9 -43 4 -6 8 -17 9 -26 1 -18 22 -98 31 -120 3 -8 7 -22 8 -30 2
-8 6 -26 10 -40 3 -14 8 -32 10 -40 2 -8 4 -15 5 -15 1 0 3 -7 5 -15 1 -8 13
-53 25 -100 12 -47 23 -91 23 -97 0 -7 4 -13 9 -13 5 0 7 -4 4 -9 -4 -5 -2
-21 4 -35 5 -15 12 -37 14 -49 8 -37 36 -141 43 -157 3 -8 6 -18 5 -21 -1 -4
3 -22 9 -40 6 -19 13 -47 15 -64 3 -16 9 -34 14 -39 5 -5 6 -15 3 -22 -3 -8
-1 -14 5 -14 6 0 9 -8 7 -17 -1 -10 2 -26 7 -37 6 -10 11 -28 13 -40 4 -25 8
-42 30 -121 9 -33 19 -73 22 -90 3 -16 10 -33 16 -37 7 -4 9 -8 6 -8 -4 0 -3
-17 2 -37 5 -21 12 -46 14 -56 2 -10 7 -27 10 -37 3 -10 8 -27 10 -37 2 -10
11 -45 20 -78 9 -33 21 -76 26 -95 5 -19 12 -43 14 -52 3 -10 7 -26 9 -35 2
-10 14 -54 26 -98 12 -44 23 -87 25 -95 2 -8 4 -17 5 -20 1 -3 3 -9 5 -15 1
-5 3 -12 4 -15 4 -8 10 -33 17 -70 3 -19 10 -40 15 -46 5 -6 6 -14 3 -17 -3
-3 -2 -12 2 -19 5 -7 9 -19 11 -27 8 -54 13 -60 63 -75 3 -1 11 -5 18 -9 6 -5
16 -6 21 -3 5 4 11 1 13 -4 2 -6 13 -12 26 -13 12 0 22 -5 22 -10 0 -5 7 -7
15 -4 8 4 17 2 20 -3 4 -7 88 -40 115 -45 3 -1 22 -9 44 -18 21 -9 42 -17 47
-17 5 0 32 -11 61 -23 29 -13 59 -22 66 -20 6 3 12 0 12 -6 0 -6 9 -11 19 -11
11 0 23 -5 26 -11 4 -6 13 -8 21 -5 8 3 14 1 14 -4 0 -6 3 -9 8 -9 4 1 10 0
15 -1 4 -1 12 -4 17 -5 6 -1 12 -4 15 -5 3 -1 8 -3 13 -5 4 -1 21 -7 37 -14
17 -7 37 -14 45 -16 8 -2 30 -11 47 -20 18 -9 37 -14 43 -10 5 3 10 1 10 -5 0
-6 4 -9 9 -5 5 3 12 1 16 -5 4 -6 11 -8 16 -5 5 4 9 2 9 -2 0 -5 21 -15 48
-22 26 -8 52 -18 59 -23 7 -5 17 -7 23 -3 5 3 10 1 10 -4 0 -6 9 -11 19 -11
11 0 23 -5 26 -10 4 -6 10 -8 15 -5 5 3 11 1 15 -5 4 -6 11 -8 16 -5 5 4 9 2
9 -3 0 -5 6 -9 13 -9 6 -1 35 -10 64 -21 28 -11 54 -17 57 -14 3 3 6 0 6 -7 0
-8 7 -11 15 -7 8 3 15 0 15 -6 0 -6 6 -5 17 3 14 12 16 12 9 -1 -8 -16 19 14
57 64 12 15 31 37 41 47 11 11 16 19 12 19 -5 0 3 9 18 21 14 11 24 25 20 30
-3 5 -1 8 4 7 6 -2 10 0 11 4 1 5 15 21 33 38 17 16 28 30 25 30 -4 0 6 13 21
28 41 44 77 87 74 90 -2 2 7 12 20 22 13 11 20 19 17 20 -4 0 10 17 30 38 30
31 86 98 126 150 6 7 17 21 26 30 8 9 37 44 65 77 27 33 55 64 62 68 7 5 10
12 7 18 -4 5 -2 9 2 9 5 0 38 35 73 78 36 42 69 80 75 84 6 5 6 8 0 8 -5 0 1
7 13 16 12 8 19 20 16 26 -4 7 -2 8 5 4 6 -4 14 0 18 11 4 9 22 32 40 50 18
18 28 33 22 33 -6 0 -8 4 -5 9 4 5 1 22 -6 38 -6 15 -10 34 -9 41 1 6 -2 12
-6 12 -4 0 -9 12 -10 26 0 15 -5 29 -10 33 -4 3 -9 15 -11 26 -4 33 -8 44 -15
51 -4 4 -7 18 -7 31 0 12 -4 23 -9 23 -5 0 -7 9 -4 20 3 11 0 20 -6 20 -5 0
-8 7 -5 15 4 8 1 15 -5 15 -6 0 -10 3 -9 8 4 11 -35 152 -42 152 -3 0 -7 12
-8 26 -1 14 -5 31 -9 37 -4 7 -9 21 -10 32 -2 11 -6 27 -10 35 -3 8 -7 18 -7
22 -1 3 -4 9 -8 13 -4 4 -4 13 -1 21 3 8 0 14 -6 14 -6 0 -10 3 -9 8 1 6 -14
70 -26 107 -2 6 -4 12 -4 15 0 3 -6 19 -12 35 -7 17 -14 41 -17 55 -2 13 -10
31 -16 39 -7 8 -11 16 -9 18 3 4 -7 51 -15 73 -8 21 -14 43 -15 58 -1 6 -5 12
-9 12 -5 0 -6 6 -3 14 3 8 1 17 -5 21 -6 3 -11 17 -11 31 0 13 -4 24 -8 24 -4
0 -8 8 -9 18 -1 18 -10 57 -13 57 -1 0 -3 7 -5 15 -1 8 -12 44 -24 79 -11 35
-21 70 -21 78 0 7 -5 13 -12 13 -6 0 -9 3 -6 6 4 3 2 20 -3 37 -6 18 -12 43
-15 56 -3 13 -10 34 -17 45 -6 12 -10 24 -9 28 1 4 -5 25 -12 46 -8 22 -12 43
-9 46 4 3 1 6 -5 6 -7 0 -11 3 -11 8 1 4 0 10 -1 15 -1 4 -4 12 -5 17 -1 6 -3
11 -4 13 -2 1 -4 13 -7 27 -2 14 -7 32 -11 40 -3 8 -7 22 -9 31 -2 9 -9 29
-15 45 -7 16 -14 40 -16 54 -2 13 -8 30 -14 36 -5 6 -6 14 -2 17 3 4 2 7 -3 7
-5 0 -10 14 -11 31 -1 17 -7 37 -13 44 -5 6 -7 15 -3 18 3 4 1 7 -5 7 -6 0 -9
7 -6 15 4 8 1 15 -6 15 -6 0 -8 5 -5 10 3 6 3 16 -2 23 -4 6 -8 14 -8 17 -5
30 -19 78 -27 88 -6 6 -8 12 -5 12 4 0 -1 19 -9 43 -9 23 -18 53 -20 66 -3 13
-11 39 -19 57 -7 18 -11 35 -7 38 3 3 -1 6 -8 6 -7 0 -11 3 -8 6 4 3 2 20 -4
37 -5 18 -11 39 -13 47 -2 8 -4 16 -5 18 -2 1 -4 7 -5 12 -1 6 -4 12 -5 15 -1
3 -4 10 -5 15 -1 6 -3 11 -4 13 -2 1 -4 13 -7 26 -2 14 -9 30 -15 38 -6 7 -9
13 -6 13 6 0 -21 98 -31 115 -4 6 -8 21 -10 34 -2 14 -8 33 -13 43 -6 11 -12
28 -15 39 -10 44 -13 55 -23 82 -6 15 -13 38 -15 50 -3 12 -11 45 -19 72 -14
50 -15 174 -3 228 9 38 47 96 82 127 16 13 29 23 29 22 0 -2 16 4 36 12 20 8
47 16 60 18 13 2 29 6 34 9 19 9 189 -1 245 -16 34 -9 78 -19 90 -20 8 -1 22
-5 30 -8 8 -4 24 -8 35 -10 11 -2 27 -7 35 -10 8 -3 60 -20 115 -38 55 -17
119 -40 142 -50 24 -11 49 -19 56 -19 8 0 17 -3 21 -7 4 -5 11 -8 14 -9 9 -1
35 -12 92 -37 25 -11 51 -20 58 -20 6 0 12 -4 12 -9 0 -5 5 -6 10 -3 6 3 10 1
10 -6 0 -7 3 -10 6 -6 3 3 27 -5 52 -18 26 -13 54 -25 62 -27 8 -2 21 -9 28
-16 8 -7 18 -10 23 -7 5 4 9 2 9 -3 0 -9 37 -25 53 -23 4 1 7 -3 7 -8 0 -7 28
-19 47 -19 3 0 9 -4 12 -9 10 -13 49 -33 66 -33 8 0 15 -4 15 -9 0 -10 60 -37
73 -33 5 1 6 -2 3 -7 -4 -5 4 -13 16 -17 13 -4 40 -18 61 -31 41 -26 90 -54
150 -86 20 -12 37 -24 37 -29 0 -4 4 -8 10 -8 12 0 147 -87 155 -100 4 -6 10
-8 15 -5 4 3 11 -2 14 -11 4 -9 9 -14 12 -11 3 3 14 -3 25 -14 10 -10 26 -19
35 -19 8 0 13 -3 11 -7 -2 -5 16 -23 40 -41 25 -18 41 -27 37 -20 -4 7 6 0 22
-17 17 -16 42 -39 58 -49 15 -11 36 -27 46 -35 47 -40 56 -47 63 -48 5 -1 20
-15 34 -32 14 -17 29 -28 34 -25 5 3 9 -2 9 -10 0 -9 3 -16 8 -16 4 0 36 -27
71 -60 35 -33 67 -60 72 -60 5 0 9 -7 9 -16 0 -8 4 -13 8 -10 5 3 15 -4 23
-15 8 -11 47 -55 87 -97 41 -42 88 -94 105 -116 18 -21 39 -46 48 -55 8 -9 32
-40 53 -69 21 -28 46 -58 56 -65 9 -6 18 -16 20 -22 7 -27 13 -34 23 -28 5 3
7 2 4 -4 -4 -5 1 -19 11 -29 9 -10 23 -31 31 -46 8 -16 18 -28 23 -28 4 0 8
-6 8 -13 0 -7 8 -22 18 -33 9 -10 23 -31 31 -46 8 -16 18 -28 23 -28 5 0 7 -4
4 -9 -3 -5 1 -14 9 -21 8 -7 15 -18 15 -24 0 -7 8 -21 18 -32 9 -11 18 -26 20
-34 2 -8 8 -16 13 -18 5 -2 9 -11 9 -21 0 -9 8 -26 18 -37 9 -10 19 -28 20
-39 2 -11 7 -22 11 -25 6 -4 19 -28 26 -50 1 -3 12 -27 24 -55 32 -70 44 -98
46 -111 2 -6 10 -27 18 -45 16 -36 29 -72 28 -77 -1 -1 6 -19 15 -40 9 -20 18
-47 20 -60 3 -13 11 -42 18 -65 12 -36 19 -63 32 -112 1 -5 5 -23 9 -40 9 -43
13 -60 15 -60 1 0 3 -9 5 -20 2 -11 6 -33 10 -50 3 -16 6 -37 6 -45 0 -8 3
-22 6 -30 3 -8 7 -31 9 -50 2 -19 6 -51 9 -70 34 -225 34 -616 -1 -875 -2 -22
-7 -56 -9 -75 -2 -19 -7 -53 -10 -75 -3 -22 -7 -51 -9 -65 -2 -14 -7 -32 -10
-42 -4 -9 -9 -31 -11 -50 -2 -18 -4 -33 -5 -33 -1 0 -4 -11 -6 -25 -9 -62 -12
-79 -18 -88 -3 -5 -8 -24 -11 -43 -3 -19 -13 -59 -21 -89 -9 -30 -18 -66 -21
-79 -2 -13 -8 -32 -14 -43 -5 -10 -7 -18 -3 -18 3 0 1 -6 -5 -14 -6 -8 -11
-18 -10 -22 2 -5 -8 -43 -21 -84 -13 -41 -24 -79 -25 -85 0 -5 -2 -12 -5 -15
-3 -3 -16 -36 -29 -75 -13 -38 -28 -75 -33 -82 -6 -7 -7 -17 -3 -23 3 -5 1
-10 -5 -10 -7 0 -10 -7 -6 -15 3 -8 1 -15 -4 -15 -6 0 -10 -7 -10 -15 0 -9 -9
-33 -20 -54 -10 -21 -16 -41 -13 -45 4 -3 1 -6 -6 -6 -8 0 -11 -7 -7 -15 3 -8
2 -15 -2 -15 -5 0 -14 -17 -21 -37 -15 -42 -38 -94 -86 -198 -18 -38 -36 -80
-40 -92 -3 -13 -11 -23 -16 -23 -5 0 -9 -8 -9 -17 0 -10 -7 -27 -15 -37 -8
-10 -12 -23 -9 -27 3 -5 1 -9 -4 -9 -8 0 -19 -23 -21 -46 0 -2 -7 -12 -16 -20
-8 -9 -13 -20 -10 -25 4 -5 2 -9 -4 -9 -5 0 -13 -10 -17 -22 -3 -13 -15 -35
-25 -49 -10 -14 -16 -29 -12 -33 3 -3 0 -6 -7 -6 -7 0 -11 -3 -7 -6 3 -4 -1
-13 -9 -21 -8 -8 -12 -19 -9 -24 4 -5 2 -9 -3 -9 -8 0 -36 -50 -33 -58 1 -1
-5 -10 -14 -18 -8 -9 -13 -19 -10 -24 3 -5 1 -10 -4 -12 -5 -1 -11 -10 -13
-18 -2 -8 -9 -21 -16 -28 -7 -8 -10 -18 -7 -23 4 -5 2 -9 -3 -9 -7 0 -55 -101
-57 -120 0 -3 -5 -14 -11 -25 -6 -11 -21 -49 -33 -85 -13 -36 -27 -74 -32 -85
-5 -11 -11 -29 -12 -40 -2 -11 -9 -33 -16 -49 -6 -16 -10 -35 -7 -43 3 -7 2
-13 -2 -13 -7 0 -12 -20 -15 -62 -1 -10 -4 -18 -7 -18 -4 0 -7 -6 -8 -12 -1
-16 -9 -65 -17 -98 -11 -49 -17 -85 -21 -119 -2 -19 -6 -50 -10 -70 -30 -175
-35 -551 -10 -806 9 -84 17 -151 21 -180 3 -16 7 -47 9 -67 3 -21 7 -50 10
-65 10 -43 18 -96 17 -115 0 -10 3 -18 7 -18 4 0 8 -10 8 -22 1 -13 5 -36 9
-53 6 -27 11 -51 18 -95 2 -9 6 -21 11 -28 4 -6 5 -12 1 -12 -3 0 -1 -9 5 -21
10 -18 24 -19 26 -1 1 12 24 64 49 114 13 27 22 48 19 48 -3 0 4 13 16 30 12
16 18 34 15 40 -3 5 -1 10 4 10 6 0 11 5 11 10 0 6 18 49 40 96 22 47 40 88
40 90 0 2 15 37 34 77 56 121 70 152 72 160 1 4 3 10 4 15 1 4 2 10 1 15 0 4
3 7 8 7 5 0 17 21 27 48 10 26 25 58 33 72 9 13 16 27 15 30 -2 14 10 40 19
40 6 0 8 3 4 6 -3 3 3 23 15 45 11 21 21 45 22 52 1 8 10 26 19 41 10 15 15
32 11 38 -4 6 -3 8 3 5 9 -6 39 59 35 76 -1 4 2 7 8 7 6 0 9 3 8 8 -1 4 3 17
10 30 7 12 9 22 5 22 -4 0 -3 4 2 8 12 8 51 89 60 122 0 3 9 20 18 38 10 17
15 32 12 32 -4 0 1 7 9 16 9 8 14 20 11 25 -4 5 -1 9 5 9 7 0 10 7 6 15 -3 8
-1 15 3 15 5 0 17 21 27 48 10 26 24 56 31 68 7 11 10 24 6 27 -3 4 -1 7 5 7
7 0 12 8 12 18 0 9 7 26 15 36 8 10 12 23 9 27 -3 5 0 9 5 9 6 0 11 9 11 19 0
11 5 21 10 23 6 2 12 13 13 26 0 12 5 22 9 22 4 0 8 4 8 10 0 5 16 45 36 87
20 43 37 84 37 91 0 6 4 12 9 12 4 0 8 5 8 11 0 10 47 117 75 169 7 14 14 28
14 32 1 7 32 77 87 195 35 76 47 107 46 116 -1 4 2 7 8 7 5 0 10 4 10 9 0 5 4
20 9 33 5 13 9 27 9 32 0 5 5 12 12 16 6 4 12 17 13 28 1 12 4 22 7 22 7 0 52
103 48 111 -2 3 5 13 15 23 9 10 15 22 12 27 -4 5 -1 9 4 9 6 0 11 4 11 9 0 5
5 22 12 38 6 15 11 31 10 36 -1 4 2 7 8 7 5 0 10 5 10 11 0 11 30 80 60 141
10 20 16 39 13 42 -4 3 -1 6 5 6 7 0 12 5 12 12 0 6 12 36 26 67 14 31 32 70
39 86 8 17 30 66 50 110 38 81 57 126 60 135 0 3 6 15 13 26 6 12 8 24 5 28
-3 3 -1 6 5 6 10 0 33 54 31 74 0 5 4 12 11 16 6 4 12 13 14 21 1 8 19 50 41
94 21 44 38 86 38 93 0 6 4 12 9 12 5 0 6 5 3 10 -3 6 -1 10 4 10 6 0 11 6 11
13 0 6 10 32 23 57 21 42 21 48 9 88 -8 23 -18 42 -23 42 -5 0 -6 7 -3 15 4 8
1 15 -6 15 -6 0 -9 3 -6 8 2 4 -3 23 -12 42 -8 19 -16 37 -16 40 -1 4 -29 81
-43 120 -3 8 -7 20 -9 25 -1 6 -9 27 -18 47 -9 21 -16 39 -15 40 1 2 -8 23
-21 48 -13 25 -22 47 -22 50 3 15 -12 50 -21 50 -6 0 -8 3 -4 6 5 5 -7 44 -38
119 -5 11 -9 22 -10 25 -1 3 -5 14 -9 25 -34 87 -34 90 -22 108 7 9 16 14 19
10 4 -3 7 1 7 10 0 9 5 19 12 23 7 5 8 2 3 -7 -4 -8 4 -2 19 14 15 15 31 27
36 27 5 0 12 9 15 21 4 11 9 18 12 16 5 -6 37 19 84 66 15 15 32 27 38 27 6 0
11 3 11 8 0 4 10 18 21 32 11 14 17 18 13 10 -7 -14 13 2 98 83 21 19 45 37
54 41 9 3 12 11 8 18 -4 7 -4 10 1 6 4 -4 64 43 134 105 194 173 232 206 361
317 52 45 102 91 112 101 9 10 19 19 22 19 3 0 15 9 27 21 13 13 27 18 37 14
9 -4 22 -8 27 -9 6 -1 29 -12 51 -24 23 -11 44 -18 48 -15 3 4 6 1 6 -6 0 -7
4 -10 9 -6 5 3 12 1 16 -5 4 -6 11 -8 16 -5 5 4 9 1 9 -4 0 -6 4 -11 9 -11 5
0 26 -8 47 -17 22 -9 41 -17 44 -18 9 -3 105 -46 144 -65 22 -11 43 -17 48
-14 4 3 8 0 8 -5 0 -6 6 -11 14 -11 27 0 28 -8 41 -200 8 -122 14 -215 20
-285 4 -38 8 -99 10 -135 1 -36 4 -65 5 -65 1 0 3 -27 5 -60 3 -56 9 -144 21
-295 2 -36 7 -96 9 -135 3 -38 7 -99 10 -135 3 -36 7 -95 10 -132 l3 -66 -36
-18 c-20 -10 -40 -17 -44 -16 -5 1 -8 -2 -8 -8 0 -6 -3 -9 -8 -8 -10 4 -206
-85 -210 -94 -2 -5 -8 -6 -13 -2 -5 3 -9 0 -9 -6 0 -6 -4 -9 -8 -6 -5 3 -34
-8 -65 -23 -31 -15 -59 -26 -62 -23 -3 3 -5 0 -5 -6 0 -7 -3 -11 -7 -10 -5 1
-29 -8 -55 -20 -26 -12 -52 -22 -57 -22 -6 0 -11 -4 -11 -8 0 -5 -6 -9 -12 -9
-7 0 -48 -17 -91 -37 -43 -20 -83 -36 -88 -36 -5 0 -9 -5 -9 -12 0 -6 -3 -8
-7 -5 -3 4 -15 -1 -26 -10 -15 -13 -18 -14 -12 -3 6 11 4 11 -11 -2 -10 -9
-23 -16 -29 -16 -12 1 -45 -64 -38 -74 2 -5 0 -8 -6 -8 -5 0 -12 -13 -16 -30
-4 -16 -11 -30 -16 -30 -6 0 -9 -6 -8 -12 2 -7 -9 -37 -24 -67 -15 -29 -24
-57 -22 -62 3 -4 0 -9 -5 -11 -6 -2 -12 -10 -14 -18 -1 -8 -8 -25 -14 -37 -7
-13 -10 -23 -7 -23 4 0 -1 -7 -10 -16 -9 -9 -14 -21 -12 -28 2 -6 -2 -17 -10
-24 -7 -8 -11 -18 -8 -23 4 -5 1 -9 -4 -9 -6 0 -11 -5 -11 -11 0 -9 -7 -26
-66 -157 -13 -29 -24 -54 -24 -56 0 -2 -8 -21 -17 -42 -9 -22 -16 -42 -15 -46
1 -5 -3 -8 -9 -8 -6 0 -9 -6 -6 -14 3 -8 -1 -20 -9 -26 -8 -7 -14 -18 -14 -24
0 -6 -6 -22 -13 -36 -7 -14 -24 -52 -37 -85 -13 -33 -29 -69 -36 -80 -7 -11
-14 -24 -15 -30 -3 -14 -26 -71 -49 -120 -10 -22 -20 -47 -22 -55 -2 -8 -7
-18 -11 -21 -4 -3 -9 -15 -10 -27 0 -12 -3 -19 -6 -17 -3 4 -46 -88 -55 -120
-2 -5 -13 -32 -25 -60 -88 -197 -100 -225 -95 -225 3 0 -2 -7 -11 -16 -9 -9
-14 -23 -11 -30 3 -8 2 -14 -2 -14 -8 0 -48 -91 -44 -102 1 -5 -2 -8 -6 -8 -6
0 -34 -59 -37 -80 0 -3 -6 -15 -14 -28 -7 -13 -14 -33 -16 -44 -3 -12 -9 -25
-15 -28 -6 -4 -12 -17 -13 -28 -1 -12 -5 -22 -9 -22 -4 0 -5 -7 -2 -15 4 -8 2
-15 -4 -15 -10 0 -49 -89 -44 -102 1 -5 -2 -8 -7 -8 -8 0 -21 -34 -20 -54 1
-5 -3 -12 -8 -15 -4 -3 -14 -17 -21 -30 -11 -18 -11 -21 -1 -15 7 4 2 -8 -11
-27 -14 -19 -24 -35 -23 -36 2 -3 -17 -52 -42 -108 -37 -81 -49 -111 -49 -120
-1 -5 -3 -12 -6 -15 -3 -3 -14 -20 -24 -39 -13 -23 -15 -31 -5 -26 8 5 5 -1
-5 -13 -11 -12 -15 -22 -10 -22 5 0 5 -4 -1 -8 -13 -9 -45 -79 -45 -97 0 -8
-5 -15 -10 -15 -6 0 -9 -3 -8 -7 1 -9 -5 -25 -33 -89 -71 -161 -97 -224 -91
-224 4 0 1 -4 -7 -9 -8 -5 -15 -18 -16 -28 0 -10 -8 -30 -18 -43 -9 -13 -14
-27 -11 -32 3 -4 0 -8 -5 -8 -6 0 -10 -3 -10 -7 1 -5 -4 -24 -12 -43 -7 -19
-12 -38 -11 -42 1 -5 -2 -8 -8 -8 -5 0 -10 -4 -10 -10 0 -5 -11 -34 -25 -64
-37 -80 -48 -110 -47 -118 1 -5 -2 -8 -8 -8 -6 0 -9 -3 -8 -7 1 -9 -7 -31 -50
-126 -17 -37 -31 -70 -32 -72 0 -3 -11 -28 -24 -57 -35 -82 -39 -92 -38 -100
1 -5 -2 -8 -8 -8 -6 0 -9 -3 -8 -7 1 -9 -12 -44 -41 -104 -11 -23 -18 -46 -15
-50 3 -5 2 -9 -3 -9 -8 0 -35 -51 -30 -57 6 -5 7840 4781 7843 4792 3 12
-9996 5939 -10023 5942 -10 1 -2303 -1419 -5095 -3155z"/>
<path d="M14290 11775 c-2009 -1720 -3538 -3022 -3544 -3018 -6 4 -861 546
-1900 1205 -1038 659 -1890 1198 -1892 1198 -2 0 -4 -879 -4 -1953 l0 -1953
5440 -2827 c2992 -1555 5442 -2827 5445 -2827 3 0 5 2970 5 6600 0 3630 -4
6600 -8 6600 -5 0 -1598 -1361 -3542 -3025z"/>
<path d="M18120 8035 c0 -3539 2 -6435 4 -6435 7 0 10489 5599 10497 5607 5 5
8 863 7 1921 l-3 1912 -1645 -1149 c-1380 -964 -1647 -1147 -1660 -1136 -79
65 -7192 5715 -7195 5715 -3 0 -5 -2896 -5 -6435z"/>
</g>
</svg>
