<svg version="1" xmlns="http://www.w3.org/2000/svg" width="668" height="668" viewBox="0 0 501.000000 501.000000"><path d="M239.5 5.6c-2.8 1.9-5.7 3.8-6.5 4.4-2.2 1.5-86.4 57.3-88.2 58.5-.8.5-6.2 4.1-11.9 8l-12 8c-.9.5-5.1 3.4-9.5 6.3l-7.9 5.4v73.1l77.5 51.6c42.6 28.4 77.7 51.9 77.8 52.3.2.5.7.8 1.2.8.4 0 11.7 7.3 25.1 16.3 13.4 9 25.2 16.6 26.2 17 .9.3 1.7 1.1 1.7 1.7 0 .5.4 1 .9 1 1.2 0 10.5 6.1 10.9 7.2.2.4.8.8 1.4.8.5 0 2.4 1.1 4.2 2.5 1.8 1.4 3.6 2.5 4 2.5.4 0 1.2.5 1.9 1.1.7.6 6.4 4.5 12.7 8.8l11.5 7.7v28.3c0 35.8.6 34.7-14 22.9-5.5-4.4-10.9-8.6-11.9-9.4-1.8-1.2-2-2.7-2.1-15.8-.1-15.3-.8-17.6-5.4-17.6-3.9 0-4.7 3-4.6 16.9.1 7.2-.1 13.5-.4 14-.9 1.3-76.4 51.4-77.6 51.4-.8 0-75.5-49.1-77.5-51-.2-.2-.5-31.9-.5-70.4 0-75.6.3-71.8-5.1-71.9-4.9 0-4.9-1.5-4.9 72.7v69.4l-3.6 3.2c-4.2 3.6-5.4 4.6-12.4 10.2-2.7 2.1-5.5 4.5-6.2 5.3-1.1 1.3-1.5 1.3-3.5 0l-2.3-1.5v-90.8c0-88.4-.1-90.7-2-92.1-2.4-1.8-3-1.8-4.9.1-1.4 1.4-1.6 3.7-1.7 25v145.2c.1 1 .1 7.2 0 13.8 0 6.6 0 12.7.1 13.5 0 .8.1 2.2.1 3 0 1.2 120.2 82.4 123.9 83.8.8.3 38.2-24 40.8-26.5.6-.6 2.1-1.5 3.2-1.8 1.1-.3 2-1 2-1.4 0-.4 1.1-1.3 2.5-1.9 1.4-.7 3.1-1.6 3.8-2.2.7-.6 4.6-3.3 8.7-6s8.2-5.4 9-6c.8-.5 4.4-2.9 8-5.2 3.6-2.4 6.7-4.6 6.8-5.1.2-.4.7-.7 1.1-.7.4 0 13.1-8.2 28.2-18.2l27.4-18.3v-37.3c.1-20.5-.1-37.6-.5-38-.3-.4-13.8-9.5-30-20.2s-29.9-19.9-30.5-20.3c-1.8-1.4-54.9-36.7-55.2-36.7-.2 0-2.8-1.8-5.8-4s-5.6-4-5.9-4c-.3 0-3.1-1.8-6.3-4-3.2-2.2-6.5-4.5-7.4-5.1-1.9-1.3-12.8-8.5-17.3-11.4-12.1-7.7-33.2-22.1-33.4-22.7-.2-.5-.8-.8-1.3-.8-.6 0-1.5-.5-2.2-1-.7-.6-11.1-7.6-23.2-15.6s-22.8-15.2-23.8-16c-.9-.7-1.9-1.4-2.1-1.4-.3 0-3.1-1.7-6.3-3.9l-5.8-3.8v-27.4c-.1-25.4.1-27.5 1.8-28.7 1.5-1.2 2.2-1.1 4.3.3 1.4.9 3.3 2.4 4.3 3.3.9.9 4.1 3.6 7.1 6 11.5 8.9 10.4 6.5 10.5 22.8.1 15.2.4 16.4 4.9 16.9 4.4.5 5.1-1.6 5.1-16.6 0-7.8.5-14.2 1-14.7.8-.8 15.3-10.5 46.5-31.2.8-.5 5.5-3.7 10.4-7 4.8-3.3 9-6 9.2-6 .2 0 2.6-1.6 5.3-3.5 2.6-1.9 5.1-3.5 5.5-3.5.6 0 44.5 28.9 45.6 30 .9.9 10.1 7 10.5 7 .8 0 19.9 13.2 21 14.5.7.8 1 25 1 69.6v68.4l2.1 2.2c2.6 2.6 6 2.1 7.1-1.1.4-1.1.8-32.9.9-70.6.1-37.7.2-68.8.3-69.1 0-.3 2-2 4.4-3.7 2.3-1.7 5.4-4.1 6.8-5.4 10.4-9 12.6-10.3 14.8-8.4 1.6 1.4 1.7 7.4 1.6 90.3 0 48.9.3 90 .8 91.5 1.1 3.5 3.3 4.2 5.7 1.8 2-2 2-3.7 2-101.9v-100l-47.7-31.7C295 35.9 267 17.3 259 12l-14.6-9.7-4.9 3.3zm0 40.9l.1 14.4-36.8 24.5C182.5 99 165.5 110 165 110c-.6 0-1 .4-1 1 0 2.5-3.7.4-12.3-6.6-5.1-4.2-9.2-8-9.2-8.5 0-.9 37.2-25.9 38.5-25.9.5 0 1-.4 1.2-.8.4-1.1 18.5-13.2 19.7-13.2.5 0 1.1-.4 1.3-.8.4-1 9.6-7.2 10.8-7.2.4 0 1-.3 1.2-.8.4-1 9.7-7.2 10.7-7.2.5 0 1.1-.4 1.3-.8.5-1.2 11.2-8.1 11.7-7.6.3.3.6 7 .6 14.9zm58.4 16.2c26.2 17.4 48 32 48.5 32.4.5.4.3 1.4-.5 2.2-3.1 3-18 14.7-18.8 14.7-.8 0-33.7-21.4-36.6-23.7-.5-.5-9.8-6.6-20.5-13.7s-19.7-13.1-20-13.3c-.5-.5-.7-30.3-.2-30.3.3 0 21.9 14.3 48.1 31.7zM194.1 410c.4 0 .9.3 1.1.7.2.5 10.1 7.3 22.1 15.2 11.9 7.9 21.8 14.7 21.8 15 .6 3 .3 29.4-.3 29.7-.4.3-.8.1-.8-.5 0-.5-.6-1.1-1.2-1.3-.7-.2-15.4-9.7-32.7-21.3-17.2-11.6-32-21.5-32.9-22-.8-.6-6.2-4.2-12-8-5.8-3.9-12-7.9-13.9-8.9-1.8-1.1-3.3-2.3-3.3-2.7 0-.4 1.9-2.2 4.3-4 2.3-1.9 4.4-3.7 4.8-4.1.3-.4 2.9-2.6 5.8-4.7l5.3-4 15.5 10.5c8.6 5.7 15.9 10.4 16.4 10.4zm152.9-4.1c-.1.3-15 10.5-33.3 22.6-18.3 12.1-33.3 22.3-33.5 22.7-.2.5-.8.8-1.3.8s-6.6 3.8-13.5 8.5c-6.8 4.6-13.2 8.9-14.2 9.4-1.6.9-1.7-.1-1.6-13.7.1-8.1.2-15 .3-15.3 0-.3 13.3-9.3 29.4-20 16-10.7 29.4-19.6 29.7-19.9.3-.3 3.7-2.5 7.5-5 3.9-2.5 7.2-4.7 7.5-5.1 1.7-2.1 4.4-.9 13.3 6.4 5.3 4.3 9.7 8.2 9.7 8.6z"/></svg>