<?xml version="1.0" encoding="utf-8"?>
<!-- Generator: Adobe Illustrator 16.0.0, SVG Export Plug-In . SVG Version: 6.00 Build 0)  -->
<!DOCTYPE svg PUBLIC "-//W3C//DTD SVG 1.1//EN" "http://www.w3.org/Graphics/SVG/1.1/DTD/svg11.dtd">
<svg version="1.1" id="BACGROUND_2" xmlns="http://www.w3.org/2000/svg" xmlns:xlink="http://www.w3.org/1999/xlink" x="0px"
	 y="0px" width="750px" height="500px" viewBox="0 0 750 500" style="enable-background:new 0 0 750 500;" xml:space="preserve">
<style type="text/css">
<![CDATA[
	.st0{fill:#ABDED7;}
	.st1{fill:#7EC7E7;}
	.st2{fill:#AF6F3A;}
	.st3{fill:#E2E5EA;}
	.st4{fill:#4B7A72;}
	.st5{fill:#E74030;}
	.st6{fill:#4D4D4D;}
	.st7{fill:#808080;}
	.st8{opacity:0.25;}
	.st9{opacity:0.42;}
	.st10{fill:#B3B6BA;}
	.st11{fill:#B5B7BA;}
	.st12{fill:#ED6358;}
	.st13{fill:#EFEFEF;}
	.st14{fill:#EFF1F4;}
	.st15{fill:#8BD1C6;}
	.st16{fill:#BCBCBC;}
	.st17{fill:#212328;}
	.st18{fill:#2196BF;}
	.st19{fill:#F15A24;}
	.st20{fill:#F19087;}
	.st21{fill:#25272D;}
	.st22{fill:#5AA197;}
	.st23{fill:#F6B1AA;}
	.st24{fill:#F7F7F7;}
	.st25{fill:#F98680;}
	.st26{fill:#C1C3C6;}
	.st27{opacity:0.2;fill:#FFFFFF;}
	.st28{fill:#C4864D;}
	.st29{fill:#989CA0;}
	.st30{opacity:0.2;}
	.st31{fill:#606873;}
	.st32{fill:#FE8B24;}
	.st33{fill:#FEA559;}
	.st34{fill:#FEE0C4;}
	.st35{fill:#FEFEFE;}
	.st36{fill:#FF6900;}
	.st37{fill:#FFC391;}
	.st38{fill:#FFD6AE;}
	.st39{fill:#FFFFFF;}
	.st40{fill:#666666;}
	.st41{fill:#68C4B5;}
	.st42{fill:#CC7E44;}
	.st43{display:inline;}
	.st44{fill:#31343B;}
	.st45{fill:#333333;}
	.st46{fill:#6A6C6D;}
	.st47{fill:#D0F0FC;}
	.st48{fill:#D3874F;}
	.st49{fill:#D6D6D6;}
	.st50{display:none;fill:#2196BF;}
	.st51{display:none;}
	.st52{fill:#A32821;}
	.st53{fill:#A3682C;}
	.st54{fill:#A5D7EE;}
	.st55{fill:#DCDDE0;}
	.st56{fill:#434549;}
]]>
</style>
<g>
	<g>
		<g>
			<g class="st51">
				<path class="st18" d="M545.5,305.4L545.5,305.4h-5.1h-11c-0.4,0-0.8,0.3-0.8,0.8v135.7c0,0.4,0.3,0.8,0.8,0.8h11h5.1h0
					c0.4,0,0.8-0.3,0.8-0.8v0v-0.2v-0.3v-0.7v-0.3v-0.7v-0.3v-0.7v-0.3v-0.7v-0.3v-0.7v-0.3v-0.7v-0.3v-0.7v-0.3v-0.7v-0.3v-0.7
					v-0.3v-0.7v-0.3v-0.7v-0.3v-0.7v-0.3v-0.7V428v-0.7V427v-0.7V426v-0.7V425v-0.7V424v-0.7v-0.3v-0.7v-0.3v-0.7v-0.3v-0.7v-0.3
					v-0.7v-0.3v-0.7v-0.3v-0.7v-0.3v-0.7v-0.3V415v-0.3V414v-0.3V413v-0.3V412v-0.3v-0.7v-0.3v-0.7v-0.3v-0.7v-0.3v-0.7v-0.3v-0.7
					v-0.3v-0.7v-0.3v-0.7v-0.3v-0.7v-0.3v-0.7v-0.3v-0.7v-0.3v-0.7v-0.3v-0.7v-0.3v-0.7v-0.3v-0.7v-0.3v-0.7v-0.3v-0.7v-0.3v-0.7
					v-0.3v-0.7v-0.3v-0.7v-0.3v-0.7v-0.3v-0.7v-0.3v-0.7v-0.3v-0.7v-0.3v-0.7v-0.3v-0.7v-0.3v-0.7v-0.3v-0.7V384v-0.7V383v-0.7V382
					v-0.7V381v-0.7V380v-0.7v-0.3v-0.7v-0.3v-0.7v-0.3v-0.7v-0.3v-0.7v-0.3v-0.7v-0.3v-0.7v-0.3v-0.7v-0.3V371v-0.3V370v-0.3V369
					v-0.3V368v-0.3v-0.7v-0.3v-0.7v-0.3v-0.7v-0.3v-0.7v-0.3v-0.7v-0.3v-0.7v-0.3v-0.7v-0.3v-0.7v-0.3v-0.7v-0.3v-0.7v-0.3v-0.7
					v-0.3v-0.7v-0.3v-0.7v-0.3v-0.7v-0.3v-0.7v-0.3v-0.7v-0.3v-0.7v-0.3v-0.7v-0.3v-0.7v-0.3v-0.7v-0.3v-0.7v-0.3v-0.7v-0.3v-0.7
					v-0.3v-0.7v-0.3v-0.7v-0.3v-0.7v-0.3v-0.7V340v-0.7V339v-0.7V338v-0.7V337v-0.7V336v-0.7v-0.3v-0.7v-0.3v-0.7v-0.3v-0.7v-0.3
					v-0.7v-0.3v-0.7v-0.3v-0.7v-0.3v-0.7v-0.3V327v-0.3V326v-0.3V325v-0.3V324v-0.3v-0.7v-0.3v-0.7v-0.3v-0.7v-0.3v-0.7v-0.3v-0.7
					v-0.3v-0.7v-0.3v-0.7v-0.3v-0.7v-0.3v-0.7v-0.3v-0.7v-0.3v-0.7v-0.3v-0.7v-0.3v-0.7v-0.3v-0.7v-0.3v-0.7v-0.3v-0.7v-0.3v-0.7
					v-0.3v-0.1v0C546.2,305.8,545.9,305.4,545.5,305.4z"/>
				<g class="st43">
					<path class="st33" d="M540.3,437.5h-16.2c-0.4,0-0.8-0.3-0.8-0.8V301c0-0.4,0.3-0.8,0.8-0.8h16.2c0.4,0,0.8,0.3,0.8,0.8v135.7
						C541.1,437.2,540.8,437.5,540.3,437.5z"/>
					<path class="st37" d="M540.3,437.5h-5.1V300.3h5.1c0.4,0,0.8,0.3,0.8,0.8v135.7C541.1,437.2,540.8,437.5,540.3,437.5z"/>
					<g>
						<g>
							<rect x="536" y="301.1" class="st48" width="5.1" height="0.3"/>
						</g>
						<g>
							<rect x="536" y="303.2" class="st48" width="5.1" height="0.3"/>
						</g>
						<g>
							<rect x="536" y="305.2" class="st48" width="5.1" height="0.3"/>
						</g>
						<g>
							<rect x="536" y="307.3" class="st48" width="5.1" height="0.3"/>
						</g>
						<g>
							<rect x="536" y="309.3" class="st48" width="5.1" height="0.3"/>
						</g>
						<g>
							<rect x="536" y="311.4" class="st48" width="5.1" height="0.3"/>
						</g>
						<g>
							<rect x="536" y="313.4" class="st48" width="5.1" height="0.3"/>
						</g>
						<g>
							<rect x="536" y="315.5" class="st48" width="5.1" height="0.3"/>
						</g>
						<g>
							<rect x="536" y="317.5" class="st48" width="5.1" height="0.3"/>
						</g>
						<g>
							<rect x="536" y="319.6" class="st48" width="5.1" height="0.3"/>
						</g>
						<g>
							<rect x="536" y="321.6" class="st48" width="5.1" height="0.3"/>
						</g>
						<g>
							<rect x="536" y="323.7" class="st48" width="5.1" height="0.3"/>
						</g>
						<g>
							<rect x="536" y="325.7" class="st48" width="5.1" height="0.3"/>
						</g>
						<g>
							<rect x="536" y="327.8" class="st48" width="5.1" height="0.3"/>
						</g>
						<g>
							<rect x="536" y="329.8" class="st48" width="5.1" height="0.3"/>
						</g>
						<g>
							<rect x="536" y="331.8" class="st48" width="5.1" height="0.3"/>
						</g>
						<g>
							<rect x="536" y="333.9" class="st48" width="5.1" height="0.3"/>
						</g>
						<g>
							<rect x="536" y="335.9" class="st48" width="5.1" height="0.3"/>
						</g>
						<g>
							<rect x="536" y="338" class="st48" width="5.1" height="0.3"/>
						</g>
						<g>
							<rect x="536" y="340" class="st48" width="5.1" height="0.3"/>
						</g>
						<g>
							<rect x="536" y="342.1" class="st48" width="5.1" height="0.3"/>
						</g>
						<g>
							<rect x="536" y="344.1" class="st48" width="5.1" height="0.3"/>
						</g>
						<g>
							<rect x="536" y="346.2" class="st48" width="5.1" height="0.3"/>
						</g>
						<g>
							<rect x="536" y="348.2" class="st48" width="5.1" height="0.3"/>
						</g>
						<g>
							<rect x="536" y="350.3" class="st48" width="5.1" height="0.3"/>
						</g>
						<g>
							<rect x="536" y="352.3" class="st48" width="5.1" height="0.3"/>
						</g>
						<g>
							<rect x="536" y="354.4" class="st48" width="5.1" height="0.3"/>
						</g>
						<g>
							<rect x="536" y="356.4" class="st48" width="5.1" height="0.3"/>
						</g>
						<g>
							<rect x="536" y="358.4" class="st48" width="5.1" height="0.3"/>
						</g>
						<g>
							<rect x="536" y="360.5" class="st48" width="5.1" height="0.3"/>
						</g>
						<g>
							<rect x="536" y="362.5" class="st48" width="5.1" height="0.3"/>
						</g>
						<g>
							<rect x="536" y="364.6" class="st48" width="5.1" height="0.3"/>
						</g>
						<g>
							<rect x="536" y="366.6" class="st48" width="5.1" height="0.3"/>
						</g>
						<g>
							<rect x="536" y="368.7" class="st48" width="5.1" height="0.3"/>
						</g>
						<g>
							<rect x="536" y="370.7" class="st48" width="5.1" height="0.3"/>
						</g>
						<g>
							<rect x="536" y="372.8" class="st48" width="5.1" height="0.3"/>
						</g>
						<g>
							<rect x="536" y="374.8" class="st48" width="5.1" height="0.3"/>
						</g>
						<g>
							<rect x="536" y="376.9" class="st48" width="5.1" height="0.3"/>
						</g>
						<g>
							<rect x="536" y="378.9" class="st48" width="5.1" height="0.3"/>
						</g>
						<g>
							<rect x="536" y="381" class="st48" width="5.1" height="0.3"/>
						</g>
						<g>
							<rect x="536" y="383" class="st48" width="5.1" height="0.3"/>
						</g>
						<g>
							<rect x="536" y="385.1" class="st48" width="5.1" height="0.3"/>
						</g>
						<g>
							<rect x="536" y="387.1" class="st48" width="5.1" height="0.3"/>
						</g>
						<g>
							<rect x="536" y="389.1" class="st48" width="5.1" height="0.3"/>
						</g>
						<g>
							<rect x="536" y="391.2" class="st48" width="5.1" height="0.3"/>
						</g>
						<g>
							<rect x="536" y="393.2" class="st48" width="5.1" height="0.3"/>
						</g>
						<g>
							<rect x="536" y="395.3" class="st48" width="5.1" height="0.3"/>
						</g>
						<g>
							<rect x="536" y="397.3" class="st48" width="5.1" height="0.3"/>
						</g>
						<g>
							<rect x="536" y="399.4" class="st48" width="5.1" height="0.3"/>
						</g>
						<g>
							<rect x="536" y="401.4" class="st48" width="5.1" height="0.3"/>
						</g>
						<g>
							<rect x="536" y="403.5" class="st48" width="5.1" height="0.3"/>
						</g>
						<g>
							<rect x="536" y="405.5" class="st48" width="5.1" height="0.3"/>
						</g>
						<g>
							<rect x="536" y="407.6" class="st48" width="5.1" height="0.3"/>
						</g>
						<g>
							<rect x="536" y="409.6" class="st48" width="5.1" height="0.3"/>
						</g>
						<g>
							<rect x="536" y="411.7" class="st48" width="5.1" height="0.3"/>
						</g>
						<g>
							<rect x="536" y="413.7" class="st48" width="5.1" height="0.3"/>
						</g>
						<g>
							<rect x="536" y="415.8" class="st48" width="5.1" height="0.3"/>
						</g>
						<g>
							<rect x="536" y="417.8" class="st48" width="5.1" height="0.3"/>
						</g>
						<g>
							<rect x="536" y="419.8" class="st48" width="5.1" height="0.3"/>
						</g>
						<g>
							<rect x="536" y="421.9" class="st48" width="5.1" height="0.3"/>
						</g>
						<g>
							<rect x="536" y="423.9" class="st48" width="5.1" height="0.3"/>
						</g>
						<g>
							<rect x="536" y="426" class="st48" width="5.1" height="0.3"/>
						</g>
						<g>
							<rect x="536" y="428" class="st48" width="5.1" height="0.3"/>
						</g>
						<g>
							<rect x="536" y="430.1" class="st48" width="5.1" height="0.3"/>
						</g>
						<g>
							<rect x="536" y="432.1" class="st48" width="5.1" height="0.3"/>
						</g>
						<g>
							<rect x="536" y="434.2" class="st48" width="5.1" height="0.3"/>
						</g>
						<g>
							<rect x="538.5" y="302.2" class="st48" width="2.6" height="0.3"/>
							<rect x="538.5" y="304.2" class="st48" width="2.6" height="0.3"/>
							<rect x="538.5" y="306.3" class="st48" width="2.6" height="0.3"/>
							<rect x="538.5" y="308.3" class="st48" width="2.6" height="0.3"/>
							<rect x="538.5" y="310.4" class="st48" width="2.6" height="0.3"/>
							<rect x="538.5" y="312.4" class="st48" width="2.6" height="0.3"/>
							<rect x="538.5" y="314.5" class="st48" width="2.6" height="0.3"/>
							<rect x="538.5" y="316.5" class="st48" width="2.6" height="0.3"/>
							<rect x="538.5" y="318.5" class="st48" width="2.6" height="0.3"/>
							<rect x="538.5" y="320.6" class="st48" width="2.6" height="0.3"/>
							<rect x="538.5" y="322.6" class="st48" width="2.6" height="0.3"/>
							<rect x="538.5" y="324.7" class="st48" width="2.6" height="0.3"/>
							<rect x="538.5" y="326.7" class="st48" width="2.6" height="0.3"/>
							<rect x="538.5" y="328.8" class="st48" width="2.6" height="0.3"/>
							<rect x="538.5" y="330.8" class="st48" width="2.6" height="0.3"/>
							<rect x="538.5" y="332.9" class="st48" width="2.6" height="0.3"/>
							<rect x="538.5" y="334.9" class="st48" width="2.6" height="0.3"/>
							<rect x="538.5" y="337" class="st48" width="2.6" height="0.3"/>
							<rect x="538.5" y="339" class="st48" width="2.6" height="0.3"/>
							<rect x="538.5" y="341.1" class="st48" width="2.6" height="0.3"/>
							<rect x="538.5" y="343.1" class="st48" width="2.6" height="0.3"/>
							<rect x="538.5" y="345.1" class="st48" width="2.6" height="0.3"/>
							<rect x="538.5" y="347.2" class="st48" width="2.6" height="0.3"/>
							<rect x="538.5" y="349.2" class="st48" width="2.6" height="0.3"/>
							<rect x="538.5" y="351.3" class="st48" width="2.6" height="0.3"/>
							<rect x="538.5" y="353.3" class="st48" width="2.6" height="0.3"/>
							<rect x="538.5" y="355.4" class="st48" width="2.6" height="0.3"/>
							<rect x="538.5" y="357.4" class="st48" width="2.6" height="0.3"/>
							<rect x="538.5" y="359.5" class="st48" width="2.6" height="0.3"/>
							<rect x="538.5" y="361.5" class="st48" width="2.6" height="0.3"/>
							<rect x="538.5" y="363.6" class="st48" width="2.6" height="0.3"/>
							<rect x="538.5" y="365.6" class="st48" width="2.6" height="0.3"/>
							<rect x="538.5" y="367.7" class="st48" width="2.6" height="0.3"/>
							<rect x="538.5" y="369.7" class="st48" width="2.6" height="0.3"/>
							<rect x="538.5" y="371.8" class="st48" width="2.6" height="0.3"/>
							<rect x="538.5" y="373.8" class="st48" width="2.6" height="0.3"/>
							<rect x="538.5" y="375.8" class="st48" width="2.6" height="0.3"/>
							<rect x="538.5" y="377.9" class="st48" width="2.6" height="0.3"/>
							<rect x="538.5" y="379.9" class="st48" width="2.6" height="0.3"/>
							<rect x="538.5" y="382" class="st48" width="2.6" height="0.3"/>
							<rect x="538.5" y="384" class="st48" width="2.6" height="0.3"/>
							<rect x="538.5" y="386.1" class="st48" width="2.6" height="0.3"/>
							<rect x="538.5" y="388.1" class="st48" width="2.6" height="0.3"/>
							<rect x="538.5" y="390.2" class="st48" width="2.6" height="0.3"/>
							<rect x="538.5" y="392.2" class="st48" width="2.6" height="0.3"/>
							<rect x="538.5" y="394.3" class="st48" width="2.6" height="0.3"/>
							<rect x="538.5" y="396.3" class="st48" width="2.6" height="0.3"/>
							<rect x="538.5" y="398.4" class="st48" width="2.6" height="0.3"/>
							<rect x="538.5" y="400.4" class="st48" width="2.6" height="0.3"/>
							<rect x="538.5" y="402.4" class="st48" width="2.6" height="0.3"/>
							<rect x="538.5" y="404.5" class="st48" width="2.6" height="0.3"/>
							<rect x="538.5" y="406.5" class="st48" width="2.6" height="0.3"/>
							<rect x="538.5" y="408.6" class="st48" width="2.6" height="0.3"/>
							<rect x="538.5" y="410.6" class="st48" width="2.6" height="0.3"/>
							<rect x="538.5" y="412.7" class="st48" width="2.6" height="0.3"/>
							<rect x="538.5" y="414.7" class="st48" width="2.6" height="0.3"/>
							<rect x="538.5" y="416.8" class="st48" width="2.6" height="0.3"/>
							<rect x="538.5" y="418.8" class="st48" width="2.6" height="0.3"/>
							<rect x="538.5" y="420.9" class="st48" width="2.6" height="0.3"/>
							<rect x="538.5" y="422.9" class="st48" width="2.6" height="0.3"/>
							<rect x="538.5" y="425" class="st48" width="2.6" height="0.3"/>
							<rect x="538.5" y="427" class="st48" width="2.6" height="0.3"/>
							<rect x="538.5" y="429.1" class="st48" width="2.6" height="0.3"/>
							<rect x="538.5" y="431.1" class="st48" width="2.6" height="0.3"/>
							<rect x="538.5" y="433.1" class="st48" width="2.6" height="0.3"/>
							<rect x="538.5" y="435.2" class="st48" width="2.6" height="0.3"/>
						</g>
						<g>
							<rect x="536" y="436.2" class="st48" width="5.1" height="0.3"/>
						</g>
					</g>
				</g>
			</g>
			<g>
				<g>
					<path class="st3" d="M499.9,292H219.3c-4.1,0-7.5-3.3-7.5-7.5V99.8c0-4.1,3.3-7.5,7.5-7.5h280.7c4.1,0,7.5,3.3,7.5,7.5v184.7
						C507.4,288.7,504.1,292,499.9,292z"/>
					<path class="st24" d="M475.7,210H243.5c-4.4,0-8-3.6-8-8v-86.6c0-4.4,3.6-8,8-8h232.2c4.4,0,8,3.6,8,8V202
						C483.7,206.4,480.1,210,475.7,210z"/>
					<g>
						<g>
							<path class="st45" d="M254.2,113.5h-9.9c-1.3,0-2.3,1-2.3,2.3v3.8c0,1.3,1,2.3,2.3,2.3h9.9c1.3,0,2.3-1,2.3-2.3v-3.8
								C256.6,114.5,255.5,113.5,254.2,113.5z"/>
							<path class="st45" d="M271.2,113.5h-9.9c-1.3,0-2.3,1-2.3,2.3v3.8c0,1.3,1,2.3,2.3,2.3h9.9c1.3,0,2.3-1,2.3-2.3v-3.8
								C273.6,114.5,272.5,113.5,271.2,113.5z"/>
							<path class="st45" d="M288.2,113.5h-9.9c-1.3,0-2.3,1-2.3,2.3v3.8c0,1.3,1.1,2.3,2.3,2.3h9.9c1.3,0,2.3-1,2.3-2.3v-3.8
								C290.5,114.5,289.5,113.5,288.2,113.5z"/>
							<path class="st45" d="M305.2,113.5h-9.9c-1.3,0-2.3,1-2.3,2.3v3.8c0,1.3,1,2.3,2.3,2.3h9.9c1.3,0,2.3-1,2.3-2.3v-3.8
								C307.5,114.5,306.5,113.5,305.2,113.5z"/>
							<path class="st45" d="M322.1,113.5h-9.9c-1.3,0-2.3,1-2.3,2.3v3.8c0,1.3,1.1,2.3,2.3,2.3h9.9c1.3,0,2.3-1,2.3-2.3v-3.8
								C324.5,114.5,323.4,113.5,322.1,113.5z"/>
							<path class="st45" d="M339.1,113.5h-9.9c-1.3,0-2.3,1-2.3,2.3v3.8c0,1.3,1.1,2.3,2.3,2.3h9.9c1.3,0,2.3-1,2.3-2.3v-3.8
								C341.4,114.5,340.4,113.5,339.1,113.5z"/>
							<path class="st45" d="M356.1,113.5h-9.9c-1.3,0-2.3,1-2.3,2.3v3.8c0,1.3,1,2.3,2.3,2.3h9.9c1.3,0,2.3-1,2.3-2.3v-3.8
								C358.4,114.5,357.4,113.5,356.1,113.5z"/>
							<path class="st45" d="M373,113.5h-9.9c-1.3,0-2.3,1-2.3,2.3v3.8c0,1.3,1.1,2.3,2.3,2.3h9.9c1.3,0,2.3-1,2.3-2.3v-3.8
								C375.4,114.5,374.3,113.5,373,113.5z"/>
							<path class="st45" d="M390,113.5h-9.9c-1.3,0-2.3,1-2.3,2.3v3.8c0,1.3,1.1,2.3,2.3,2.3h9.9c1.3,0,2.3-1,2.3-2.3v-3.8
								C392.4,114.5,391.3,113.5,390,113.5z"/>
							<path class="st45" d="M407,113.5h-9.9c-1.3,0-2.3,1-2.3,2.3v3.8c0,1.3,1,2.3,2.3,2.3h9.9c1.3,0,2.3-1,2.3-2.3v-3.8
								C409.3,114.5,408.3,113.5,407,113.5z"/>
							<path class="st45" d="M424,113.5h-9.9c-1.3,0-2.3,1-2.3,2.3v3.8c0,1.3,1,2.3,2.3,2.3h9.9c1.3,0,2.3-1,2.3-2.3v-3.8
								C426.3,114.5,425.3,113.5,424,113.5z"/>
							<path class="st45" d="M440.9,113.5H431c-1.3,0-2.3,1-2.3,2.3v3.8c0,1.3,1,2.3,2.3,2.3h9.9c1.3,0,2.3-1,2.3-2.3v-3.8
								C443.3,114.5,442.2,113.5,440.9,113.5z"/>
							<path class="st45" d="M457.9,113.5H448c-1.3,0-2.3,1-2.3,2.3v3.8c0,1.3,1,2.3,2.3,2.3h9.9c1.3,0,2.3-1,2.3-2.3v-3.8
								C460.3,114.5,459.2,113.5,457.9,113.5z"/>
							<path class="st45" d="M474.9,113.5H465c-1.3,0-2.3,1-2.3,2.3v3.8c0,1.3,1,2.3,2.3,2.3h9.9c1.3,0,2.3-1,2.3-2.3v-3.8
								C477.2,114.5,476.2,113.5,474.9,113.5z"/>
						</g>
						<g>
							<path class="st45" d="M252.7,124.5h-8.4c-1.4,0-2.6,1.2-2.6,2.6v8.6c0,1.4,1.2,2.6,2.6,2.6h8.4c1.4,0,2.6-1.2,2.6-2.6V127
								C255.3,125.6,254.1,124.5,252.7,124.5z"/>
							<path class="st45" d="M269.1,124.5h-8.4c-1.4,0-2.6,1.2-2.6,2.6v8.6c0,1.4,1.2,2.6,2.6,2.6h8.4c1.4,0,2.6-1.2,2.6-2.6V127
								C271.7,125.6,270.5,124.5,269.1,124.5z"/>
							<path class="st45" d="M285.5,124.5h-8.4c-1.4,0-2.6,1.2-2.6,2.6v8.6c0,1.4,1.2,2.6,2.6,2.6h8.4c1.4,0,2.6-1.2,2.6-2.6V127
								C288.1,125.6,287,124.5,285.5,124.5z"/>
							<path class="st45" d="M302,124.5h-8.4c-1.4,0-2.6,1.2-2.6,2.6v8.6c0,1.4,1.2,2.6,2.6,2.6h8.4c1.4,0,2.6-1.2,2.6-2.6V127
								C304.6,125.6,303.4,124.5,302,124.5z"/>
							<path class="st45" d="M310,138.3h8.4c1.4,0,2.6-1.2,2.6-2.6V127c0-1.4-1.2-2.6-2.6-2.6H310c-1.4,0-2.6,1.2-2.6,2.6v8.6
								C307.4,137.1,308.6,138.3,310,138.3z"/>
							<path class="st45" d="M326.5,138.3h8.4c1.4,0,2.6-1.2,2.6-2.6V127c0-1.4-1.2-2.6-2.6-2.6h-8.4c-1.4,0-2.6,1.2-2.6,2.6v8.6
								C323.9,137.1,325,138.3,326.5,138.3z"/>
							<path class="st45" d="M342.9,138.3h8.4c1.4,0,2.6-1.2,2.6-2.6V127c0-1.4-1.2-2.6-2.6-2.6h-8.4c-1.4,0-2.6,1.2-2.6,2.6v8.6
								C340.3,137.1,341.5,138.3,342.9,138.3z"/>
							<path class="st45" d="M359.3,138.3h8.4c1.4,0,2.6-1.2,2.6-2.6V127c0-1.4-1.2-2.6-2.6-2.6h-8.4c-1.4,0-2.6,1.2-2.6,2.6v8.6
								C356.7,137.1,357.9,138.3,359.3,138.3z"/>
							<path class="st45" d="M384.1,124.5h-8.4c-1.4,0-2.6,1.2-2.6,2.6v8.6c0,1.4,1.2,2.6,2.6,2.6h8.4c1.4,0,2.6-1.2,2.6-2.6V127
								C386.7,125.6,385.6,124.5,384.1,124.5z"/>
							<path class="st45" d="M392.2,138.3h8.4c1.4,0,2.6-1.2,2.6-2.6V127c0-1.4-1.2-2.6-2.6-2.6h-8.4c-1.4,0-2.6,1.2-2.6,2.6v8.6
								C389.6,137.1,390.8,138.3,392.2,138.3z"/>
							<path class="st45" d="M408.6,138.3h8.4c1.4,0,2.6-1.2,2.6-2.6V127c0-1.4-1.2-2.6-2.6-2.6h-8.4c-1.4,0-2.6,1.2-2.6,2.6v8.6
								C406,137.1,407.2,138.3,408.6,138.3z"/>
							<path class="st45" d="M425.1,138.3h8.4c1.4,0,2.6-1.2,2.6-2.6V127c0-1.4-1.2-2.6-2.6-2.6h-8.4c-1.4,0-2.6,1.2-2.6,2.6v8.6
								C422.5,137.1,423.6,138.3,425.1,138.3z"/>
							<path class="st45" d="M449.9,124.5h-8.4c-1.4,0-2.6,1.2-2.6,2.6v8.6c0,1.4,1.2,2.6,2.6,2.6h8.4c1.4,0,2.6-1.2,2.6-2.6V127
								C452.5,125.6,451.3,124.5,449.9,124.5z"/>
							<path class="st45" d="M474.9,124.5h-17.1c-1.4,0-2.6,1.2-2.6,2.6v8.6c0,1.4,1.2,2.6,2.6,2.6h17.1c1.4,0,2.6-1.2,2.6-2.6V127
								C477.5,125.6,476.3,124.5,474.9,124.5z"/>
						</g>
						<g>
							<path class="st45" d="M244.2,203.1h8.8c1.4,0,2.5-1.1,2.5-2.5v-8.9c0-1.4-1.1-2.5-2.5-2.5h-8.8c-1.4,0-2.5,1.1-2.5,2.5v8.9
								C241.7,202,242.8,203.1,244.2,203.1z"/>
							<path class="st45" d="M260.8,203.1h8.8c1.4,0,2.5-1.1,2.5-2.5v-8.9c0-1.4-1.1-2.5-2.5-2.5h-8.8c-1.4,0-2.5,1.1-2.5,2.5v8.9
								C258.3,202,259.4,203.1,260.8,203.1z"/>
							<path class="st45" d="M277.4,203.1h8.8c1.4,0,2.5-1.1,2.5-2.5v-8.9c0-1.4-1.1-2.5-2.5-2.5h-8.8c-1.4,0-2.5,1.1-2.5,2.5v8.9
								C274.9,202,276,203.1,277.4,203.1z"/>
							<path class="st45" d="M293.5,203.1H307c1.4,0,2.5-1.1,2.5-2.5v-8.9c0-1.4-1.1-2.5-2.5-2.5h-13.5c-1.4,0-2.5,1.1-2.5,2.5v8.9
								C291,202,292.1,203.1,293.5,203.1z"/>
							<path class="st45" d="M314.4,203.1h74.3c1.4,0,2.5-1.1,2.5-2.5v-8.9c0-1.4-1.1-2.5-2.5-2.5h-74.3c-1.4,0-2.5,1.1-2.5,2.5v8.9
								C311.9,202,313,203.1,314.4,203.1z"/>
							<path class="st45" d="M396.5,203.1h12.6c1.4,0,2.5-1.1,2.5-2.5v-8.9c0-1.4-1.1-2.5-2.5-2.5h-12.6c-1.4,0-2.5,1.1-2.5,2.5v8.9
								C394,202,395.1,203.1,396.5,203.1z"/>
							<path class="st45" d="M416.6,203.1h8.6c1.4,0,2.5-1.1,2.5-2.5v-8.9c0-1.4-1.1-2.5-2.5-2.5h-8.6c-1.4,0-2.5,1.1-2.5,2.5v8.9
								C414.2,202,415.3,203.1,416.6,203.1z"/>
							<path class="st45" d="M433.1,203.1h8.6c1.4,0,2.5-1.1,2.5-2.5v-8.9c0-1.4-1.1-2.5-2.5-2.5h-8.6c-1.4,0-2.5,1.1-2.5,2.5v8.9
								C430.6,202,431.7,203.1,433.1,203.1z"/>
							<path class="st45" d="M466.1,203.1h8.9c1.4,0,2.5-1.1,2.5-2.5v-8.9c0-1.4-1.1-2.5-2.5-2.5h-8.9c-1.4,0-2.5,1.1-2.5,2.5v8.9
								C463.6,202,464.7,203.1,466.1,203.1z"/>
						</g>
						<g>
							<path class="st45" d="M477.5,151.5v-8.4c0-1.5-1.2-2.7-2.7-2.7h-8.2c-1.5,0-2.7,1.2-2.7,2.7v8.4c0,1.5,1.2,2.7,2.7,2.7h8.2
								C476.3,154.2,477.5,153,477.5,151.5z"/>
							<path class="st45" d="M458.3,140.4h-8.2c-1.5,0-2.7,1.2-2.7,2.7v8.4c0,1.5,1.2,2.7,2.7,2.7h8.2c1.5,0,2.7-1.2,2.7-2.7v-8.4
								C461,141.6,459.8,140.4,458.3,140.4z"/>
							<path class="st45" d="M433.7,154.2h8.2c1.5,0,2.7-1.2,2.7-2.7v-8.4c0-1.5-1.2-2.7-2.7-2.7h-8.2c-1.5,0-2.7,1.2-2.7,2.7v8.4
								C431.1,153,432.3,154.2,433.7,154.2z"/>
							<path class="st45" d="M417.3,154.2h8.2c1.5,0,2.7-1.2,2.7-2.7v-8.4c0-1.5-1.2-2.7-2.7-2.7h-8.2c-1.5,0-2.7,1.2-2.7,2.7v8.4
								C414.6,153,415.8,154.2,417.3,154.2z"/>
							<path class="st45" d="M400.9,154.2h8.2c1.5,0,2.7-1.2,2.7-2.7v-8.4c0-1.5-1.2-2.7-2.7-2.7h-8.2c-1.5,0-2.7,1.2-2.7,2.7v8.4
								C398.2,153,399.4,154.2,400.9,154.2z"/>
							<path class="st45" d="M392.6,140.4h-8.2c-1.5,0-2.7,1.2-2.7,2.7v8.4c0,1.5,1.2,2.7,2.7,2.7h8.2c1.5,0,2.7-1.2,2.7-2.7v-8.4
								C395.3,141.6,394.1,140.4,392.6,140.4z"/>
							<path class="st45" d="M368,154.2h8.2c1.5,0,2.7-1.2,2.7-2.7v-8.4c0-1.5-1.2-2.7-2.7-2.7H368c-1.5,0-2.7,1.2-2.7,2.7v8.4
								C365.3,153,366.5,154.2,368,154.2z"/>
							<path class="st45" d="M351.6,154.2h8.2c1.5,0,2.7-1.2,2.7-2.7v-8.4c0-1.5-1.2-2.7-2.7-2.7h-8.2c-1.5,0-2.7,1.2-2.7,2.7v8.4
								C348.9,153,350.1,154.2,351.6,154.2z"/>
							<path class="st45" d="M335.2,154.2h8.2c1.5,0,2.7-1.2,2.7-2.7v-8.4c0-1.5-1.2-2.7-2.7-2.7h-8.2c-1.5,0-2.7,1.2-2.7,2.7v8.4
								C332.5,153,333.7,154.2,335.2,154.2z"/>
							<path class="st45" d="M318.7,154.2h8.2c1.5,0,2.7-1.2,2.7-2.7v-8.4c0-1.5-1.2-2.7-2.7-2.7h-8.2c-1.5,0-2.7,1.2-2.7,2.7v8.4
								C316,153,317.2,154.2,318.7,154.2z"/>
							<path class="st45" d="M302.3,154.2h8.2c1.5,0,2.7-1.2,2.7-2.7v-8.4c0-1.5-1.2-2.7-2.7-2.7h-8.2c-1.5,0-2.7,1.2-2.7,2.7v8.4
								C299.6,153,300.8,154.2,302.3,154.2z"/>
							<path class="st45" d="M294,140.4h-8.2c-1.5,0-2.7,1.2-2.7,2.7v8.4c0,1.5,1.2,2.7,2.7,2.7h8.2c1.5,0,2.7-1.2,2.7-2.7v-8.4
								C296.7,141.6,295.5,140.4,294,140.4z"/>
							<path class="st45" d="M277.6,140.4h-8.2c-1.5,0-2.7,1.2-2.7,2.7v8.4c0,1.5,1.2,2.7,2.7,2.7h8.2c1.5,0,2.7-1.2,2.7-2.7v-8.4
								C280.3,141.6,279.1,140.4,277.6,140.4z"/>
							<path class="st45" d="M261.3,140.4h-16.9c-1.5,0-2.7,1.2-2.7,2.7v8.4c0,1.5,1.2,2.7,2.7,2.7h16.9c1.5,0,2.7-1.2,2.7-2.7v-8.4
								C264,141.6,262.8,140.4,261.3,140.4z"/>
						</g>
						<g>
							<path class="st45" d="M451.5,158.8v9c0,1.3,1.1,2.4,2.4,2.4h21.2c1.3,0,2.4-1.1,2.4-2.4v-9c0-1.3-1.1-2.4-2.4-2.4h-21.2
								C452.6,156.4,451.5,157.5,451.5,158.8z"/>
							<path class="st45" d="M437.5,170.2h8.7c1.3,0,2.4-1.1,2.4-2.4v-9c0-1.3-1.1-2.4-2.4-2.4h-8.7c-1.3,0-2.4,1.1-2.4,2.4v9
								C435.1,169.1,436.2,170.2,437.5,170.2z"/>
							<path class="st45" d="M429.8,156.4h-8.7c-1.3,0-2.4,1.1-2.4,2.4v9c0,1.3,1.1,2.4,2.4,2.4h8.7c1.3,0,2.4-1.1,2.4-2.4v-9
								C432.2,157.5,431.1,156.4,429.8,156.4z"/>
							<path class="st45" d="M413.4,156.4h-8.7c-1.3,0-2.4,1.1-2.4,2.4v9c0,1.3,1.1,2.4,2.4,2.4h8.7c1.3,0,2.4-1.1,2.4-2.4v-9
								C415.8,157.5,414.7,156.4,413.4,156.4z"/>
							<path class="st45" d="M396.9,156.4h-8.7c-1.3,0-2.4,1.1-2.4,2.4v9c0,1.3,1.1,2.4,2.4,2.4h8.7c1.3,0,2.4-1.1,2.4-2.4v-9
								C399.3,157.5,398.3,156.4,396.9,156.4z"/>
							<path class="st45" d="M380.5,156.4h-8.7c-1.3,0-2.4,1.1-2.4,2.4v9c0,1.3,1.1,2.4,2.4,2.4h8.7c1.3,0,2.4-1.1,2.4-2.4v-9
								C382.9,157.5,381.8,156.4,380.5,156.4z"/>
							<path class="st45" d="M364.1,156.4h-8.7c-1.3,0-2.4,1.1-2.4,2.4v9c0,1.3,1.1,2.4,2.4,2.4h8.7c1.3,0,2.4-1.1,2.4-2.4v-9
								C366.5,157.5,365.4,156.4,364.1,156.4z"/>
							<path class="st45" d="M347.6,156.4h-8.7c-1.3,0-2.4,1.1-2.4,2.4v9c0,1.3,1.1,2.4,2.4,2.4h8.7c1.3,0,2.4-1.1,2.4-2.4v-9
								C350,157.5,349,156.4,347.6,156.4z"/>
							<path class="st45" d="M331.2,156.4h-8.7c-1.3,0-2.4,1.1-2.4,2.4v9c0,1.3,1.1,2.4,2.4,2.4h8.7c1.3,0,2.4-1.1,2.4-2.4v-9
								C333.6,157.5,332.5,156.4,331.2,156.4z"/>
							<path class="st45" d="M314.8,156.4H306c-1.3,0-2.4,1.1-2.4,2.4v9c0,1.3,1.1,2.4,2.4,2.4h8.7c1.3,0,2.4-1.1,2.4-2.4v-9
								C317.2,157.5,316.1,156.4,314.8,156.4z"/>
							<path class="st45" d="M298.3,156.4h-8.7c-1.3,0-2.4,1.1-2.4,2.4v9c0,1.3,1.1,2.4,2.4,2.4h8.7c1.3,0,2.4-1.1,2.4-2.4v-9
								C300.7,157.5,299.7,156.4,298.3,156.4z"/>
							<path class="st45" d="M281.9,156.4h-8.7c-1.3,0-2.4,1.1-2.4,2.4v9c0,1.3,1.1,2.4,2.4,2.4h8.7c1.3,0,2.4-1.1,2.4-2.4v-9
								C284.3,157.5,283.2,156.4,281.9,156.4z"/>
							<path class="st45" d="M244.2,170.2h21.4c1.3,0,2.4-1.1,2.4-2.4v-9c0-1.3-1.1-2.4-2.4-2.4h-21.4c-1.3,0-2.4,1.1-2.4,2.4v9
								C241.8,169.1,242.9,170.2,244.2,170.2z"/>
						</g>
						<g>
							<path class="st45" d="M446.8,186.2h27.4c1.8,0,3.3-1.5,3.3-3.3v-7.2c0-1.8-1.5-3.3-3.3-3.3h-27.4c-1.8,0-3.3,1.5-3.3,3.3v7.2
								C443.5,184.7,445,186.2,446.8,186.2z"/>
							<path class="st45" d="M437.3,172.4h-6.9c-1.8,0-3.3,1.5-3.3,3.3v7.2c0,1.8,1.5,3.3,3.3,3.3h6.9c1.8,0,3.3-1.5,3.3-3.3v-7.2
								C440.6,173.9,439.1,172.4,437.3,172.4z"/>
							<path class="st45" d="M420.9,172.4h-6.9c-1.8,0-3.3,1.5-3.3,3.3v7.2c0,1.8,1.5,3.3,3.3,3.3h6.9c1.8,0,3.3-1.5,3.3-3.3v-7.2
								C424.2,173.9,422.7,172.4,420.9,172.4z"/>
							<path class="st45" d="M404.4,172.4h-6.9c-1.8,0-3.3,1.5-3.3,3.3v7.2c0,1.8,1.5,3.3,3.3,3.3h6.9c1.8,0,3.3-1.5,3.3-3.3v-7.2
								C407.7,173.9,406.3,172.4,404.4,172.4z"/>
							<path class="st45" d="M381.1,186.2h6.9c1.8,0,3.3-1.5,3.3-3.3v-7.2c0-1.8-1.5-3.3-3.3-3.3h-6.9c-1.8,0-3.3,1.5-3.3,3.3v7.2
								C377.7,184.7,379.2,186.2,381.1,186.2z"/>
							<path class="st45" d="M371.6,172.4h-6.9c-1.8,0-3.3,1.5-3.3,3.3v7.2c0,1.8,1.5,3.3,3.3,3.3h6.9c1.8,0,3.3-1.5,3.3-3.3v-7.2
								C374.9,173.9,373.4,172.4,371.6,172.4z"/>
							<path class="st45" d="M355.1,172.4h-6.9c-1.8,0-3.3,1.5-3.3,3.3v7.2c0,1.8,1.5,3.3,3.3,3.3h6.9c1.8,0,3.3-1.5,3.3-3.3v-7.2
								C358.4,173.9,357,172.4,355.1,172.4z"/>
							<path class="st45" d="M338.7,172.4h-6.9c-1.8,0-3.3,1.5-3.3,3.3v7.2c0,1.8,1.5,3.3,3.3,3.3h6.9c1.8,0,3.3-1.5,3.3-3.3v-7.2
								C342,173.9,340.5,172.4,338.7,172.4z"/>
							<path class="st45" d="M322.3,172.4h-6.9c-1.8,0-3.3,1.5-3.3,3.3v7.2c0,1.8,1.5,3.3,3.3,3.3h6.9c1.8,0,3.3-1.5,3.3-3.3v-7.2
								C325.6,173.9,324.1,172.4,322.3,172.4z"/>
							<path class="st45" d="M305.8,172.4h-6.9c-1.8,0-3.3,1.5-3.3,3.3v7.2c0,1.8,1.5,3.3,3.3,3.3h6.9c1.8,0,3.3-1.5,3.3-3.3v-7.2
								C309.1,173.9,307.7,172.4,305.8,172.4z"/>
							<path class="st45" d="M289.4,172.4h-6.9c-1.8,0-3.3,1.5-3.3,3.3v7.2c0,1.8,1.5,3.3,3.3,3.3h6.9c1.8,0,3.3-1.5,3.3-3.3v-7.2
								C292.7,173.9,291.2,172.4,289.4,172.4z"/>
							<path class="st45" d="M273.1,172.4h-27.8c-1.8,0-3.3,1.5-3.3,3.3v7.2c0,1.8,1.5,3.3,3.3,3.3h27.8c1.8,0,3.3-1.5,3.3-3.3v-7.2
								C276.4,173.9,274.9,172.4,273.1,172.4z"/>
						</g>
						<g>
							<path class="st45" d="M447.1,197.3v3.4c0,1.4,1.1,2.5,2.5,2.5h8.9c1.4,0,2.5-1.1,2.5-2.5v-3.4H447.1z"/>
							<path class="st45" d="M460.9,194.8v-3c0-1.4-1.1-2.5-2.5-2.5h-8.9c-1.4,0-2.5,1.1-2.5,2.5v3H460.9z"/>
						</g>
					</g>
					<g>
						<path class="st10" d="M403.4,279.8h-87.5c-3.3,0-6.1-2.7-6.1-6.1v-49.5c0-3.3,2.7-6.1,6.1-6.1h87.5c3.3,0,6.1,2.7,6.1,6.1
							v49.5C409.4,277.1,406.7,279.8,403.4,279.8z"/>
						<path class="st26" d="M407.2,219.6L312,278.4c1,0.9,2.4,1.4,3.8,1.4h87.5c3.3,0,6.1-2.7,6.1-6.1v-49.5
							C409.4,222.3,408.5,220.7,407.2,219.6z"/>
					</g>
					<g>
						<path class="st29" d="M537.4,25.8c-2.1,0-8.7,0-8.7,0H189.3c0,0-6.6,0-8.7,0c-2.1,0-2.6,2.2-1.5,4.4h361.1
							C541.3,27.9,539.4,25.8,537.4,25.8z"/>
						<path class="st45" d="M212.5,91.4l-33.5-61.2c-0.7-1.2,0.2-2.7,1.6-2.7h357.8c1.4,0,2.3,1.5,1.6,2.7l-33.5,61.2
							c-0.3,0.6-0.9,1-1.6,1H214.1C213.5,92.4,212.8,92,212.5,91.4z"/>
						<polygon class="st40" points="527.2,36 192,36 218.1,83.8 501.1,83.8 						"/>
						<path class="st3" d="M538.5,27.4H180.7c-1.4,0-2.3,1.5-1.6,2.7l33.5,61.2c0.3,0.6,0.9,1,1.6,1h290.9c0.7,0,1.3-0.4,1.6-1
							l33.5-61.2C540.8,28.9,539.9,27.4,538.5,27.4z M505.1,90.7h-291c-0.1,0-0.1,0-0.1-0.1v0l-33.5-61.3l0.2-0.1h357.8l0.1,0.2
							L505.1,90.7z"/>
					</g>
					<rect x="236.8" y="92.4" class="st29" width="245.7" height="10.1"/>
					<path class="st45" d="M236.8,92.4V98c0,1.4,1.1,2.5,2.5,2.5h240.7c1.4,0,2.5-1.1,2.5-2.5v-5.6H236.8z"/>
					<g>
						<path class="st26" d="M498.6,201.3h-7.1c-1.9,0-3.5-1.6-3.5-3.5v-81.5c0-1.9,1.6-3.5,3.5-3.5h7.1c2,0,3.5,1.6,3.5,3.5v81.5
							C502.1,199.7,500.6,201.3,498.6,201.3z"/>
						<path class="st26" d="M227.7,201.3h-7.1c-1.9,0-3.5-1.6-3.5-3.5v-81.5c0-1.9,1.6-3.5,3.5-3.5h7.1c1.9,0,3.5,1.6,3.5,3.5v81.5
							C231.2,199.7,229.6,201.3,227.7,201.3z"/>
					</g>
				</g>
			</g>
			<g>
				<path class="st50" d="M753.1,365.9c0,0,0-0.1,0-0.1c0-0.5,0-0.9-0.1-1.3l0,0l0,0c-0.1-0.5-0.2-1.1-0.4-1.6l-0.2-0.4l0,0
					l-0.3-0.8l-3.2-8.5h-0.2v-0.7c0-0.3-0.3-0.6-0.6-0.6s-0.6,0.3-0.6,0.6v0.7h-0.2l-3.2,8.5l-0.3,0.8l0,0l-0.2,0.4
					c-0.2,0.5-0.3,1.1-0.4,1.6l0,0l0,0c-0.1,0.4-0.1,0.9-0.1,1.3c0,0,0,0.1,0,0.1c0,0.5,0,0.9,0.1,1.4c0,0,0,0,0,0l0.2,1.2l0.1,0.3
					c0.3,1.6,0.5,3.2,0.5,4.8l1.2,77.5c0,0.5,0.4,1,0.9,1.2v1.7c0,1.1,0.9,2,2,2c1.1,0,2-0.9,2-2v-1.7c0.5-0.2,0.9-0.6,0.9-1.2
					l1.2-77.5c0-1.6,0.2-3.2,0.5-4.8l0.1-0.3l0.2-1.2c0,0,0,0,0,0C753,366.8,753.1,366.3,753.1,365.9z"/>
				<g>
					<g>
						<path class="st44" d="M722.3,452.6H519.6c-4.4,0-8-3.6-8-8V318.7c0-4.4,3.6-8,8-8h202.7c4.4,0,8,3.6,8,8v125.8
							C730.3,449,726.7,452.6,722.3,452.6z"/>
						<g>
							<path class="st56" d="M722.3,310.7H519.6c-4.4,0-8,3.6-8,8v0h218.7v0C730.3,314.3,726.7,310.7,722.3,310.7z"/>
							<path class="st56" d="M511.6,444.6c0,4.4,3.6,8,8,8h202.7c4.4,0,8-3.6,8-8v0L511.6,444.6L511.6,444.6z"/>
						</g>
						<g>
							<g>
								<circle class="st56" cx="530.2" cy="381.7" r="12.3"/>
								<circle class="st44" cx="530.2" cy="381.7" r="10.8"/>
								<circle class="st46" cx="530.2" cy="372.5" r="0.8"/>
								<path class="st21" d="M530.2,370.8c-6,0-10.8,4.8-10.8,10.8c0,6,4.9,10.8,10.8,10.8c6,0,10.8-4.8,10.8-10.8
									C541,375.7,536.2,370.8,530.2,370.8z M530.2,392c-5.7,0-10.3-4.6-10.3-10.3c0-5.7,4.6-10.3,10.3-10.3
									c5.7,0,10.3,4.6,10.3,10.3C540.5,387.4,535.9,392,530.2,392z"/>
							</g>
							<g>
								<g>
									<path class="st21" d="M534.1,436.7v-34.1c0-1.2-1-2.1-2.1-2.1h-3.6c-1.2,0-2.1,1-2.1,2.1v34.1c0,1.2,1,2.1,2.1,2.1h3.6
										C533.2,438.8,534.1,437.9,534.1,436.7z"/>
									<path class="st21" d="M526.5,436.7v-34.1c0-1.1,0.9-1.9,1.9-1.9h3.6c1.1,0,1.9,0.9,1.9,1.9v34.1c0,1.1-0.9,1.9-1.9,1.9
										h-3.6C527.3,438.6,526.5,437.8,526.5,436.7z"/>
									<g>
										<path class="st56" d="M532,401.1h-3.6c-0.9,0-1.6,0.7-1.6,1.6v9.6h6.8v-9.6C533.6,401.8,532.9,401.1,532,401.1z"/>
										<path class="st56" d="M528.4,438.3h3.6c0.9,0,1.6-0.7,1.6-1.6v-9.6h-6.8v9.6C526.8,437.6,527.5,438.3,528.4,438.3z"/>
									</g>
									<rect x="526.8" y="412.9" class="st56" width="6.8" height="13.6"/>
								</g>
								<g>
									<path class="st21" d="M534.1,360.7v-34.1c0-1.2-1-2.1-2.1-2.1h-3.6c-1.2,0-2.1,1-2.1,2.1v34.1c0,1.2,1,2.1,2.1,2.1h3.6
										C533.2,362.9,534.1,361.9,534.1,360.7z"/>
									<path class="st21" d="M526.5,360.7v-34.1c0-1.1,0.9-1.9,1.9-1.9h3.6c1.1,0,1.9,0.9,1.9,1.9v34.1c0,1.1-0.9,1.9-1.9,1.9
										h-3.6C527.3,362.6,526.5,361.8,526.5,360.7z"/>
									<g>
										<path class="st56" d="M532,325.1h-3.6c-0.9,0-1.6,0.7-1.6,1.6v9.6h6.8v-9.6C533.6,325.8,532.9,325.1,532,325.1z"/>
										<path class="st56" d="M528.4,362.3h3.6c0.9,0,1.6-0.7,1.6-1.6v-9.6h-6.8v9.6C526.8,361.6,527.5,362.3,528.4,362.3z"/>
									</g>
									<rect x="526.8" y="336.9" class="st56" width="6.8" height="13.6"/>
								</g>
							</g>
						</g>
						<path class="st21" d="M716.1,436.7h-161c-1.4,0-2.5-1.1-2.5-2.5V329.1c0-1.4,1.1-2.5,2.5-2.5h161c1.4,0,2.5,1.1,2.5,2.5v105.1
							C718.6,435.6,717.5,436.7,716.1,436.7z"/>
						<g>
							<g>
								<circle class="st46" cx="558.4" cy="332.5" r="0.6"/>
								<path class="st46" d="M559.1,430.9c0,0.4-0.3,0.6-0.6,0.6c-0.4,0-0.6-0.3-0.6-0.6c0-0.4,0.3-0.6,0.6-0.6
									C558.8,430.2,559.1,430.5,559.1,430.9z"/>
							</g>
							<g>
								<circle class="st46" cx="712.7" cy="332.5" r="0.6"/>
								<path class="st46" d="M713.3,430.9c0,0.4-0.3,0.6-0.6,0.6c-0.4,0-0.6-0.3-0.6-0.6c0-0.4,0.3-0.6,0.6-0.6
									C713,430.2,713.3,430.5,713.3,430.9z"/>
							</g>
						</g>
					</g>
					<g>
						<path class="st44" d="M743.3,451.2L743.3,451.2c-1.1,0-2-0.9-2-2v-2.5h4.1v2.5C745.3,450.3,744.4,451.2,743.3,451.2z"/>
						<path class="st44" d="M743.3,349.5L743.3,349.5c-0.3,0-0.6-0.3-0.6-0.6v-1.4c0-0.3,0.3-0.6,0.6-0.6l0,0c0.3,0,0.6,0.3,0.6,0.6
							v1.4C743.9,349.3,743.6,349.5,743.3,349.5z"/>
						<path class="st56" d="M744.1,348.3h-1.6l-3.7,9.7c-0.5,1.4-0.7,3-0.4,4.5l0.3,1.5c0.3,1.6,0.5,3.2,0.5,4.8l1.2,77.5
							c0,0.7,0.6,1.2,1.3,1.2h1.6h1.6c0.7,0,1.2-0.6,1.3-1.2l1.2-77.5c0-1.6,0.2-3.3,0.5-4.8l0.3-1.5c0.3-1.5,0.1-3.1-0.4-4.5
							L744.1,348.3z"/>
						<path class="st44" d="M738.4,362.5l0.3,1.5c0.3,1.6,0.5,3.2,0.5,4.8l0.7,46h6.8l0.7-46c0-1.6,0.2-3.3,0.5-4.8l0.3-1.5
							c0.2-1,0.2-1.9,0-2.9h-9.9C738.2,360.6,738.2,361.5,738.4,362.5z"/>
						<polygon class="st3" points="738.9,357.6 747.6,357.6 747.3,356.8 739.2,356.8 						"/>
						<path class="st3" d="M743.3,398.5L743.3,398.5c-1,0-1.8-0.8-1.8-1.8v-23.3c0-1,0.8-1.8,1.8-1.8l0,0c1,0,1.8,0.8,1.8,1.8v23.3
							C745,397.7,744.2,398.5,743.3,398.5z"/>
						<path class="st56" d="M743.3,390.5L743.3,390.5c-0.6,0-1.2-0.5-1.2-1.2v-15.6c0-0.6,0.5-1.2,1.2-1.2l0,0
							c0.7,0,1.2,0.5,1.2,1.2v15.6C744.5,389.9,743.9,390.5,743.3,390.5z"/>
					</g>
				</g>
			</g>
			<g>
				<path class="st50" d="M225.7,315.1h-87.5c-2,0-3.5,1.6-3.5,3.5V443c0,2,1.6,3.5,3.5,3.5h87.5c2,0,3.5-1.6,3.5-3.5V318.7
					C229.3,316.7,227.7,315.1,225.7,315.1z"/>
				<g>
					<path class="st3" d="M203.1,453.6h-87.5c-2,0-3.5-1.6-3.5-3.5V325.8c0-2,1.6-3.5,3.5-3.5h87.5c2,0,3.5,1.6,3.5,3.5v124.3
						C206.7,452,205.1,453.6,203.1,453.6z"/>
					<g>
						<rect x="114.9" y="328.3" class="st44" width="88.9" height="114.6"/>
					</g>
					<path class="st11" d="M161.1,452.1h-3.4c-2,0-3.6-1.6-3.6-3.6l0,0c0-2,1.6-3.6,3.6-3.6h3.4c2,0,3.6,1.6,3.6,3.6l0,0
						C164.7,450.4,163.1,452.1,161.1,452.1z"/>
					<g>
						<path class="st45" d="M169.4,326.2h-7.8c-0.3,0-0.5-0.2-0.5-0.5l0,0c0-0.3,0.2-0.5,0.5-0.5h7.8c0.3,0,0.5,0.2,0.5,0.5l0,0
							C169.9,326,169.6,326.2,169.4,326.2z"/>
						<path class="st45" d="M160.2,325.3L160.2,325.3c0.2,0,0.4,0.2,0.4,0.4v0c0,0.2-0.2,0.4-0.4,0.4l0,0c-0.2,0-0.4-0.2-0.4-0.4v0
							C159.8,325.5,160,325.3,160.2,325.3z"/>
						<path class="st45" d="M149.7,324.9L149.7,324.9c0.5,0,0.8,0.4,0.8,0.8v0c0,0.5-0.4,0.8-0.8,0.8l0,0c-0.5,0-0.8-0.4-0.8-0.8v0
							C148.9,325.2,149.2,324.9,149.7,324.9z"/>
					</g>
					<polygon class="st21" points="114.9,442.9 203.8,328.3 203.8,442.9 					"/>
				</g>
			</g>
			<g>
				<path class="st50" d="M98.1,350.7l-14.6-9.7c-0.4-0.4-0.9-0.8-1.5-1l-16.6-5.9c-1.7-0.6-3.6,0.2-4.4,1.7
					c-0.3-1.7-1.8-2.9-3.6-2.9H39.7c-2,0-3.6,1.6-3.6,3.6V406c-0.1,0.6-0.1,1.2,0,1.8v2.3c0,2,1.6,3.6,3.6,3.6h7.2l6.7,4.4
					c1.7,1.1,3.9,0.6,5-1l40.4-61.3C100.2,354.1,99.8,351.8,98.1,350.7z"/>
				<g>
					<g>
						<path class="st3" d="M52.2,408.5H34.6c-2,0-3.6-1.6-3.6-3.6v-73.4c0-2,1.6-3.6,3.6-3.6h17.6c2,0,3.6,1.6,3.6,3.6v73.4
							C55.9,406.9,54.2,408.5,52.2,408.5z"/>
						<path class="st36" d="M51.2,341.9H35.7c-1.5,0-2.7-1.2-2.7-2.7V333c0-1.5,1.2-2.7,2.7-2.7h15.5c1.5,0,2.7,1.2,2.7,2.7v6.1
							C53.9,340.6,52.7,341.9,51.2,341.9z"/>
						<path class="st32" d="M51.2,355.6H35.7c-1.5,0-2.7-1.2-2.7-2.7v-6.1c0-1.5,1.2-2.7,2.7-2.7h15.5c1.5,0,2.7,1.2,2.7,2.7v6.1
							C53.9,354.4,52.7,355.6,51.2,355.6z"/>
						<path class="st33" d="M51.2,369.3H35.7c-1.5,0-2.7-1.2-2.7-2.7v-6.1c0-1.5,1.2-2.7,2.7-2.7h15.5c1.5,0,2.7,1.2,2.7,2.7v6.1
							C53.9,368.1,52.7,369.3,51.2,369.3z"/>
						<path class="st37" d="M51.2,383.1H35.7c-1.5,0-2.7-1.2-2.7-2.7v-6.1c0-1.5,1.2-2.7,2.7-2.7h15.5c1.5,0,2.7,1.2,2.7,2.7v6.1
							C53.9,381.9,52.7,383.1,51.2,383.1z"/>
						<path class="st34" d="M51.2,396.8H35.7c-1.5,0-2.7-1.2-2.7-2.7V388c0-1.5,1.2-2.7,2.7-2.7h15.5c1.5,0,2.7,1.2,2.7,2.7v6.1
							C53.9,395.6,52.7,396.8,51.2,396.8z"/>
						<circle class="st6" cx="43.6" cy="402.8" r="2.9"/>
						<circle class="st31" cx="43.4" cy="402.8" r="2.7"/>
					</g>
					<g>
						<path class="st3" d="M49.9,411l-16.6-5.9c-1.9-0.7-2.9-2.7-2.2-4.6l24.5-69.2c0.7-1.9,2.7-2.9,4.6-2.2l16.6,5.9
							c1.9,0.7,2.9,2.7,2.2,4.6l-24.5,69.2C53.8,410.7,51.8,411.7,49.9,411z"/>
						<path class="st52" d="M71.1,347.8l-14.6-5.2c-1.4-0.5-2.2-2.1-1.7-3.5l2-5.7c0.5-1.4,2.1-2.2,3.5-1.7l14.6,5.2
							c1.4,0.5,2.2,2.1,1.7,3.5l-2,5.8C74.1,347.5,72.5,348.3,71.1,347.8z"/>
						<path class="st5" d="M66.6,360.7l-14.6-5.2c-1.4-0.5-2.2-2.1-1.7-3.5l2-5.8c0.5-1.4,2.1-2.2,3.5-1.7l14.6,5.2
							c1.4,0.5,2.2,2.1,1.7,3.5l-2,5.8C69.5,360.5,68,361.2,66.6,360.7z"/>
						<path class="st12" d="M62,373.7l-14.6-5.2c-1.4-0.5-2.2-2.1-1.7-3.5l2-5.7c0.5-1.4,2.1-2.2,3.5-1.7l14.6,5.2
							c1.4,0.5,2.2,2.1,1.7,3.5l-2,5.8C64.9,373.4,63.4,374.2,62,373.7z"/>
						<path class="st20" d="M57.4,386.6l-14.6-5.2c-1.4-0.5-2.2-2.1-1.7-3.5l2-5.8c0.5-1.4,2.1-2.2,3.5-1.7l14.6,5.2
							c1.4,0.5,2.2,2.1,1.7,3.5l-2,5.8C60.3,386.4,58.8,387.1,57.4,386.6z"/>
						<path class="st23" d="M52.8,399.6l-14.6-5.2c-1.4-0.5-2.2-2.1-1.7-3.5l2-5.7c0.5-1.4,2.1-2.2,3.5-1.7l14.6,5.2
							c1.4,0.5,2.2,2.1,1.7,3.5l-2,5.8C55.8,399.3,54.2,400.1,52.8,399.6z"/>
						<circle class="st6" cx="43.7" cy="402.8" r="2.9"/>
						<circle class="st31" cx="43.5" cy="402.7" r="2.7"/>
					</g>
					<g>
						<path class="st3" d="M48.5,413l-14.7-9.7c-1.7-1.1-2.1-3.4-1-5l40.4-61.3c1.1-1.7,3.4-2.1,5-1l14.7,9.7c1.7,1.1,2.1,3.4,1,5
							l-40.4,61.3C52.4,413.6,50.2,414.1,48.5,413z"/>
						<path class="st4" d="M84.3,356.7l-13-8.5c-1.3-0.8-1.6-2.5-0.8-3.8l3.4-5.1c0.8-1.3,2.5-1.6,3.8-0.8l13,8.5
							c1.2,0.8,1.6,2.5,0.8,3.8l-3.4,5.1C87.3,357.2,85.6,357.5,84.3,356.7z"/>
						<path class="st22" d="M76.8,368.2l-13-8.5c-1.3-0.8-1.6-2.5-0.8-3.8l3.4-5.1c0.8-1.3,2.5-1.6,3.8-0.8l13,8.5
							c1.3,0.8,1.6,2.5,0.8,3.8l-3.4,5.1C79.7,368.7,78,369,76.8,368.2z"/>
						<path class="st41" d="M69.2,379.7l-13-8.5c-1.3-0.8-1.6-2.5-0.8-3.8l3.4-5.1c0.8-1.3,2.5-1.6,3.8-0.8l13,8.5
							c1.3,0.8,1.6,2.5,0.8,3.8l-3.4,5.1C72.2,380.1,70.5,380.5,69.2,379.7z"/>
						<path class="st15" d="M61.7,391.1l-13-8.5c-1.3-0.8-1.6-2.5-0.8-3.8l3.4-5.1c0.8-1.3,2.5-1.6,3.8-0.8l13,8.5
							c1.3,0.8,1.6,2.5,0.8,3.8l-3.4,5.1C64.6,391.6,62.9,392,61.7,391.1z"/>
						<path class="st0" d="M54.1,402.6l-13-8.5c-1.3-0.8-1.6-2.5-0.8-3.8l3.4-5.1c0.8-1.3,2.5-1.6,3.8-0.8l13,8.5
							c1.3,0.8,1.6,2.5,0.8,3.8l-3.4,5.1C57,403.1,55.3,403.4,54.1,402.6z"/>
						<circle class="st6" cx="44.5" cy="403.5" r="2.9"/>
						<circle class="st31" cx="44.3" cy="403.4" r="2.7"/>
					</g>
				</g>
			</g>
			<g>
				<g>
					<path class="st50" d="M633.8,261.2c3.5,0,6.4-2.8,6.4-6.4v-84.5c0-3.5-2.8-6.4-6.4-6.4H531.2c-3.5,0-6.4,2.8-6.4,6.4v84.5
						c0,3.5,2.8,6.4,6.4,6.4H633.8z"/>
					<path class="st28" d="M628.7,256.1H526c-3.5,0-6.4-2.8-6.4-6.4v-84.5c0-3.5,2.8-6.4,6.4-6.4h102.6c3.5,0,6.4,2.8,6.4,6.4v84.5
						C635,253.3,632.2,256.1,628.7,256.1z"/>
					<path class="st2" d="M583.9,244.4h-6.2c-9.1,0-16.5-7.4-16.5-16.5v-34c0-9.1,7.4-16.5,16.5-16.5h6.2c9.1,0,16.5,7.4,16.5,16.5
						v34C600.3,237,593,244.4,583.9,244.4z"/>
				</g>
				<g>
					<path class="st44" d="M580.4,241h-6.2c-9.1,0-16.5-7.4-16.5-16.5v-34c0-9.1,7.4-16.5,16.5-16.5h6.2c9.1,0,16.5,7.4,16.5,16.5
						v34C596.9,233.6,589.5,241,580.4,241z"/>
					<g>
						<g>
							<path class="st56" d="M580.2,230h-5.8c-8.5,0-15.4-6.9-15.4-15.4v-23.3c0-8.5,6.9-15.4,15.4-15.4h5.8
								c8.5,0,15.4,6.9,15.4,15.4v23.3C595.6,223.2,588.7,230,580.2,230z"/>
							<path class="st21" d="M577.3,183.4"/>
						</g>
					</g>
					<path class="st17" d="M577.3,176c-0.1,0-0.3,0-0.4,0v7.4c-1.6,0.2-2.9,1.8-2.9,3.7v8.6c0,1.9,1.3,3.5,2.9,3.7v10.3
						c0,0.3,0.2,0.5,0.4,0.5s0.4-0.2,0.4-0.5v-10.3c1.6-0.2,2.9-1.8,2.9-3.7V187c0-1.9-1.3-3.4-2.9-3.7V176
						C577.6,176,577.5,176,577.3,176z"/>
					<path class="st3" d="M577.8,198.6h-0.8c-1.2,0-2.2-1-2.2-2.2v-10.1c0-1.2,1-2.2,2.2-2.2h0.8c1.2,0,2.2,1,2.2,2.2v10.1
						C580,197.6,579,198.6,577.8,198.6z"/>
				</g>
			</g>
			<g>
				<path class="st50" d="M190.7,250.2V147.1c0-1.2-1-2.1-2.1-2.1h-49.2c-8.2-0.3-14.4-0.2-19.2,0H90.8c-4.7-0.2-10.9-0.3-19.2,0
					H22.5c-1.2,0-2.1,1-2.1,2.1v103.1c0,1.2,1,2.1,2.1,2.1h166.1C189.8,252.3,190.7,251.4,190.7,250.2z"/>
				<g>
					<g>
						<path class="st53" d="M184.1,247.8H18c-1.2,0-2.1-1-2.1-2.1V142.6c0-1.2,1-2.1,2.1-2.1h166.1c1.2,0,2.1,1,2.1,2.1v103.1
							C186.2,246.9,185.3,247.8,184.1,247.8z"/>
						<g>
							<path class="st35" d="M101,144v99.4h81.6v-86.5V144C99.3,135.6,101,144,101,144z"/>
							<path class="st35" d="M101,144v99.4H19.4v-86.5V144C102.8,135.6,101,144,101,144z"/>
							<path class="st13" d="M105.9,243.4V141.6c-5.2,1.1-4.9,2.5-4.9,2.5v99.4H105.9z"/>
							<path class="st49" d="M96.2,243.4V141.6c5.2,1.1,4.9,2.5,4.9,2.5v99.4H96.2z"/>
							<path class="st49" d="M179.8,143.7V241H101H22.3v-97.2c-1,0.1-1.9,0.2-2.9,0.3v12.9v86.5H101h81.6v-86.5V144
								C181.7,143.9,180.7,143.8,179.8,143.7z"/>
						</g>
					</g>
					<g>
						<path class="st16" d="M143.2,156.6c5,0,9.9,0,14.9-0.1l7.4-0.1c2.5-0.1,5-0.1,7.5-0.2c-2.5-0.1-5-0.1-7.5-0.2l-7.4-0.1
							c-5-0.1-9.9-0.1-14.9-0.1c-5,0-9.9,0-14.9,0.1c-5,0.1-9.9,0.1-14.9,0.3c5,0.2,9.9,0.2,14.9,0.3
							C133.2,156.6,138.2,156.6,143.2,156.6z"/>
						<path class="st36" d="M158.1,161c-4.2-0.1-8.3-0.1-12.5-0.1c-4.2,0-8.3,0-12.5,0.1c-4.2,0.1-8.3,0.1-12.5,0.3
							c4.2,0.2,8.3,0.2,12.5,0.3c4.2,0.1,8.3,0.1,12.5,0.1c4.2,0,8.3,0,12.5-0.1l6.2-0.1c2.1-0.1,4.2-0.1,6.2-0.2
							c-2.1-0.1-4.2-0.1-6.2-0.2L158.1,161z"/>
						<path class="st22" d="M162.2,194.3l11.8-11.7l-12.2,11.5c-3.2-1.5-6.4-3-9.6-4.5c-3.3-1.5-6.5-3-9.8-4.4
							c-3.3-1.4-6.6-2.9-9.9-4.2c3.2,1.6,6.4,3.2,9.6,4.8c3.2,1.6,6.5,3,9.7,4.6c3.2,1.4,6.3,2.9,9.5,4.3l-1.2,1.1l-13.6,13
							l-18.9-10.7l-18.6-10.5c5.9-3.5,11.8-7.1,17.8-10.6c6.1-3.6,12.2-7.3,18.2-11c-6.2,3.5-12.3,7-18.5,10.6
							c-6.1,3.6-12.3,7.1-18.4,10.7l-0.5,0.3l0.5,0.3l19.1,10.8l19.1,10.8l0.2,0.1l0.2-0.2l13.6-13.3l1.3-1.3l4.8,2.1
							c1.7,0.7,3.3,1.4,5,2.1c-1.6-0.8-3.2-1.6-4.8-2.4L162.2,194.3z"/>
						<path class="st5" d="M132.9,209.3c-1-0.9-2.3-1.6-3.8-1.6c-1.4,0-2.8,0.6-3.9,1.5c-1.1,0.9-1.9,2.1-2.5,3.3
							c-1.2,2.5-1.7,5.3-1.8,8c0.1,2.8,0.5,5.5,1.8,8c0.6,1.2,1.4,2.4,2.5,3.3c1.1,0.9,2.4,1.5,3.9,1.5c1.4,0,2.7-0.7,3.8-1.6
							c1-0.9,1.8-2.1,2.3-3.3c1.2-2.5,1.6-5.2,1.6-7.9c-0.1,2.7-0.5,5.4-1.7,7.8c-0.6,1.2-1.4,2.3-2.4,3.2c-1,0.9-2.3,1.4-3.6,1.4
							c-1.3,0-2.5-0.6-3.5-1.5c-1-0.9-1.7-2-2.3-3.2c-1.1-2.4-1.6-5.1-1.6-7.7c0-2.6,0.4-5.3,1.6-7.7c0.6-1.2,1.3-2.3,2.3-3.2
							c1-0.9,2.2-1.5,3.5-1.5c1.3,0,2.6,0.5,3.6,1.4c1,0.9,1.8,2,2.4,3.2c1.2,2.4,1.7,5.1,1.7,7.8c0-2.7-0.5-5.4-1.6-7.9
							C134.6,211.4,133.9,210.2,132.9,209.3z"/>
					</g>
					<g>
						<path class="st22" d="M59.7,205.5c11.9,0,21.6-9.7,21.6-21.6c0-11.9-9.7-21.6-21.6-21.6s-21.6,9.7-21.6,21.6
							C38.2,195.8,47.8,205.5,59.7,205.5z M59.7,162.8c11.6,0,21.1,9.5,21.1,21.1c0,11.6-9.5,21.1-21.1,21.1
							c-11.6,0-21.1-9.5-21.1-21.1C38.6,172.3,48.1,162.8,59.7,162.8z"/>
						<path class="st5" d="M76.6,183.9L59.7,167l-16.9,16.9l16.9,16.9L76.6,183.9z M59.7,167.7l16.2,16.2l-16.2,16.2l-16.2-16.2
							L59.7,167.7z"/>
						
							<rect x="36.1" y="210.5" transform="matrix(0.9997 -2.468444e-002 2.468444e-002 0.9997 -5.1862 1.4474)" class="st52" width="40" height="0.5"/>
						
							<rect x="45.9" y="217" transform="matrix(-0.9982 -5.917015e-002 5.917015e-002 -0.9982 112.1747 437.7264)" class="st16" width="33.3" height="0.5"/>
						
							<rect x="57.5" y="207.1" transform="matrix(-1.585529e-002 -0.9999 0.9999 -1.585529e-002 -164.9096 284.9102)" class="st16" width="0.5" height="33"/>
						
							<rect x="45.4" y="155.7" transform="matrix(1 7.042177e-003 -7.042177e-003 1 1.0996 -0.4394)" class="st16" width="35" height="0.5"/>
					</g>
				</g>
			</g>
			<g class="st51">
				<path class="st18" d="M718.9,287.3l-2.6-0.4l0,0l-30.8-5.3v-2.2c0-1.5-1.2-2.7-2.7-2.7h-2.6h-1.6h-3.7h-17.6l-47.7-8.3
					c-1.5-0.3-2.8,0.7-3.1,2.2l-1.1,6.1h-33.6c-1.5,0-2.7,1.2-2.7,2.7v159.7c0,1.5,1.2,2.7,2.7,2.7H643l42.5,7.4l0,0l5.2,0.9
					c1.5,0.3,2.8-0.7,3.1-2.2l27.3-157.3C721.3,288.9,720.3,287.5,718.9,287.3z"/>
				<g class="st43">
					<g>
						<path class="st42" d="M601.2,265.4l-27.3,157.3c-0.3,1.5,0.7,2.8,2.2,3.1l109.5,19c1.5,0.3,2.8-0.7,3.1-2.2l27.3-157.3
							c0.3-1.5-0.7-2.8-2.2-3.1l-109.5-19C602.8,262.9,601.5,263.9,601.2,265.4z"/>
						<path class="st55" d="M601.2,265.4l-27.3,157.3c-0.3,1.5,0.7,2.8,2.2,3.1L681.4,444c1.5,0.3,2.8-0.7,3.1-2.2l27.3-157.3
							c0.3-1.5-0.7-2.8-2.2-3.1l-105.2-18.3C602.8,262.9,601.5,263.9,601.2,265.4z"/>
						<path class="st14" d="M601.2,265.4l-27.3,157.3c-0.3,1.5,0.7,2.8,2.2,3.1l104.2,18.1l27.7-159.9c0.3-1.5-0.7-2.8-2.2-3.1
							l-101.6-17.6C602.8,262.9,601.5,263.9,601.2,265.4z"/>
						<path class="st33" d="M711.9,293.3l-6.4,37c-5.6-1-11,2.8-12,8.5l-8.2,47.3c-1,5.6,2.8,11,8.4,12l0,0l-7.6,44
							c-0.3,1.5-1.6,2.4-3.1,2.2l-106.9-18.5c-1.5-0.3-2.4-1.6-2.2-3.1l27.3-157.3c0.3-1.5,1.6-2.4,3.1-2.2l106.9,18.5
							c1.5,0.3,2.4,1.6,2.2,3.1L711.9,293.3z"/>
					</g>
					<g>
						
							<rect x="610.1" y="332.2" transform="matrix(0.9853 0.1709 -0.1709 0.9853 66.4842 -105.9066)" class="st42" width="76.8" height="2.2"/>
						
							<rect x="607.8" y="345.7" transform="matrix(0.9853 0.1708 -0.1708 0.9853 68.7443 -105.2935)" class="st42" width="76.8" height="2.2"/>
						
							<rect x="605.4" y="359.2" transform="matrix(0.9853 0.1709 -0.1709 0.9853 71.0342 -104.718)" class="st42" width="76.8" height="2.2"/>
					</g>
					<g>
						
							<rect x="631.5" y="291.2" transform="matrix(0.9853 0.1709 -0.1709 0.9853 61.7882 -107.1755)" class="st39" width="43.8" height="28.1"/>
						<g>
							
								<rect x="639.8" y="297.7" transform="matrix(0.9853 0.1709 -0.1709 0.9853 60.5556 -107.4609)" class="st7" width="29.7" height="0.9"/>
							
								<rect x="638.9" y="302.9" transform="matrix(0.9853 0.1708 -0.1708 0.9853 61.4279 -107.2194)" class="st7" width="29.7" height="0.9"/>
							
								<rect x="637.9" y="308.1" transform="matrix(0.9853 0.1709 -0.1709 0.9853 62.3254 -107.0135)" class="st7" width="29.7" height="0.9"/>
						</g>
						<path class="st30" d="M675.9,293.3L675.9,293.3c-1.2,6.6-7.5,11.1-14.1,9.9l-15.8-2.7c-6.6-1.2-11.1-7.5-9.9-14.1l0,0
							l-2.8-0.5l-5.4,31.4l45.4,7.9l5.4-31.4L675.9,293.3z"/>
					</g>
				</g>
				<g class="st43">
					<g>
						<path class="st22" d="M563.9,274.1v159.7c0,1.5,1.2,2.7,2.7,2.7h111.1c1.5,0,2.7-1.2,2.7-2.7V274.1c0-1.5-1.2-2.7-2.7-2.7
							H566.6C565.1,271.5,563.9,272.6,563.9,274.1z"/>
						<path class="st55" d="M563.9,274.1v159.7c0,1.5,1.2,2.7,2.7,2.7h106.8c1.5,0,2.7-1.2,2.7-2.7V274.1c0-1.5-1.2-2.7-2.7-2.7
							H566.6C565.1,271.5,563.9,272.6,563.9,274.1z"/>
						<path class="st14" d="M563.9,274.1v159.7c0,1.5,1.2,2.7,2.7,2.7h105.8V274.1c0-1.5-1.2-2.7-2.7-2.7H566.6
							C565.1,271.5,563.9,272.6,563.9,274.1z"/>
						<path class="st41" d="M677.7,282.8v37.5c-5.7,0-10.4,4.6-10.4,10.4v48c0,5.7,4.6,10.4,10.4,10.4l0,0v44.7
							c0,1.5-1.2,2.7-2.7,2.7H566.6c-1.5,0-2.7-1.2-2.7-2.7V274.1c0-1.5,1.2-2.7,2.7-2.7H675c1.5,0,2.7,1.2,2.7,2.7V282.8z"/>
					</g>
					<g>
						<rect x="583.7" y="331.9" class="st22" width="76.8" height="2.2"/>
						<rect x="583.7" y="345.6" class="st22" width="76.8" height="2.2"/>
						<rect x="583.7" y="359.3" class="st22" width="76.8" height="2.2"/>
					</g>
					<g>
						<rect x="600.2" y="290.5" class="st39" width="43.8" height="28.1"/>
						<g>
							<rect x="607.2" y="296.8" class="st7" width="29.7" height="0.9"/>
							<rect x="607.2" y="302.1" class="st7" width="29.7" height="0.9"/>
							<rect x="607.2" y="307.4" class="st7" width="29.7" height="0.9"/>
						</g>
						<path class="st30" d="M642.3,288.9L642.3,288.9c0,6.7-5.5,12.2-12.2,12.2h-16c-6.7,0-12.2-5.5-12.2-12.2l0,0h-2.9v31.9h46.1
							v-31.9H642.3z"/>
					</g>
				</g>
			</g>
			<g>
				<path class="st50" d="M750.8,177.6h-46.7c-1.5,0-2.8,1.2-2.8,2.8v1.8c0,1.5-1.2,2.8-2.8,2.8h-2.9v-0.5h0.3
					c0.8,0,1.5-0.7,1.5-1.5V181c0-0.8-0.7-1.5-1.5-1.5h-11.7c-0.8,0-1.5,0.7-1.5,1.5v1.9c0,0.8,0.7,1.5,1.5,1.5h0.3v0.5h-4.5v-1.2
					v-1.3c0-1-0.8-1.8-1.8-1.8h-12.9c-1,0-1.8,0.8-1.8,1.8v1.3v1.2h-4.1c-1.5,0-2.8,1.2-2.8,2.8v3.1V232v1.1c0,0.5,0.1,0.9,0.3,1.3
					l0,0l0,0c0.2,0.4,0.6,0.8,1,1c0,0,0,0,0.1,0c0.2,0.1,0.3,0.2,0.5,0.2c0.1,0,0.1,0,0.2,0c0.2,0.1,0.5,0.1,0.7,0.1h91.3
					c0.2,0,0.5,0,0.7-0.1c0.1,0,0.1,0,0.2,0c0.2-0.1,0.4-0.1,0.5-0.2c0,0,0,0,0.1,0c0.4-0.3,0.7-0.6,1-1c0,0,0,0,0,0h0
					c0.2-0.4,0.3-0.8,0.3-1.3V232v-41.2v-10.4C753.6,178.8,752.4,177.6,750.8,177.6z"/>
				<g>
					<rect x="679.4" y="175.5" width="11.1" height="5"/>
					<path class="st3" d="M675,180.4h-16.5v-3.2c0-1,0.8-1.8,1.8-1.8h12.9c1,0,1.8,0.8,1.8,1.8V180.4z"/>
					<rect x="658.5" y="178.5" class="st30" width="16.5" height="5"/>
					<g class="st30">
						<rect x="659.1" y="177.4" width="0.2" height="2.7"/>
						<rect x="660" y="177.4" width="0.2" height="2.7"/>
						<rect x="660.9" y="177.4" width="0.2" height="2.7"/>
						<rect x="661.7" y="177.4" width="0.2" height="2.7"/>
						<rect x="662.6" y="177.4" width="0.2" height="2.7"/>
						<rect x="663.5" y="177.4" width="0.2" height="2.7"/>
						<rect x="664.4" y="177.4" width="0.2" height="2.7"/>
						<rect x="665.3" y="177.4" width="0.2" height="2.7"/>
						<rect x="666.2" y="177.4" width="0.2" height="2.7"/>
						<rect x="667" y="177.4" width="0.2" height="2.7"/>
						<rect x="667.9" y="177.4" width="0.2" height="2.7"/>
						<rect x="668.8" y="177.4" width="0.2" height="2.7"/>
						<rect x="669.7" y="177.4" width="0.2" height="2.7"/>
						<rect x="670.6" y="177.4" width="0.2" height="2.7"/>
						<rect x="671.5" y="177.4" width="0.2" height="2.7"/>
						<rect x="672.3" y="177.4" width="0.2" height="2.7"/>
						<rect x="673.2" y="177.4" width="0.2" height="2.7"/>
						<rect x="674.1" y="177.4" width="0.2" height="2.7"/>
					</g>
					<path class="st44" d="M690.9,179.3h-11.7c-0.8,0-1.5-0.7-1.5-1.5v-1.9c0-0.8,0.7-1.5,1.5-1.5h11.7c0.8,0,1.5,0.7,1.5,1.5v1.9
						C692.3,178.6,691.7,179.3,690.9,179.3z"/>
					<g>
						<path class="st3" d="M696.2,175.2v1.8c0,1.5-1.2,2.8-2.8,2.8h-39.1c-1.5,0-2.8,1.2-2.8,2.8v45.4c0,1.5,1.2,2.8,2.8,2.8h91.3
							c1.5,0,2.8-1.2,2.8-2.8v-52.7c0-1.5-1.2-2.8-2.8-2.8H699C697.5,172.4,696.2,173.7,696.2,175.2z"/>
						<rect x="651.6" y="185.6" class="st44" width="96.9" height="41.2"/>
					</g>
					<g>
						<path d="M743.5,184.1h-13.5c-0.8,0-1.5-0.7-1.5-1.5V176c0-0.8,0.7-1.5,1.5-1.5h13.5c0.8,0,1.5,0.7,1.5,1.5v6.6
							C744.9,183.4,744.3,184.1,743.5,184.1z"/>
						<path class="st44" d="M729.9,183.3h13.5c0.4,0,0.7-0.3,0.7-0.7V176c0-0.4-0.3-0.7-0.7-0.7h-13.5c-0.4,0-0.7,0.3-0.7,0.7v6.6
							C729.3,183,729.6,183.3,729.9,183.3z"/>
						<path class="st56" d="M743.9,175.5l-14.3,7.7c0.1,0.1,0.2,0.1,0.4,0.1h13.5c0.4,0,0.7-0.3,0.7-0.7V176
							C744.1,175.8,744,175.6,743.9,175.5z"/>
						<path class="st30" d="M741.5,179.3L741.5,179.3c0-0.8-0.6-1.4-1.4-1.4h-6.9c-0.8,0-1.4,0.6-1.4,1.4l0,0c0,0.8,0.6,1.4,1.4,1.4
							h6.9C740.9,180.7,741.5,180.1,741.5,179.3z"/>
					</g>
					<g>
						<path d="M724.3,176.6c-1.3,0-2.3,1-2.3,2.3c0,1.3,1,2.3,2.3,2.3c1.3,0,2.3-1,2.3-2.3C726.6,177.7,725.6,176.6,724.3,176.6z"/>
						<circle class="st12" cx="724.3" cy="179" r="2"/>
						<circle class="st25" cx="724.9" cy="178.4" r="0.8"/>
					</g>
					<g>
						<path class="st3" d="M721.5,187.2c-1.4,0-2.5,1.1-2.5,2.5c0,1.4,1.1,2.5,2.5,2.5c1.4,0,2.5-1.1,2.5-2.5
							C724,188.3,722.9,187.2,721.5,187.2z"/>
						<circle cx="721.5" cy="189.7" r="2.2"/>
					</g>
					<g>
						<path class="st30" d="M700,181c-13.5,0-24.4,11-24.4,24.4c0,13.5,11,24.4,24.4,24.4s24.4-11,24.4-24.4
							C724.5,192,713.5,181,700,181z"/>
						<g>
							<circle class="st3" cx="700" cy="205.5" r="23"/>
							<circle class="st44" cx="700" cy="205.5" r="20.6"/>
							<circle class="st1" cx="700" cy="205.5" r="17.2"/>
							<circle class="st54" cx="700" cy="205.5" r="15.5"/>
							<circle class="st47" cx="700" cy="205.5" r="7.2"/>
							<g class="st9">
								<circle class="st39" cx="705.8" cy="211.2" r="5"/>
								<circle class="st39" cx="700.3" cy="205.7" r="1.9"/>
							</g>
						</g>
					</g>
					<path class="st26" d="M652,229.3c0.5,0.9,1.4,1.5,2.4,1.5h91.3c1.1,0,2-0.6,2.4-1.5H652z"/>
					<g>
						<g>
							<path d="M680.5,181.1c-0.7-0.1-1.3,0.1-1.7,0.5c-0.3,0.3-0.6,0.4-1,0.4H675c-0.7,0-1.4,0.5-1.5,1.3c-0.1,0.9,0.6,1.7,1.5,1.7
								h5.3c1.1,0,2-1,1.9-2.2C682,181.9,681.3,181.2,680.5,181.1z"/>
							<g>
								<g>
									<circle class="st3" cx="680.2" cy="183" r="1.7"/>
									<circle class="st44" cx="680.2" cy="183" r="1.5"/>
									<circle class="st27" cx="680.6" cy="182.6" r="0.6"/>
								</g>
								<g>
									<path class="st3" d="M674.9,182.2c-0.7,0-1.2,0.5-1.2,1.2c0,0.7,0.6,1.2,1.2,1.2c0.7,0,1.2-0.6,1.2-1.2
										C676.1,182.8,675.6,182.2,674.9,182.2z"/>
									<circle class="st12" cx="674.9" cy="183.5" r="1.1"/>
									<circle class="st25" cx="675.2" cy="183.1" r="0.4"/>
								</g>
							</g>
						</g>
						<path class="st3" d="M677.7,183.9h-0.8c-0.2,0-0.4-0.2-0.4-0.4l0,0c0-0.2,0.2-0.4,0.4-0.4h0.8c0.2,0,0.4,0.2,0.4,0.4l0,0
							C678,183.7,677.9,183.9,677.7,183.9z"/>
					</g>
				</g>
			</g>
			<g>
				<path class="st50" d="M90.9,278.5c0.3,0.1,0.6,0.1,0.9,0.1l0,0h78.7l0,0l0,0h7.7l0,0c0.2,0,0.4,0,0.6-0.1
					c0.1-0.1,0.2-0.1,0.3-0.2c0,0,0.1-0.1,0.1-0.1c0.3-0.3,0.5-0.6,0.5-1c0,0,0,0,0,0l0,0c0-0.1,0.1-0.2,0.1-0.3v-1.8
					c0-0.9-0.7-1.7-1.7-1.7h-7.7h-3H91.8c-0.3,0-0.6,0-0.9,0.1l-5.6,1.7v0l-1.9,0.6v0.2l1.9,0.6v0L90.9,278.5z"/>
				<path class="st50" d="M182.1,301.7c0,0,0.3-0.5,0.3-1.6c0-1.1-0.3-1.6-0.3-1.6l-14.2-0.6h-64.6c0.1-0.3-0.1-0.6-0.4-0.6
					l-2.7,0.2c0-0.2-0.1-0.4-0.4-0.4l-12,0.7c-0.7,0.9-0.7,2.3-0.7,2.3s0,1.4,0.7,2.3l12,0.7c0.2,0,0.4-0.2,0.4-0.4l2.7,0.2
					c0.3,0,0.5-0.3,0.4-0.6h64.6L182.1,301.7z"/>
				<path class="st50" d="M182.1,287.4l-14.2-0.6h-64.6c0.1-0.3-0.1-0.6-0.4-0.6l-2.7,0.2c0-0.2-0.1-0.4-0.4-0.4l-12,0.7
					c-0.7,0.9-0.7,2.3-0.7,2.3s0,1.4,0.7,2.3l12,0.7c0.2,0,0.4-0.2,0.4-0.4l2.7,0.2c0.3,0,0.5-0.3,0.4-0.6h64.6l14.2-0.6
					c0,0,0.3-0.5,0.3-1.6S182.1,287.4,182.1,287.4z"/>
				<path class="st50" d="M167.9,312.1l14.2-0.6c0,0,0.3-0.5,0.3-1.6c0-1.1-0.3-1.6-0.3-1.6l-14.2-0.6h-64.6
					c0.1-0.3-0.1-0.6-0.4-0.6l-2.7,0.2c0-0.2-0.1-0.4-0.4-0.4l-12,0.7c-0.7,0.9-0.7,2.3-0.7,2.3s0,1.4,0.7,2.3l12,0.7
					c0.2,0,0.4-0.2,0.4-0.4l2.7,0.2c0.3,0,0.5-0.3,0.4-0.6H167.9z"/>
				<g>
					<g>
						<g>
							<path class="st19" d="M162.4,273.5h10.7c0.9,0,1.7-0.7,1.7-1.7V270c0-0.9-0.7-1.7-1.7-1.7h-10.7V273.5z"/>
							<path class="st45" d="M86.6,268.3c-0.3,0-0.6,0-0.9,0.1l-5.6,1.7v1.4l5.6,1.7c0.3,0.1,0.6,0.1,0.9,0.1h78.7v-5.1H86.6z"/>
							<polygon class="st40" points="78.2,270.8 78.2,271 80.1,271.6 80.1,270.2 							"/>
							<path class="st38" d="M86.4,271.5l-0.5-0.5c-0.1-0.1-0.1-0.2,0-0.3l0.5-0.5c0.1-0.1,0.1-0.4,0-0.5l-0.5-0.5
								c-0.1-0.1-0.1-0.2,0-0.3l0.8-0.7c-0.3,0-0.6,0-0.9,0.1l-5.6,1.7v1.4l5.6,1.7c0.3,0.1,0.6,0.1,0.9,0.1l-0.8-0.7
								c-0.1-0.1-0.1-0.2,0-0.3l0.5-0.5C86.5,271.9,86.5,271.6,86.4,271.5z"/>
						</g>
					</g>
					<path class="st8" d="M173.1,273.5c0.8,0,1.5-0.6,1.6-1.4H81.6l4.1,1.3c0.3,0.1,0.6,0.1,0.9,0.1h78.7l0,0H173.1z"/>
				</g>
				<g>
					<g>
						<path class="st3" d="M161.7,295l1,2.2l14.2-0.6c0,0,0.3-0.5,0.3-1.6c0-1.1-0.3-1.6-0.3-1.6l-14.2-0.6L161.7,295z"/>
						<rect x="97.4" y="292.8" class="st22" width="65.4" height="4.4"/>
						<g>
							<path class="st3" d="M94.6,292l-12,0.7c-0.7,0.9-0.7,2.3-0.7,2.3s0,1.4,0.7,2.3l12,0.7c0.2,0,0.4-0.2,0.4-0.4l2.7,0.2
								c0.3,0,0.5-0.3,0.4-0.6c-0.4-1.1-0.4-2.2-0.4-2.2s0-1.1,0.4-2.2c0.1-0.3-0.1-0.6-0.4-0.6l-2.7,0.2
								C95,292.2,94.9,292,94.6,292z"/>
							<path class="st26" d="M95,292.5c-0.5,1.2-0.5,2.5-0.5,2.5s0,1.3,0.5,2.5c0,0,0,0.1,0,0.1l1.1,0.1c0-0.1,0-0.1,0-0.2
								c-0.5-1.2-0.5-2.5-0.5-2.5s0-1.3,0.5-2.5c0-0.1,0-0.1,0-0.2l-1.1,0.1C95,292.4,95,292.5,95,292.5z"/>
						</g>
					</g>
					<g>
						<path class="st3" d="M161.7,283.9l1,2.2l14.2-0.6c0,0,0.3-0.5,0.3-1.6s-0.3-1.6-0.3-1.6l-14.2-0.6L161.7,283.9z"/>
						<rect x="97.4" y="281.7" class="st32" width="65.4" height="4.4"/>
						<g>
							<path class="st3" d="M94.6,280.9l-12,0.7c-0.7,0.9-0.7,2.3-0.7,2.3s0,1.4,0.7,2.3l12,0.7c0.2,0,0.4-0.2,0.4-0.4l2.7,0.2
								c0.3,0,0.5-0.3,0.4-0.6c-0.4-1.1-0.4-2.2-0.4-2.2s0-1.1,0.4-2.2c0.1-0.3-0.1-0.6-0.4-0.6l-2.7,0.2
								C95,281.1,94.9,280.9,94.6,280.9z"/>
							<path class="st26" d="M95,281.4c-0.5,1.2-0.5,2.5-0.5,2.5s0,1.3,0.5,2.5c0,0,0,0.1,0,0.1l1.1,0.1c0-0.1,0-0.1,0-0.2
								c-0.5-1.2-0.5-2.5-0.5-2.5s0-1.3,0.5-2.5c0-0.1,0-0.1,0-0.2l-1.1,0.1C95,281.3,95,281.4,95,281.4z"/>
						</g>
					</g>
					<g>
						<path class="st3" d="M161.7,304.8l1,2.2l14.2-0.6c0,0,0.3-0.5,0.3-1.6c0-1.1-0.3-1.6-0.3-1.6l-14.2-0.6L161.7,304.8z"/>
						<rect x="97.4" y="302.6" class="st5" width="65.4" height="4.4"/>
						<g>
							<path class="st3" d="M94.6,301.8l-12,0.7c-0.7,0.9-0.7,2.3-0.7,2.3s0,1.4,0.7,2.3l12,0.7c0.2,0,0.4-0.2,0.4-0.4l2.7,0.2
								c0.3,0,0.5-0.3,0.4-0.6c-0.4-1.1-0.4-2.2-0.4-2.2s0-1.1,0.4-2.2c0.1-0.3-0.1-0.6-0.4-0.6l-2.7,0.2
								C95,301.9,94.9,301.8,94.6,301.8z"/>
							<path class="st26" d="M95,302.2c-0.5,1.2-0.5,2.5-0.5,2.5s0,1.3,0.5,2.5c0,0,0,0.1,0,0.1l1.1,0.1c0-0.1,0-0.1,0-0.2
								c-0.5-1.2-0.5-2.5-0.5-2.5s0-1.3,0.5-2.5c0-0.1,0-0.1,0-0.2l-1.1,0.1C95,302.2,95,302.2,95,302.2z"/>
						</g>
					</g>
				</g>
			</g>
		</g>
	</g>
</g>
</svg>
