<?xml version="1.0" encoding="utf-8"?>
<!-- Generator: Adobe Illustrator 16.0.0, SVG Export Plug-In . SVG Version: 6.00 Build 0)  -->
<!DOCTYPE svg PUBLIC "-//W3C//DTD SVG 1.1//EN" "http://www.w3.org/Graphics/SVG/1.1/DTD/svg11.dtd">
<svg version="1.1" id="BACGROUND_2" xmlns="http://www.w3.org/2000/svg" xmlns:xlink="http://www.w3.org/1999/xlink" x="0px"
	 y="0px" width="750px" height="500px" viewBox="0 0 750 500" style="enable-background:new 0 0 750 500;" xml:space="preserve">
<style type="text/css">
<![CDATA[
	.st0{fill:#7EC7E7;}
	.st1{fill:#E2E5EA;}
	.st2{fill:#808080;}
	.st3{opacity:0.42;}
	.st4{fill:#B3B6BA;}
	.st5{fill:#B5B7BA;}
	.st6{fill:#ED6358;}
	.st7{display:inline;fill:#212328;}
	.st8{fill:#EFF1F4;}
	.st9{fill:#2196BF;}
	.st10{fill:#25272D;}
	.st11{fill:#5AA197;}
	.st12{fill:#F7F7F7;}
	.st13{fill:#F98680;}
	.st14{fill:#C1C3C6;}
	.st15{opacity:0.2;fill:#FFFFFF;}
	.st16{fill:#C4864D;}
	.st17{fill:#989CA0;}
	.st18{display:none;fill:#AF6F3A;}
	.st19{opacity:0.2;}
	.st20{fill:#FEA559;}
	.st21{display:inline;fill:#31343B;}
	.st22{fill:#FFC391;}
	.st23{fill:#FFFFFF;}
	.st24{fill:#666666;}
	.st25{fill:#68C4B5;}
	.st26{fill:#CC7E44;}
	.st27{display:inline;}
	.st28{fill:#31343B;}
	.st29{fill:#333333;}
	.st30{fill:#6A6C6D;}
	.st31{fill:#D0F0FC;}
	.st32{fill:#D3874F;}
	.st33{display:none;fill:#2196BF;}
	.st34{display:none;}
	.st35{fill:#A5D7EE;}
	.st36{fill:#DCDDE0;}
	.st37{fill:#434549;}
	.st38{display:inline;fill:#E2E5EA;}
]]>
</style>
<g>
	<g>
		<g>
			<g class="st34">
				<path class="st9" d="M545.5,305.4L545.5,305.4h-5.1h-11c-0.4,0-0.8,0.3-0.8,0.8v135.7c0,0.4,0.3,0.8,0.8,0.8h11h5.1h0
					c0.4,0,0.8-0.3,0.8-0.8v0v-0.2v-0.3v-0.7v-0.3v-0.7v-0.3v-0.7v-0.3v-0.7v-0.3v-0.7v-0.3v-0.7v-0.3v-0.7v-0.3v-0.7v-0.3v-0.7
					v-0.3v-0.7v-0.3v-0.7v-0.3v-0.7v-0.3v-0.7V428v-0.7V427v-0.7V426v-0.7V425v-0.7V424v-0.7v-0.3v-0.7v-0.3v-0.7v-0.3v-0.7v-0.3
					v-0.7v-0.3v-0.7v-0.3v-0.7v-0.3v-0.7v-0.3V415v-0.3V414v-0.3V413v-0.3V412v-0.3v-0.7v-0.3v-0.7v-0.3v-0.7v-0.3v-0.7v-0.3v-0.7
					v-0.3v-0.7v-0.3v-0.7v-0.3v-0.7v-0.3v-0.7v-0.3v-0.7v-0.3v-0.7v-0.3v-0.7v-0.3v-0.7v-0.3v-0.7v-0.3v-0.7v-0.3v-0.7v-0.3v-0.7
					v-0.3v-0.7v-0.3v-0.7v-0.3v-0.7v-0.3v-0.7v-0.3v-0.7v-0.3v-0.7v-0.3v-0.7v-0.3v-0.7v-0.3v-0.7v-0.3v-0.7V384v-0.7V383v-0.7V382
					v-0.7V381v-0.7V380v-0.7v-0.3v-0.7v-0.3v-0.7v-0.3v-0.7v-0.3v-0.7v-0.3v-0.7v-0.3v-0.7v-0.3v-0.7v-0.3V371v-0.3V370v-0.3V369
					v-0.3V368v-0.3v-0.7v-0.3v-0.7v-0.3v-0.7v-0.3v-0.7v-0.3v-0.7v-0.3v-0.7v-0.3v-0.7v-0.3v-0.7v-0.3v-0.7v-0.3v-0.7v-0.3v-0.7
					v-0.3v-0.7v-0.3v-0.7v-0.3v-0.7v-0.3v-0.7v-0.3v-0.7v-0.3v-0.7v-0.3v-0.7v-0.3v-0.7v-0.3v-0.7v-0.3v-0.7v-0.3v-0.7v-0.3v-0.7
					v-0.3v-0.7v-0.3v-0.7v-0.3v-0.7v-0.3v-0.7V340v-0.7V339v-0.7V338v-0.7V337v-0.7V336v-0.7v-0.3v-0.7v-0.3v-0.7v-0.3v-0.7v-0.3
					v-0.7v-0.3v-0.7v-0.3v-0.7v-0.3v-0.7v-0.3V327v-0.3V326v-0.3V325v-0.3V324v-0.3v-0.7v-0.3v-0.7v-0.3v-0.7v-0.3v-0.7v-0.3v-0.7
					v-0.3v-0.7v-0.3v-0.7v-0.3v-0.7v-0.3v-0.7v-0.3v-0.7v-0.3v-0.7v-0.3v-0.7v-0.3v-0.7v-0.3v-0.7v-0.3v-0.7v-0.3v-0.7v-0.3v-0.7
					v-0.3v-0.1v0C546.2,305.8,545.9,305.4,545.5,305.4z"/>
				<g class="st27">
					<path class="st20" d="M540.3,437.5h-16.2c-0.4,0-0.8-0.3-0.8-0.8V301c0-0.4,0.3-0.8,0.8-0.8h16.2c0.4,0,0.8,0.3,0.8,0.8v135.7
						C541.1,437.2,540.8,437.5,540.3,437.5z"/>
					<path class="st22" d="M540.3,437.5h-5.1V300.3h5.1c0.4,0,0.8,0.3,0.8,0.8v135.7C541.1,437.2,540.8,437.5,540.3,437.5z"/>
					<g>
						<g>
							<rect x="536" y="301.1" class="st32" width="5.1" height="0.3"/>
						</g>
						<g>
							<rect x="536" y="303.2" class="st32" width="5.1" height="0.3"/>
						</g>
						<g>
							<rect x="536" y="305.2" class="st32" width="5.1" height="0.3"/>
						</g>
						<g>
							<rect x="536" y="307.3" class="st32" width="5.1" height="0.3"/>
						</g>
						<g>
							<rect x="536" y="309.3" class="st32" width="5.1" height="0.3"/>
						</g>
						<g>
							<rect x="536" y="311.4" class="st32" width="5.1" height="0.3"/>
						</g>
						<g>
							<rect x="536" y="313.4" class="st32" width="5.1" height="0.3"/>
						</g>
						<g>
							<rect x="536" y="315.5" class="st32" width="5.1" height="0.3"/>
						</g>
						<g>
							<rect x="536" y="317.5" class="st32" width="5.1" height="0.3"/>
						</g>
						<g>
							<rect x="536" y="319.6" class="st32" width="5.1" height="0.3"/>
						</g>
						<g>
							<rect x="536" y="321.6" class="st32" width="5.1" height="0.3"/>
						</g>
						<g>
							<rect x="536" y="323.7" class="st32" width="5.1" height="0.3"/>
						</g>
						<g>
							<rect x="536" y="325.7" class="st32" width="5.1" height="0.3"/>
						</g>
						<g>
							<rect x="536" y="327.8" class="st32" width="5.1" height="0.3"/>
						</g>
						<g>
							<rect x="536" y="329.8" class="st32" width="5.1" height="0.3"/>
						</g>
						<g>
							<rect x="536" y="331.8" class="st32" width="5.1" height="0.3"/>
						</g>
						<g>
							<rect x="536" y="333.9" class="st32" width="5.1" height="0.3"/>
						</g>
						<g>
							<rect x="536" y="335.9" class="st32" width="5.1" height="0.3"/>
						</g>
						<g>
							<rect x="536" y="338" class="st32" width="5.1" height="0.3"/>
						</g>
						<g>
							<rect x="536" y="340" class="st32" width="5.1" height="0.3"/>
						</g>
						<g>
							<rect x="536" y="342.1" class="st32" width="5.1" height="0.3"/>
						</g>
						<g>
							<rect x="536" y="344.1" class="st32" width="5.1" height="0.3"/>
						</g>
						<g>
							<rect x="536" y="346.2" class="st32" width="5.1" height="0.3"/>
						</g>
						<g>
							<rect x="536" y="348.2" class="st32" width="5.1" height="0.3"/>
						</g>
						<g>
							<rect x="536" y="350.3" class="st32" width="5.1" height="0.3"/>
						</g>
						<g>
							<rect x="536" y="352.3" class="st32" width="5.1" height="0.3"/>
						</g>
						<g>
							<rect x="536" y="354.4" class="st32" width="5.1" height="0.3"/>
						</g>
						<g>
							<rect x="536" y="356.4" class="st32" width="5.1" height="0.3"/>
						</g>
						<g>
							<rect x="536" y="358.4" class="st32" width="5.1" height="0.3"/>
						</g>
						<g>
							<rect x="536" y="360.5" class="st32" width="5.1" height="0.3"/>
						</g>
						<g>
							<rect x="536" y="362.5" class="st32" width="5.1" height="0.3"/>
						</g>
						<g>
							<rect x="536" y="364.6" class="st32" width="5.1" height="0.3"/>
						</g>
						<g>
							<rect x="536" y="366.6" class="st32" width="5.1" height="0.3"/>
						</g>
						<g>
							<rect x="536" y="368.7" class="st32" width="5.1" height="0.3"/>
						</g>
						<g>
							<rect x="536" y="370.7" class="st32" width="5.1" height="0.3"/>
						</g>
						<g>
							<rect x="536" y="372.8" class="st32" width="5.1" height="0.3"/>
						</g>
						<g>
							<rect x="536" y="374.8" class="st32" width="5.1" height="0.3"/>
						</g>
						<g>
							<rect x="536" y="376.9" class="st32" width="5.1" height="0.3"/>
						</g>
						<g>
							<rect x="536" y="378.9" class="st32" width="5.1" height="0.3"/>
						</g>
						<g>
							<rect x="536" y="381" class="st32" width="5.1" height="0.3"/>
						</g>
						<g>
							<rect x="536" y="383" class="st32" width="5.1" height="0.3"/>
						</g>
						<g>
							<rect x="536" y="385.1" class="st32" width="5.1" height="0.3"/>
						</g>
						<g>
							<rect x="536" y="387.1" class="st32" width="5.1" height="0.3"/>
						</g>
						<g>
							<rect x="536" y="389.1" class="st32" width="5.1" height="0.3"/>
						</g>
						<g>
							<rect x="536" y="391.2" class="st32" width="5.1" height="0.3"/>
						</g>
						<g>
							<rect x="536" y="393.2" class="st32" width="5.1" height="0.3"/>
						</g>
						<g>
							<rect x="536" y="395.3" class="st32" width="5.1" height="0.3"/>
						</g>
						<g>
							<rect x="536" y="397.3" class="st32" width="5.1" height="0.3"/>
						</g>
						<g>
							<rect x="536" y="399.4" class="st32" width="5.1" height="0.3"/>
						</g>
						<g>
							<rect x="536" y="401.4" class="st32" width="5.1" height="0.3"/>
						</g>
						<g>
							<rect x="536" y="403.5" class="st32" width="5.1" height="0.3"/>
						</g>
						<g>
							<rect x="536" y="405.5" class="st32" width="5.1" height="0.3"/>
						</g>
						<g>
							<rect x="536" y="407.6" class="st32" width="5.1" height="0.3"/>
						</g>
						<g>
							<rect x="536" y="409.6" class="st32" width="5.1" height="0.3"/>
						</g>
						<g>
							<rect x="536" y="411.7" class="st32" width="5.1" height="0.3"/>
						</g>
						<g>
							<rect x="536" y="413.7" class="st32" width="5.1" height="0.3"/>
						</g>
						<g>
							<rect x="536" y="415.8" class="st32" width="5.1" height="0.3"/>
						</g>
						<g>
							<rect x="536" y="417.8" class="st32" width="5.1" height="0.3"/>
						</g>
						<g>
							<rect x="536" y="419.8" class="st32" width="5.1" height="0.3"/>
						</g>
						<g>
							<rect x="536" y="421.9" class="st32" width="5.1" height="0.3"/>
						</g>
						<g>
							<rect x="536" y="423.9" class="st32" width="5.1" height="0.3"/>
						</g>
						<g>
							<rect x="536" y="426" class="st32" width="5.1" height="0.3"/>
						</g>
						<g>
							<rect x="536" y="428" class="st32" width="5.1" height="0.3"/>
						</g>
						<g>
							<rect x="536" y="430.1" class="st32" width="5.1" height="0.3"/>
						</g>
						<g>
							<rect x="536" y="432.1" class="st32" width="5.1" height="0.3"/>
						</g>
						<g>
							<rect x="536" y="434.2" class="st32" width="5.1" height="0.3"/>
						</g>
						<g>
							<rect x="538.5" y="302.2" class="st32" width="2.6" height="0.3"/>
							<rect x="538.5" y="304.2" class="st32" width="2.6" height="0.3"/>
							<rect x="538.5" y="306.3" class="st32" width="2.6" height="0.3"/>
							<rect x="538.5" y="308.3" class="st32" width="2.6" height="0.3"/>
							<rect x="538.5" y="310.4" class="st32" width="2.6" height="0.3"/>
							<rect x="538.5" y="312.4" class="st32" width="2.6" height="0.3"/>
							<rect x="538.5" y="314.5" class="st32" width="2.6" height="0.3"/>
							<rect x="538.5" y="316.5" class="st32" width="2.6" height="0.3"/>
							<rect x="538.5" y="318.5" class="st32" width="2.6" height="0.3"/>
							<rect x="538.5" y="320.6" class="st32" width="2.6" height="0.3"/>
							<rect x="538.5" y="322.6" class="st32" width="2.6" height="0.3"/>
							<rect x="538.5" y="324.7" class="st32" width="2.6" height="0.3"/>
							<rect x="538.5" y="326.7" class="st32" width="2.6" height="0.3"/>
							<rect x="538.5" y="328.8" class="st32" width="2.6" height="0.3"/>
							<rect x="538.5" y="330.8" class="st32" width="2.6" height="0.3"/>
							<rect x="538.5" y="332.9" class="st32" width="2.6" height="0.3"/>
							<rect x="538.5" y="334.9" class="st32" width="2.6" height="0.3"/>
							<rect x="538.5" y="337" class="st32" width="2.6" height="0.3"/>
							<rect x="538.5" y="339" class="st32" width="2.6" height="0.3"/>
							<rect x="538.5" y="341.1" class="st32" width="2.6" height="0.3"/>
							<rect x="538.5" y="343.1" class="st32" width="2.6" height="0.3"/>
							<rect x="538.5" y="345.1" class="st32" width="2.6" height="0.3"/>
							<rect x="538.5" y="347.2" class="st32" width="2.6" height="0.3"/>
							<rect x="538.5" y="349.2" class="st32" width="2.6" height="0.3"/>
							<rect x="538.5" y="351.3" class="st32" width="2.6" height="0.3"/>
							<rect x="538.5" y="353.3" class="st32" width="2.6" height="0.3"/>
							<rect x="538.5" y="355.4" class="st32" width="2.6" height="0.3"/>
							<rect x="538.5" y="357.4" class="st32" width="2.6" height="0.3"/>
							<rect x="538.5" y="359.5" class="st32" width="2.6" height="0.3"/>
							<rect x="538.5" y="361.5" class="st32" width="2.6" height="0.3"/>
							<rect x="538.5" y="363.6" class="st32" width="2.6" height="0.3"/>
							<rect x="538.5" y="365.6" class="st32" width="2.6" height="0.3"/>
							<rect x="538.5" y="367.7" class="st32" width="2.6" height="0.3"/>
							<rect x="538.5" y="369.7" class="st32" width="2.6" height="0.3"/>
							<rect x="538.5" y="371.8" class="st32" width="2.6" height="0.3"/>
							<rect x="538.5" y="373.8" class="st32" width="2.6" height="0.3"/>
							<rect x="538.5" y="375.8" class="st32" width="2.6" height="0.3"/>
							<rect x="538.5" y="377.9" class="st32" width="2.6" height="0.3"/>
							<rect x="538.5" y="379.9" class="st32" width="2.6" height="0.3"/>
							<rect x="538.5" y="382" class="st32" width="2.6" height="0.3"/>
							<rect x="538.5" y="384" class="st32" width="2.6" height="0.3"/>
							<rect x="538.5" y="386.1" class="st32" width="2.6" height="0.3"/>
							<rect x="538.5" y="388.1" class="st32" width="2.6" height="0.3"/>
							<rect x="538.5" y="390.2" class="st32" width="2.6" height="0.3"/>
							<rect x="538.5" y="392.2" class="st32" width="2.6" height="0.3"/>
							<rect x="538.5" y="394.3" class="st32" width="2.6" height="0.3"/>
							<rect x="538.5" y="396.3" class="st32" width="2.6" height="0.3"/>
							<rect x="538.5" y="398.4" class="st32" width="2.6" height="0.3"/>
							<rect x="538.5" y="400.4" class="st32" width="2.6" height="0.3"/>
							<rect x="538.5" y="402.4" class="st32" width="2.6" height="0.3"/>
							<rect x="538.5" y="404.5" class="st32" width="2.6" height="0.3"/>
							<rect x="538.5" y="406.5" class="st32" width="2.6" height="0.3"/>
							<rect x="538.5" y="408.6" class="st32" width="2.6" height="0.3"/>
							<rect x="538.5" y="410.6" class="st32" width="2.6" height="0.3"/>
							<rect x="538.5" y="412.7" class="st32" width="2.6" height="0.3"/>
							<rect x="538.5" y="414.7" class="st32" width="2.6" height="0.3"/>
							<rect x="538.5" y="416.8" class="st32" width="2.6" height="0.3"/>
							<rect x="538.5" y="418.8" class="st32" width="2.6" height="0.3"/>
							<rect x="538.5" y="420.9" class="st32" width="2.6" height="0.3"/>
							<rect x="538.5" y="422.9" class="st32" width="2.6" height="0.3"/>
							<rect x="538.5" y="425" class="st32" width="2.6" height="0.3"/>
							<rect x="538.5" y="427" class="st32" width="2.6" height="0.3"/>
							<rect x="538.5" y="429.1" class="st32" width="2.6" height="0.3"/>
							<rect x="538.5" y="431.1" class="st32" width="2.6" height="0.3"/>
							<rect x="538.5" y="433.1" class="st32" width="2.6" height="0.3"/>
							<rect x="538.5" y="435.2" class="st32" width="2.6" height="0.3"/>
						</g>
						<g>
							<rect x="536" y="436.2" class="st32" width="5.1" height="0.3"/>
						</g>
					</g>
				</g>
			</g>
			<g>
				<g>
					<path class="st1" d="M595.4,299.4H314.7c-4.1,0-7.5-3.3-7.5-7.5V107.2c0-4.1,3.3-7.5,7.5-7.5h280.7c4.1,0,7.5,3.3,7.5,7.5V292
						C602.9,296.1,599.5,299.4,595.4,299.4z"/>
					<path class="st12" d="M571.2,217.4H339c-4.4,0-8-3.6-8-8v-86.6c0-4.4,3.6-8,8-8h232.2c4.4,0,8,3.6,8,8v86.6
						C579.2,213.8,575.6,217.4,571.2,217.4z"/>
					<g>
						<g>
							<path class="st29" d="M349.7,120.9h-9.9c-1.3,0-2.3,1-2.3,2.3v3.8c0,1.3,1,2.3,2.3,2.3h9.9c1.3,0,2.3-1,2.3-2.3v-3.8
								C352,121.9,351,120.9,349.7,120.9z"/>
							<path class="st29" d="M366.7,120.9h-9.9c-1.3,0-2.3,1-2.3,2.3v3.8c0,1.3,1,2.3,2.3,2.3h9.9c1.3,0,2.3-1,2.3-2.3v-3.8
								C369,121.9,368,120.9,366.7,120.9z"/>
							<path class="st29" d="M383.6,120.9h-9.9c-1.3,0-2.3,1-2.3,2.3v3.8c0,1.3,1.1,2.3,2.3,2.3h9.9c1.3,0,2.3-1,2.3-2.3v-3.8
								C386,121.9,384.9,120.9,383.6,120.9z"/>
							<path class="st29" d="M400.6,120.9h-9.9c-1.3,0-2.3,1-2.3,2.3v3.8c0,1.3,1,2.3,2.3,2.3h9.9c1.3,0,2.3-1,2.3-2.3v-3.8
								C403,121.9,401.9,120.9,400.6,120.9z"/>
							<path class="st29" d="M417.6,120.9h-9.9c-1.3,0-2.3,1-2.3,2.3v3.8c0,1.3,1.1,2.3,2.3,2.3h9.9c1.3,0,2.3-1,2.3-2.3v-3.8
								C419.9,121.9,418.9,120.9,417.6,120.9z"/>
							<path class="st29" d="M434.6,120.9h-9.9c-1.3,0-2.3,1-2.3,2.3v3.8c0,1.3,1.1,2.3,2.3,2.3h9.9c1.3,0,2.3-1,2.3-2.3v-3.8
								C436.9,121.9,435.9,120.9,434.6,120.9z"/>
							<path class="st29" d="M451.5,120.9h-9.9c-1.3,0-2.3,1-2.3,2.3v3.8c0,1.3,1,2.3,2.3,2.3h9.9c1.3,0,2.3-1,2.3-2.3v-3.8
								C453.9,121.9,452.8,120.9,451.5,120.9z"/>
							<path class="st29" d="M468.5,120.9h-9.9c-1.3,0-2.3,1-2.3,2.3v3.8c0,1.3,1.1,2.3,2.3,2.3h9.9c1.3,0,2.3-1,2.3-2.3v-3.8
								C470.8,121.9,469.8,120.9,468.5,120.9z"/>
							<path class="st29" d="M485.5,120.9h-9.9c-1.3,0-2.3,1-2.3,2.3v3.8c0,1.3,1.1,2.3,2.3,2.3h9.9c1.3,0,2.3-1,2.3-2.3v-3.8
								C487.8,121.9,486.8,120.9,485.5,120.9z"/>
							<path class="st29" d="M502.4,120.9h-9.9c-1.3,0-2.3,1-2.3,2.3v3.8c0,1.3,1,2.3,2.3,2.3h9.9c1.3,0,2.3-1,2.3-2.3v-3.8
								C504.8,121.9,503.7,120.9,502.4,120.9z"/>
							<path class="st29" d="M519.4,120.9h-9.9c-1.3,0-2.3,1-2.3,2.3v3.8c0,1.3,1,2.3,2.3,2.3h9.9c1.3,0,2.3-1,2.3-2.3v-3.8
								C521.8,121.9,520.7,120.9,519.4,120.9z"/>
							<path class="st29" d="M536.4,120.9h-9.9c-1.3,0-2.3,1-2.3,2.3v3.8c0,1.3,1,2.3,2.3,2.3h9.9c1.3,0,2.3-1,2.3-2.3v-3.8
								C538.7,121.9,537.7,120.9,536.4,120.9z"/>
							<path class="st29" d="M553.4,120.9h-9.9c-1.3,0-2.3,1-2.3,2.3v3.8c0,1.3,1,2.3,2.3,2.3h9.9c1.3,0,2.3-1,2.3-2.3v-3.8
								C555.7,121.9,554.7,120.9,553.4,120.9z"/>
							<path class="st29" d="M570.3,120.9h-9.9c-1.3,0-2.3,1-2.3,2.3v3.8c0,1.3,1,2.3,2.3,2.3h9.9c1.3,0,2.3-1,2.3-2.3v-3.8
								C572.7,121.9,571.6,120.9,570.3,120.9z"/>
						</g>
						<g>
							<path class="st29" d="M348.1,131.8h-8.4c-1.4,0-2.6,1.2-2.6,2.6v8.6c0,1.4,1.2,2.6,2.6,2.6h8.4c1.4,0,2.6-1.2,2.6-2.6v-8.6
								C350.7,133,349.6,131.8,348.1,131.8z"/>
							<path class="st29" d="M364.6,131.8h-8.4c-1.4,0-2.6,1.2-2.6,2.6v8.6c0,1.4,1.2,2.6,2.6,2.6h8.4c1.4,0,2.6-1.2,2.6-2.6v-8.6
								C367.2,133,366,131.8,364.6,131.8z"/>
							<path class="st29" d="M381,131.8h-8.4c-1.4,0-2.6,1.2-2.6,2.6v8.6c0,1.4,1.2,2.6,2.6,2.6h8.4c1.4,0,2.6-1.2,2.6-2.6v-8.6
								C383.6,133,382.4,131.8,381,131.8z"/>
							<path class="st29" d="M397.4,131.8h-8.4c-1.4,0-2.6,1.2-2.6,2.6v8.6c0,1.4,1.2,2.6,2.6,2.6h8.4c1.4,0,2.6-1.2,2.6-2.6v-8.6
								C400,133,398.9,131.8,397.4,131.8z"/>
							<path class="st29" d="M405.5,145.7h8.4c1.4,0,2.6-1.2,2.6-2.6v-8.6c0-1.4-1.2-2.6-2.6-2.6h-8.4c-1.4,0-2.6,1.2-2.6,2.6v8.6
								C402.9,144.5,404.1,145.7,405.5,145.7z"/>
							<path class="st29" d="M421.9,145.7h8.4c1.4,0,2.6-1.2,2.6-2.6v-8.6c0-1.4-1.2-2.6-2.6-2.6h-8.4c-1.4,0-2.6,1.2-2.6,2.6v8.6
								C419.3,144.5,420.5,145.7,421.9,145.7z"/>
							<path class="st29" d="M438.4,145.7h8.4c1.4,0,2.6-1.2,2.6-2.6v-8.6c0-1.4-1.2-2.6-2.6-2.6h-8.4c-1.4,0-2.6,1.2-2.6,2.6v8.6
								C435.8,144.5,436.9,145.7,438.4,145.7z"/>
							<path class="st29" d="M454.8,145.7h8.4c1.4,0,2.6-1.2,2.6-2.6v-8.6c0-1.4-1.2-2.6-2.6-2.6h-8.4c-1.4,0-2.6,1.2-2.6,2.6v8.6
								C452.2,144.5,453.4,145.7,454.8,145.7z"/>
							<path class="st29" d="M479.6,131.8h-8.4c-1.4,0-2.6,1.2-2.6,2.6v8.6c0,1.4,1.2,2.6,2.6,2.6h8.4c1.4,0,2.6-1.2,2.6-2.6v-8.6
								C482.2,133,481,131.8,479.6,131.8z"/>
							<path class="st29" d="M487.7,145.7h8.4c1.4,0,2.6-1.2,2.6-2.6v-8.6c0-1.4-1.2-2.6-2.6-2.6h-8.4c-1.4,0-2.6,1.2-2.6,2.6v8.6
								C485.1,144.5,486.2,145.7,487.7,145.7z"/>
							<path class="st29" d="M504.1,145.7h8.4c1.4,0,2.6-1.2,2.6-2.6v-8.6c0-1.4-1.2-2.6-2.6-2.6h-8.4c-1.4,0-2.6,1.2-2.6,2.6v8.6
								C501.5,144.5,502.7,145.7,504.1,145.7z"/>
							<path class="st29" d="M520.5,145.7h8.4c1.4,0,2.6-1.2,2.6-2.6v-8.6c0-1.4-1.2-2.6-2.6-2.6h-8.4c-1.4,0-2.6,1.2-2.6,2.6v8.6
								C517.9,144.5,519.1,145.7,520.5,145.7z"/>
							<path class="st29" d="M545.3,131.8H537c-1.4,0-2.6,1.2-2.6,2.6v8.6c0,1.4,1.2,2.6,2.6,2.6h8.4c1.4,0,2.6-1.2,2.6-2.6v-8.6
								C547.9,133,546.8,131.8,545.3,131.8z"/>
							<path class="st29" d="M570.3,131.8h-17.1c-1.4,0-2.6,1.2-2.6,2.6v8.6c0,1.4,1.2,2.6,2.6,2.6h17.1c1.4,0,2.6-1.2,2.6-2.6v-8.6
								C572.9,133,571.8,131.8,570.3,131.8z"/>
						</g>
						<g>
							<path class="st29" d="M339.6,210.5h8.8c1.4,0,2.5-1.1,2.5-2.5v-8.9c0-1.4-1.1-2.5-2.5-2.5h-8.8c-1.4,0-2.5,1.1-2.5,2.5v8.9
								C337.2,209.4,338.3,210.5,339.6,210.5z"/>
							<path class="st29" d="M356.3,210.5h8.8c1.4,0,2.5-1.1,2.5-2.5v-8.9c0-1.4-1.1-2.5-2.5-2.5h-8.8c-1.4,0-2.5,1.1-2.5,2.5v8.9
								C353.8,209.4,354.9,210.5,356.3,210.5z"/>
							<path class="st29" d="M372.9,210.5h8.8c1.4,0,2.5-1.1,2.5-2.5v-8.9c0-1.4-1.1-2.5-2.5-2.5h-8.8c-1.4,0-2.5,1.1-2.5,2.5v8.9
								C370.4,209.4,371.5,210.5,372.9,210.5z"/>
							<path class="st29" d="M388.9,210.5h13.5c1.4,0,2.5-1.1,2.5-2.5v-8.9c0-1.4-1.1-2.5-2.5-2.5h-13.5c-1.4,0-2.5,1.1-2.5,2.5v8.9
								C386.5,209.4,387.6,210.5,388.9,210.5z"/>
							<path class="st29" d="M409.8,210.5h74.3c1.4,0,2.5-1.1,2.5-2.5v-8.9c0-1.4-1.1-2.5-2.5-2.5h-74.3c-1.4,0-2.5,1.1-2.5,2.5v8.9
								C407.4,209.4,408.5,210.5,409.8,210.5z"/>
							<path class="st29" d="M491.9,210.5h12.6c1.4,0,2.5-1.1,2.5-2.5v-8.9c0-1.4-1.1-2.5-2.5-2.5h-12.6c-1.4,0-2.5,1.1-2.5,2.5v8.9
								C489.5,209.4,490.6,210.5,491.9,210.5z"/>
							<path class="st29" d="M512.1,210.5h8.6c1.4,0,2.5-1.1,2.5-2.5v-8.9c0-1.4-1.1-2.5-2.5-2.5h-8.6c-1.4,0-2.5,1.1-2.5,2.5v8.9
								C509.6,209.4,510.7,210.5,512.1,210.5z"/>
							<path class="st29" d="M528.5,210.5h8.6c1.4,0,2.5-1.1,2.5-2.5v-8.9c0-1.4-1.1-2.5-2.5-2.5h-8.6c-1.4,0-2.5,1.1-2.5,2.5v8.9
								C526,209.4,527.2,210.5,528.5,210.5z"/>
							<path class="st29" d="M561.6,210.5h8.9c1.4,0,2.5-1.1,2.5-2.5v-8.9c0-1.4-1.1-2.5-2.5-2.5h-8.9c-1.4,0-2.5,1.1-2.5,2.5v8.9
								C559.1,209.4,560.2,210.5,561.6,210.5z"/>
						</g>
						<g>
							<path class="st29" d="M572.9,158.9v-8.4c0-1.5-1.2-2.7-2.7-2.7h-8.2c-1.5,0-2.7,1.2-2.7,2.7v8.4c0,1.5,1.2,2.7,2.7,2.7h8.2
								C571.7,161.6,572.9,160.4,572.9,158.9z"/>
							<path class="st29" d="M553.8,147.7h-8.2c-1.5,0-2.7,1.2-2.7,2.7v8.4c0,1.5,1.2,2.7,2.7,2.7h8.2c1.5,0,2.7-1.2,2.7-2.7v-8.4
								C556.5,149,555.3,147.7,553.8,147.7z"/>
							<path class="st29" d="M529.2,161.6h8.2c1.5,0,2.7-1.2,2.7-2.7v-8.4c0-1.5-1.2-2.7-2.7-2.7h-8.2c-1.5,0-2.7,1.2-2.7,2.7v8.4
								C526.5,160.4,527.7,161.6,529.2,161.6z"/>
							<path class="st29" d="M512.8,161.6h8.2c1.5,0,2.7-1.2,2.7-2.7v-8.4c0-1.5-1.2-2.7-2.7-2.7h-8.2c-1.5,0-2.7,1.2-2.7,2.7v8.4
								C510.1,160.4,511.3,161.6,512.8,161.6z"/>
							<path class="st29" d="M496.3,161.6h8.2c1.5,0,2.7-1.2,2.7-2.7v-8.4c0-1.5-1.2-2.7-2.7-2.7h-8.2c-1.5,0-2.7,1.2-2.7,2.7v8.4
								C493.6,160.4,494.8,161.6,496.3,161.6z"/>
							<path class="st29" d="M488.1,147.7h-8.2c-1.5,0-2.7,1.2-2.7,2.7v8.4c0,1.5,1.2,2.7,2.7,2.7h8.2c1.5,0,2.7-1.2,2.7-2.7v-8.4
								C490.8,149,489.6,147.7,488.1,147.7z"/>
							<path class="st29" d="M463.5,161.6h8.2c1.5,0,2.7-1.2,2.7-2.7v-8.4c0-1.5-1.2-2.7-2.7-2.7h-8.2c-1.5,0-2.7,1.2-2.7,2.7v8.4
								C460.8,160.4,462,161.6,463.5,161.6z"/>
							<path class="st29" d="M447,161.6h8.2c1.5,0,2.7-1.2,2.7-2.7v-8.4c0-1.5-1.2-2.7-2.7-2.7H447c-1.5,0-2.7,1.2-2.7,2.7v8.4
								C444.3,160.4,445.5,161.6,447,161.6z"/>
							<path class="st29" d="M430.6,161.6h8.2c1.5,0,2.7-1.2,2.7-2.7v-8.4c0-1.5-1.2-2.7-2.7-2.7h-8.2c-1.5,0-2.7,1.2-2.7,2.7v8.4
								C427.9,160.4,429.1,161.6,430.6,161.6z"/>
							<path class="st29" d="M414.2,161.6h8.2c1.5,0,2.7-1.2,2.7-2.7v-8.4c0-1.5-1.2-2.7-2.7-2.7h-8.2c-1.5,0-2.7,1.2-2.7,2.7v8.4
								C411.5,160.4,412.7,161.6,414.2,161.6z"/>
							<path class="st29" d="M397.7,161.6h8.2c1.5,0,2.7-1.2,2.7-2.7v-8.4c0-1.5-1.2-2.7-2.7-2.7h-8.2c-1.5,0-2.7,1.2-2.7,2.7v8.4
								C395,160.4,396.3,161.6,397.7,161.6z"/>
							<path class="st29" d="M389.5,147.7h-8.2c-1.5,0-2.7,1.2-2.7,2.7v8.4c0,1.5,1.2,2.7,2.7,2.7h8.2c1.5,0,2.7-1.2,2.7-2.7v-8.4
								C392.2,149,391,147.7,389.5,147.7z"/>
							<path class="st29" d="M373,147.7h-8.2c-1.5,0-2.7,1.2-2.7,2.7v8.4c0,1.5,1.2,2.7,2.7,2.7h8.2c1.5,0,2.7-1.2,2.7-2.7v-8.4
								C375.7,149,374.5,147.7,373,147.7z"/>
							<path class="st29" d="M356.7,147.7h-16.9c-1.5,0-2.7,1.2-2.7,2.7v8.4c0,1.5,1.2,2.7,2.7,2.7h16.9c1.5,0,2.7-1.2,2.7-2.7v-8.4
								C359.4,149,358.2,147.7,356.7,147.7z"/>
						</g>
						<g>
							<path class="st29" d="M547,166.2v9c0,1.3,1.1,2.4,2.4,2.4h21.2c1.3,0,2.4-1.1,2.4-2.4v-9c0-1.3-1.1-2.4-2.4-2.4h-21.2
								C548,163.8,547,164.9,547,166.2z"/>
							<path class="st29" d="M532.9,177.6h8.7c1.3,0,2.4-1.1,2.4-2.4v-9c0-1.3-1.1-2.4-2.4-2.4h-8.7c-1.3,0-2.4,1.1-2.4,2.4v9
								C530.5,176.5,531.6,177.6,532.9,177.6z"/>
							<path class="st29" d="M525.2,163.8h-8.7c-1.3,0-2.4,1.1-2.4,2.4v9c0,1.3,1.1,2.4,2.4,2.4h8.7c1.3,0,2.4-1.1,2.4-2.4v-9
								C527.7,164.9,526.6,163.8,525.2,163.8z"/>
							<path class="st29" d="M508.8,163.8h-8.7c-1.3,0-2.4,1.1-2.4,2.4v9c0,1.3,1.1,2.4,2.4,2.4h8.7c1.3,0,2.4-1.1,2.4-2.4v-9
								C511.2,164.9,510.1,163.8,508.8,163.8z"/>
							<path class="st29" d="M492.4,163.8h-8.7c-1.3,0-2.4,1.1-2.4,2.4v9c0,1.3,1.1,2.4,2.4,2.4h8.7c1.3,0,2.4-1.1,2.4-2.4v-9
								C494.8,164.9,493.7,163.8,492.4,163.8z"/>
							<path class="st29" d="M475.9,163.8h-8.7c-1.3,0-2.4,1.1-2.4,2.4v9c0,1.3,1.1,2.4,2.4,2.4h8.7c1.3,0,2.4-1.1,2.4-2.4v-9
								C478.4,164.9,477.3,163.8,475.9,163.8z"/>
							<path class="st29" d="M459.5,163.8h-8.7c-1.3,0-2.4,1.1-2.4,2.4v9c0,1.3,1.1,2.4,2.4,2.4h8.7c1.3,0,2.4-1.1,2.4-2.4v-9
								C461.9,164.9,460.8,163.8,459.5,163.8z"/>
							<path class="st29" d="M443.1,163.8h-8.7c-1.3,0-2.4,1.1-2.4,2.4v9c0,1.3,1.1,2.4,2.4,2.4h8.7c1.3,0,2.4-1.1,2.4-2.4v-9
								C445.5,164.9,444.4,163.8,443.1,163.8z"/>
							<path class="st29" d="M426.6,163.8h-8.7c-1.3,0-2.4,1.1-2.4,2.4v9c0,1.3,1.1,2.4,2.4,2.4h8.7c1.3,0,2.4-1.1,2.4-2.4v-9
								C429.1,164.9,428,163.8,426.6,163.8z"/>
							<path class="st29" d="M410.2,163.8h-8.7c-1.3,0-2.4,1.1-2.4,2.4v9c0,1.3,1.1,2.4,2.4,2.4h8.7c1.3,0,2.4-1.1,2.4-2.4v-9
								C412.6,164.9,411.5,163.8,410.2,163.8z"/>
							<path class="st29" d="M393.8,163.8H385c-1.3,0-2.4,1.1-2.4,2.4v9c0,1.3,1.1,2.4,2.4,2.4h8.7c1.3,0,2.4-1.1,2.4-2.4v-9
								C396.2,164.9,395.1,163.8,393.8,163.8z"/>
							<path class="st29" d="M377.3,163.8h-8.7c-1.3,0-2.4,1.1-2.4,2.4v9c0,1.3,1.1,2.4,2.4,2.4h8.7c1.3,0,2.4-1.1,2.4-2.4v-9
								C379.8,164.9,378.7,163.8,377.3,163.8z"/>
							<path class="st29" d="M339.7,177.6H361c1.3,0,2.4-1.1,2.4-2.4v-9c0-1.3-1.1-2.4-2.4-2.4h-21.4c-1.3,0-2.4,1.1-2.4,2.4v9
								C337.3,176.5,338.3,177.6,339.7,177.6z"/>
						</g>
						<g>
							<path class="st29" d="M542.2,193.6h27.4c1.8,0,3.3-1.5,3.3-3.3v-7.2c0-1.8-1.5-3.3-3.3-3.3h-27.4c-1.8,0-3.3,1.5-3.3,3.3v7.2
								C538.9,192.1,540.4,193.6,542.2,193.6z"/>
							<path class="st29" d="M532.7,179.8h-6.9c-1.8,0-3.3,1.5-3.3,3.3v7.2c0,1.8,1.5,3.3,3.3,3.3h6.9c1.8,0,3.3-1.5,3.3-3.3v-7.2
								C536.1,181.3,534.6,179.8,532.7,179.8z"/>
							<path class="st29" d="M516.3,179.8h-6.9c-1.8,0-3.3,1.5-3.3,3.3v7.2c0,1.8,1.5,3.3,3.3,3.3h6.9c1.8,0,3.3-1.5,3.3-3.3v-7.2
								C519.6,181.3,518.1,179.8,516.3,179.8z"/>
							<path class="st29" d="M499.9,179.8h-6.9c-1.8,0-3.3,1.5-3.3,3.3v7.2c0,1.8,1.5,3.3,3.3,3.3h6.9c1.8,0,3.3-1.5,3.3-3.3v-7.2
								C503.2,181.3,501.7,179.8,499.9,179.8z"/>
							<path class="st29" d="M476.5,193.6h6.9c1.8,0,3.3-1.5,3.3-3.3v-7.2c0-1.8-1.5-3.3-3.3-3.3h-6.9c-1.8,0-3.3,1.5-3.3,3.3v7.2
								C473.2,192.1,474.7,193.6,476.5,193.6z"/>
							<path class="st29" d="M467,179.8h-6.9c-1.8,0-3.3,1.5-3.3,3.3v7.2c0,1.8,1.5,3.3,3.3,3.3h6.9c1.8,0,3.3-1.5,3.3-3.3v-7.2
								C470.3,181.3,468.8,179.8,467,179.8z"/>
							<path class="st29" d="M450.6,179.8h-6.9c-1.8,0-3.3,1.5-3.3,3.3v7.2c0,1.8,1.5,3.3,3.3,3.3h6.9c1.8,0,3.3-1.5,3.3-3.3v-7.2
								C453.9,181.3,452.4,179.8,450.6,179.8z"/>
							<path class="st29" d="M434.2,179.8h-6.9c-1.8,0-3.3,1.5-3.3,3.3v7.2c0,1.8,1.5,3.3,3.3,3.3h6.9c1.8,0,3.3-1.5,3.3-3.3v-7.2
								C437.5,181.3,436,179.8,434.2,179.8z"/>
							<path class="st29" d="M417.7,179.8h-6.9c-1.8,0-3.3,1.5-3.3,3.3v7.2c0,1.8,1.5,3.3,3.3,3.3h6.9c1.8,0,3.3-1.5,3.3-3.3v-7.2
								C421,181.3,419.5,179.8,417.7,179.8z"/>
							<path class="st29" d="M401.3,179.8h-6.9c-1.8,0-3.3,1.5-3.3,3.3v7.2c0,1.8,1.5,3.3,3.3,3.3h6.9c1.8,0,3.3-1.5,3.3-3.3v-7.2
								C404.6,181.3,403.1,179.8,401.3,179.8z"/>
							<path class="st29" d="M384.9,179.8h-6.9c-1.8,0-3.3,1.5-3.3,3.3v7.2c0,1.8,1.5,3.3,3.3,3.3h6.9c1.8,0,3.3-1.5,3.3-3.3v-7.2
								C388.2,181.3,386.7,179.8,384.9,179.8z"/>
							<path class="st29" d="M368.5,179.8h-27.8c-1.8,0-3.3,1.5-3.3,3.3v7.2c0,1.8,1.5,3.3,3.3,3.3h27.8c1.8,0,3.3-1.5,3.3-3.3v-7.2
								C371.8,181.3,370.4,179.8,368.5,179.8z"/>
						</g>
						<g>
							<path class="st29" d="M542.5,204.7v3.4c0,1.4,1.1,2.5,2.5,2.5h8.9c1.4,0,2.5-1.1,2.5-2.5v-3.4H542.5z"/>
							<path class="st29" d="M556.4,202.2v-3c0-1.4-1.1-2.5-2.5-2.5H545c-1.4,0-2.5,1.1-2.5,2.5v3H556.4z"/>
						</g>
					</g>
					<g>
						<path class="st4" d="M498.8,287.2h-87.5c-3.3,0-6.1-2.7-6.1-6.1v-49.5c0-3.3,2.7-6.1,6.1-6.1h87.5c3.3,0,6.1,2.7,6.1,6.1v49.5
							C504.9,284.5,502.2,287.2,498.8,287.2z"/>
						<path class="st14" d="M502.6,227l-95.1,58.9c1,0.9,2.4,1.4,3.8,1.4h87.5c3.3,0,6.1-2.7,6.1-6.1v-49.5
							C504.9,229.7,504,228.1,502.6,227z"/>
					</g>
					<g>
						<path class="st17" d="M632.8,33.2c-2.1,0-8.7,0-8.7,0H284.7c0,0-6.6,0-8.7,0c-2.1,0-2.6,2.2-1.5,4.4h361.1
							C636.8,35.3,634.9,33.2,632.8,33.2z"/>
						<path class="st29" d="M308,98.8l-33.5-61.2c-0.7-1.2,0.2-2.7,1.6-2.7H634c1.4,0,2.3,1.5,1.6,2.7l-33.5,61.2
							c-0.3,0.6-0.9,1-1.6,1H309.6C308.9,99.8,308.3,99.4,308,98.8z"/>
						<polygon class="st24" points="622.7,43.4 287.5,43.4 313.6,91.2 596.6,91.2 						"/>
						<path class="st1" d="M634,34.8H276.1c-1.4,0-2.3,1.5-1.6,2.7L308,98.8c0.3,0.6,0.9,1,1.6,1h290.9c0.7,0,1.3-0.4,1.6-1
							l33.5-61.2C636.3,36.3,635.4,34.8,634,34.8z M600.5,98.1h-291c-0.1,0-0.1,0-0.1-0.1v0L276,36.6l0.2-0.1H634l0.1,0.2
							L600.5,98.1z"/>
					</g>
					<rect x="332.2" y="99.8" class="st17" width="245.7" height="10.1"/>
					<path class="st29" d="M332.2,99.8v5.6c0,1.4,1.1,2.5,2.5,2.5h240.7c1.4,0,2.5-1.1,2.5-2.5v-5.6H332.2z"/>
					<g>
						<path class="st14" d="M594.1,208.7H587c-1.9,0-3.5-1.6-3.5-3.5v-81.5c0-1.9,1.6-3.5,3.5-3.5h7.1c2,0,3.5,1.6,3.5,3.5v81.5
							C597.6,207.1,596,208.7,594.1,208.7z"/>
						<path class="st14" d="M323.1,208.7h-7.1c-1.9,0-3.5-1.6-3.5-3.5v-81.5c0-1.9,1.6-3.5,3.5-3.5h7.1c1.9,0,3.5,1.6,3.5,3.5v81.5
							C326.7,207.1,325.1,208.7,323.1,208.7z"/>
					</g>
				</g>
			</g>
			<g>
				<path class="st33" d="M753.1,365.9c0,0,0-0.1,0-0.1c0-0.5,0-0.9-0.1-1.3l0,0l0,0c-0.1-0.5-0.2-1.1-0.4-1.6l-0.2-0.4l0,0
					l-0.3-0.8l-3.2-8.5h-0.2v-0.7c0-0.3-0.3-0.6-0.6-0.6s-0.6,0.3-0.6,0.6v0.7h-0.2l-3.2,8.5l-0.3,0.8l0,0l-0.2,0.4
					c-0.2,0.5-0.3,1.1-0.4,1.6l0,0l0,0c-0.1,0.4-0.1,0.9-0.1,1.3c0,0,0,0.1,0,0.1c0,0.5,0,0.9,0.1,1.4c0,0,0,0,0,0l0.2,1.2l0.1,0.3
					c0.3,1.6,0.5,3.2,0.5,4.8l1.2,77.5c0,0.5,0.4,1,0.9,1.2v1.7c0,1.1,0.9,2,2,2c1.1,0,2-0.9,2-2v-1.7c0.5-0.2,0.9-0.6,0.9-1.2
					l1.2-77.5c0-1.6,0.2-3.2,0.5-4.8l0.1-0.3l0.2-1.2c0,0,0,0,0,0C753,366.8,753.1,366.3,753.1,365.9z"/>
				<g>
					<g>
						<path class="st28" d="M722.3,452.6H519.6c-4.4,0-8-3.6-8-8V318.7c0-4.4,3.6-8,8-8h202.7c4.4,0,8,3.6,8,8v125.8
							C730.3,449,726.7,452.6,722.3,452.6z"/>
						<g>
							<path class="st37" d="M722.3,310.7H519.6c-4.4,0-8,3.6-8,8v0h218.7v0C730.3,314.3,726.7,310.7,722.3,310.7z"/>
							<path class="st37" d="M511.6,444.6c0,4.4,3.6,8,8,8h202.7c4.4,0,8-3.6,8-8v0L511.6,444.6L511.6,444.6z"/>
						</g>
						<g>
							<g>
								<circle class="st37" cx="530.2" cy="381.7" r="12.3"/>
								<circle class="st28" cx="530.2" cy="381.7" r="10.8"/>
								<circle class="st30" cx="530.2" cy="372.5" r="0.8"/>
								<path class="st10" d="M530.2,370.8c-6,0-10.8,4.8-10.8,10.8c0,6,4.9,10.8,10.8,10.8c6,0,10.8-4.8,10.8-10.8
									C541,375.7,536.2,370.8,530.2,370.8z M530.2,392c-5.7,0-10.3-4.6-10.3-10.3c0-5.7,4.6-10.3,10.3-10.3
									c5.7,0,10.3,4.6,10.3,10.3C540.5,387.4,535.9,392,530.2,392z"/>
							</g>
							<g>
								<g>
									<path class="st10" d="M534.1,436.7v-34.1c0-1.2-1-2.1-2.1-2.1h-3.6c-1.2,0-2.1,1-2.1,2.1v34.1c0,1.2,1,2.1,2.1,2.1h3.6
										C533.2,438.8,534.1,437.9,534.1,436.7z"/>
									<path class="st10" d="M526.5,436.7v-34.1c0-1.1,0.9-1.9,1.9-1.9h3.6c1.1,0,1.9,0.9,1.9,1.9v34.1c0,1.1-0.9,1.9-1.9,1.9
										h-3.6C527.3,438.6,526.5,437.8,526.5,436.7z"/>
									<g>
										<path class="st37" d="M532,401.1h-3.6c-0.9,0-1.6,0.7-1.6,1.6v9.6h6.8v-9.6C533.6,401.8,532.9,401.1,532,401.1z"/>
										<path class="st37" d="M528.4,438.3h3.6c0.9,0,1.6-0.7,1.6-1.6v-9.6h-6.8v9.6C526.8,437.6,527.5,438.3,528.4,438.3z"/>
									</g>
									<rect x="526.8" y="412.9" class="st37" width="6.8" height="13.6"/>
								</g>
								<g>
									<path class="st10" d="M534.1,360.7v-34.1c0-1.2-1-2.1-2.1-2.1h-3.6c-1.2,0-2.1,1-2.1,2.1v34.1c0,1.2,1,2.1,2.1,2.1h3.6
										C533.2,362.9,534.1,361.9,534.1,360.7z"/>
									<path class="st10" d="M526.5,360.7v-34.1c0-1.1,0.9-1.9,1.9-1.9h3.6c1.1,0,1.9,0.9,1.9,1.9v34.1c0,1.1-0.9,1.9-1.9,1.9
										h-3.6C527.3,362.6,526.5,361.8,526.5,360.7z"/>
									<g>
										<path class="st37" d="M532,325.1h-3.6c-0.9,0-1.6,0.7-1.6,1.6v9.6h6.8v-9.6C533.6,325.8,532.9,325.1,532,325.1z"/>
										<path class="st37" d="M528.4,362.3h3.6c0.9,0,1.6-0.7,1.6-1.6v-9.6h-6.8v9.6C526.8,361.6,527.5,362.3,528.4,362.3z"/>
									</g>
									<rect x="526.8" y="336.9" class="st37" width="6.8" height="13.6"/>
								</g>
							</g>
						</g>
						<path class="st10" d="M716.1,436.7h-161c-1.4,0-2.5-1.1-2.5-2.5V329.1c0-1.4,1.1-2.5,2.5-2.5h161c1.4,0,2.5,1.1,2.5,2.5v105.1
							C718.6,435.6,717.5,436.7,716.1,436.7z"/>
						<g>
							<g>
								<circle class="st30" cx="558.4" cy="332.5" r="0.6"/>
								<path class="st30" d="M559.1,430.9c0,0.4-0.3,0.6-0.6,0.6c-0.4,0-0.6-0.3-0.6-0.6c0-0.4,0.3-0.6,0.6-0.6
									C558.8,430.2,559.1,430.5,559.1,430.9z"/>
							</g>
							<g>
								<circle class="st30" cx="712.7" cy="332.5" r="0.6"/>
								<path class="st30" d="M713.3,430.9c0,0.4-0.3,0.6-0.6,0.6c-0.4,0-0.6-0.3-0.6-0.6c0-0.4,0.3-0.6,0.6-0.6
									C713,430.2,713.3,430.5,713.3,430.9z"/>
							</g>
						</g>
					</g>
					<g>
						<path class="st28" d="M743.3,451.2L743.3,451.2c-1.1,0-2-0.9-2-2v-2.5h4.1v2.5C745.3,450.3,744.4,451.2,743.3,451.2z"/>
						<path class="st28" d="M743.3,349.5L743.3,349.5c-0.3,0-0.6-0.3-0.6-0.6v-1.4c0-0.3,0.3-0.6,0.6-0.6l0,0c0.3,0,0.6,0.3,0.6,0.6
							v1.4C743.9,349.3,743.6,349.5,743.3,349.5z"/>
						<path class="st37" d="M744.1,348.3h-1.6l-3.7,9.7c-0.5,1.4-0.7,3-0.4,4.5l0.3,1.5c0.3,1.6,0.5,3.2,0.5,4.8l1.2,77.5
							c0,0.7,0.6,1.2,1.3,1.2h1.6h1.6c0.7,0,1.2-0.6,1.3-1.2l1.2-77.5c0-1.6,0.2-3.3,0.5-4.8l0.3-1.5c0.3-1.5,0.1-3.1-0.4-4.5
							L744.1,348.3z"/>
						<path class="st28" d="M738.4,362.5l0.3,1.5c0.3,1.6,0.5,3.2,0.5,4.8l0.7,46h6.8l0.7-46c0-1.6,0.2-3.3,0.5-4.8l0.3-1.5
							c0.2-1,0.2-1.9,0-2.9h-9.9C738.2,360.6,738.2,361.5,738.4,362.5z"/>
						<polygon class="st1" points="738.9,357.6 747.6,357.6 747.3,356.8 739.2,356.8 						"/>
						<path class="st1" d="M743.3,398.5L743.3,398.5c-1,0-1.8-0.8-1.8-1.8v-23.3c0-1,0.8-1.8,1.8-1.8l0,0c1,0,1.8,0.8,1.8,1.8v23.3
							C745,397.7,744.2,398.5,743.3,398.5z"/>
						<path class="st37" d="M743.3,390.5L743.3,390.5c-0.6,0-1.2-0.5-1.2-1.2v-15.6c0-0.6,0.5-1.2,1.2-1.2l0,0
							c0.7,0,1.2,0.5,1.2,1.2v15.6C744.5,389.9,743.9,390.5,743.3,390.5z"/>
					</g>
				</g>
			</g>
			<g>
				<path class="st33" d="M225.7,315.1h-87.5c-2,0-3.5,1.6-3.5,3.5V443c0,2,1.6,3.5,3.5,3.5h87.5c2,0,3.5-1.6,3.5-3.5V318.7
					C229.3,316.7,227.7,315.1,225.7,315.1z"/>
				<g>
					<path class="st1" d="M203.1,453.6h-87.5c-2,0-3.5-1.6-3.5-3.5V325.8c0-2,1.6-3.5,3.5-3.5h87.5c2,0,3.5,1.6,3.5,3.5v124.3
						C206.7,452,205.1,453.6,203.1,453.6z"/>
					<g>
						<rect x="114.9" y="328.3" class="st28" width="88.9" height="114.6"/>
					</g>
					<path class="st5" d="M161.1,452.1h-3.4c-2,0-3.6-1.6-3.6-3.6l0,0c0-2,1.6-3.6,3.6-3.6h3.4c2,0,3.6,1.6,3.6,3.6l0,0
						C164.7,450.4,163.1,452.1,161.1,452.1z"/>
					<g>
						<path class="st29" d="M169.4,326.2h-7.8c-0.3,0-0.5-0.2-0.5-0.5l0,0c0-0.3,0.2-0.5,0.5-0.5h7.8c0.3,0,0.5,0.2,0.5,0.5l0,0
							C169.9,326,169.6,326.2,169.4,326.2z"/>
						<path class="st29" d="M160.2,325.3L160.2,325.3c0.2,0,0.4,0.2,0.4,0.4v0c0,0.2-0.2,0.4-0.4,0.4l0,0c-0.2,0-0.4-0.2-0.4-0.4v0
							C159.8,325.5,160,325.3,160.2,325.3z"/>
						<path class="st29" d="M149.7,324.9L149.7,324.9c0.5,0,0.8,0.4,0.8,0.8v0c0,0.5-0.4,0.8-0.8,0.8l0,0c-0.5,0-0.8-0.4-0.8-0.8v0
							C148.9,325.2,149.2,324.9,149.7,324.9z"/>
					</g>
					<polygon class="st10" points="114.9,442.9 203.8,328.3 203.8,442.9 					"/>
				</g>
			</g>
			<g>
				<path class="st33" d="M98.1,350.7l-14.6-9.7c-0.4-0.4-0.9-0.8-1.5-1l-16.6-5.9c-1.7-0.6-3.6,0.2-4.4,1.7
					c-0.3-1.7-1.8-2.9-3.6-2.9H39.7c-2,0-3.6,1.6-3.6,3.6V406c-0.1,0.6-0.1,1.2,0,1.8v2.3c0,2,1.6,3.6,3.6,3.6h7.2l6.7,4.4
					c1.7,1.1,3.9,0.6,5-1l40.4-61.3C100.2,354.1,99.8,351.8,98.1,350.7z"/>
			</g>
			<g>
				<g>
					<path class="st33" d="M633.8,261.2c3.5,0,6.4-2.8,6.4-6.4v-84.5c0-3.5-2.8-6.4-6.4-6.4H531.2c-3.5,0-6.4,2.8-6.4,6.4v84.5
						c0,3.5,2.8,6.4,6.4,6.4H633.8z"/>
					<path class="st16" d="M723.9,297.6H621.3c-3.5,0-6.4-2.8-6.4-6.4v-84.5c0-3.5,2.8-6.4,6.4-6.4h102.6c3.5,0,6.4,2.8,6.4,6.4
						v84.5C730.3,294.8,727.4,297.6,723.9,297.6z"/>
					<path class="st18" d="M679.1,285.9H673c-9.1,0-16.5-7.4-16.5-16.5v-34c0-9.1,7.4-16.5,16.5-16.5h6.2c9.1,0,16.5,7.4,16.5,16.5
						v34C695.6,278.5,688.2,285.9,679.1,285.9z"/>
				</g>
				<g class="st34">
					<path class="st21" d="M675.7,282.5h-6.2c-9.1,0-16.5-7.4-16.5-16.5v-34c0-9.1,7.4-16.5,16.5-16.5h6.2c9.1,0,16.5,7.4,16.5,16.5
						v34C692.2,275.1,684.8,282.5,675.7,282.5z"/>
					<g class="st27">
						<g>
							<path class="st37" d="M675.5,271.6h-5.8c-8.5,0-15.4-6.9-15.4-15.4v-23.3c0-8.5,6.9-15.4,15.4-15.4h5.8
								c8.5,0,15.4,6.9,15.4,15.4v23.3C690.9,264.7,684,271.6,675.5,271.6z"/>
							<path class="st10" d="M672.6,224.9"/>
						</g>
					</g>
					<path class="st7" d="M672.6,217.5c-0.1,0-0.3,0-0.4,0v7.4c-1.6,0.2-2.9,1.8-2.9,3.7v8.6c0,1.9,1.3,3.5,2.9,3.7v10.3
						c0,0.3,0.2,0.5,0.4,0.5s0.4-0.2,0.4-0.5v-10.3c1.6-0.2,2.9-1.8,2.9-3.7v-8.6c0-1.9-1.3-3.4-2.9-3.7v-7.4
						C672.9,217.5,672.8,217.5,672.6,217.5z"/>
					<path class="st38" d="M673,240.1h-0.8c-1.2,0-2.2-1-2.2-2.2v-10.1c0-1.2,1-2.2,2.2-2.2h0.8c1.2,0,2.2,1,2.2,2.2v10.1
						C675.3,239.1,674.3,240.1,673,240.1z"/>
				</g>
			</g>
			<g>
				<path class="st33" d="M190.7,250.2V147.1c0-1.2-1-2.1-2.1-2.1h-49.2c-8.2-0.3-14.4-0.2-19.2,0H90.8c-4.7-0.2-10.9-0.3-19.2,0
					H22.5c-1.2,0-2.1,1-2.1,2.1v103.1c0,1.2,1,2.1,2.1,2.1h166.1C189.8,252.3,190.7,251.4,190.7,250.2z"/>
			</g>
			<g class="st34">
				<path class="st9" d="M718.9,287.3l-2.6-0.4l0,0l-30.8-5.3v-2.2c0-1.5-1.2-2.7-2.7-2.7h-2.6h-1.6h-3.7h-17.6l-47.7-8.3
					c-1.5-0.3-2.8,0.7-3.1,2.2l-1.1,6.1h-33.6c-1.5,0-2.7,1.2-2.7,2.7v159.7c0,1.5,1.2,2.7,2.7,2.7H643l42.5,7.4l0,0l5.2,0.9
					c1.5,0.3,2.8-0.7,3.1-2.2l27.3-157.3C721.3,288.9,720.3,287.5,718.9,287.3z"/>
				<g class="st27">
					<g>
						<path class="st26" d="M601.2,265.4l-27.3,157.3c-0.3,1.5,0.7,2.8,2.2,3.1l109.5,19c1.5,0.3,2.8-0.7,3.1-2.2l27.3-157.3
							c0.3-1.5-0.7-2.8-2.2-3.1l-109.5-19C602.8,262.9,601.5,263.9,601.2,265.4z"/>
						<path class="st36" d="M601.2,265.4l-27.3,157.3c-0.3,1.5,0.7,2.8,2.2,3.1L681.4,444c1.5,0.3,2.8-0.7,3.1-2.2l27.3-157.3
							c0.3-1.5-0.7-2.8-2.2-3.1l-105.2-18.3C602.8,262.9,601.5,263.9,601.2,265.4z"/>
						<path class="st8" d="M601.2,265.4l-27.3,157.3c-0.3,1.5,0.7,2.8,2.2,3.1l104.2,18.1l27.7-159.9c0.3-1.5-0.7-2.8-2.2-3.1
							l-101.6-17.6C602.8,262.9,601.5,263.9,601.2,265.4z"/>
						<path class="st20" d="M711.9,293.3l-6.4,37c-5.6-1-11,2.8-12,8.5l-8.2,47.3c-1,5.6,2.8,11,8.4,12l0,0l-7.6,44
							c-0.3,1.5-1.6,2.4-3.1,2.2l-106.9-18.5c-1.5-0.3-2.4-1.6-2.2-3.1l27.3-157.3c0.3-1.5,1.6-2.4,3.1-2.2l106.9,18.5
							c1.5,0.3,2.4,1.6,2.2,3.1L711.9,293.3z"/>
					</g>
					<g>
						
							<rect x="610.1" y="332.2" transform="matrix(0.9853 0.1709 -0.1709 0.9853 66.4842 -105.9066)" class="st26" width="76.8" height="2.2"/>
						
							<rect x="607.8" y="345.7" transform="matrix(0.9853 0.1708 -0.1708 0.9853 68.7443 -105.2935)" class="st26" width="76.8" height="2.2"/>
						
							<rect x="605.4" y="359.2" transform="matrix(0.9853 0.1709 -0.1709 0.9853 71.0342 -104.718)" class="st26" width="76.8" height="2.2"/>
					</g>
					<g>
						
							<rect x="631.5" y="291.2" transform="matrix(0.9853 0.1709 -0.1709 0.9853 61.7882 -107.1755)" class="st23" width="43.8" height="28.1"/>
						<g>
							
								<rect x="639.8" y="297.7" transform="matrix(0.9853 0.1709 -0.1709 0.9853 60.5556 -107.4609)" class="st2" width="29.7" height="0.9"/>
							
								<rect x="638.9" y="302.9" transform="matrix(0.9853 0.1708 -0.1708 0.9853 61.4279 -107.2194)" class="st2" width="29.7" height="0.9"/>
							
								<rect x="637.9" y="308.1" transform="matrix(0.9853 0.1709 -0.1709 0.9853 62.3254 -107.0135)" class="st2" width="29.7" height="0.9"/>
						</g>
						<path class="st19" d="M675.9,293.3L675.9,293.3c-1.2,6.6-7.5,11.1-14.1,9.9l-15.8-2.7c-6.6-1.2-11.1-7.5-9.9-14.1l0,0
							l-2.8-0.5l-5.4,31.4l45.4,7.9l5.4-31.4L675.9,293.3z"/>
					</g>
				</g>
				<g class="st27">
					<g>
						<path class="st11" d="M563.9,274.1v159.7c0,1.5,1.2,2.7,2.7,2.7h111.1c1.5,0,2.7-1.2,2.7-2.7V274.1c0-1.5-1.2-2.7-2.7-2.7
							H566.6C565.1,271.5,563.9,272.6,563.9,274.1z"/>
						<path class="st36" d="M563.9,274.1v159.7c0,1.5,1.2,2.7,2.7,2.7h106.8c1.5,0,2.7-1.2,2.7-2.7V274.1c0-1.5-1.2-2.7-2.7-2.7
							H566.6C565.1,271.5,563.9,272.6,563.9,274.1z"/>
						<path class="st8" d="M563.9,274.1v159.7c0,1.5,1.2,2.7,2.7,2.7h105.8V274.1c0-1.5-1.2-2.7-2.7-2.7H566.6
							C565.1,271.5,563.9,272.6,563.9,274.1z"/>
						<path class="st25" d="M677.7,282.8v37.5c-5.7,0-10.4,4.6-10.4,10.4v48c0,5.7,4.6,10.4,10.4,10.4l0,0v44.7
							c0,1.5-1.2,2.7-2.7,2.7H566.6c-1.5,0-2.7-1.2-2.7-2.7V274.1c0-1.5,1.2-2.7,2.7-2.7H675c1.5,0,2.7,1.2,2.7,2.7V282.8z"/>
					</g>
					<g>
						<rect x="583.7" y="331.9" class="st11" width="76.8" height="2.2"/>
						<rect x="583.7" y="345.6" class="st11" width="76.8" height="2.2"/>
						<rect x="583.7" y="359.3" class="st11" width="76.8" height="2.2"/>
					</g>
					<g>
						<rect x="600.2" y="290.5" class="st23" width="43.8" height="28.1"/>
						<g>
							<rect x="607.2" y="296.8" class="st2" width="29.7" height="0.9"/>
							<rect x="607.2" y="302.1" class="st2" width="29.7" height="0.9"/>
							<rect x="607.2" y="307.4" class="st2" width="29.7" height="0.9"/>
						</g>
						<path class="st19" d="M642.3,288.9L642.3,288.9c0,6.7-5.5,12.2-12.2,12.2h-16c-6.7,0-12.2-5.5-12.2-12.2l0,0h-2.9v31.9h46.1
							v-31.9H642.3z"/>
					</g>
				</g>
			</g>
			<g>
				<path class="st33" d="M750.8,177.6h-46.7c-1.5,0-2.8,1.2-2.8,2.8v1.8c0,1.5-1.2,2.8-2.8,2.8h-2.9v-0.5h0.3
					c0.8,0,1.5-0.7,1.5-1.5V181c0-0.8-0.7-1.5-1.5-1.5h-11.7c-0.8,0-1.5,0.7-1.5,1.5v1.9c0,0.8,0.7,1.5,1.5,1.5h0.3v0.5h-4.5v-1.2
					v-1.3c0-1-0.8-1.8-1.8-1.8h-12.9c-1,0-1.8,0.8-1.8,1.8v1.3v1.2h-4.1c-1.5,0-2.8,1.2-2.8,2.8v3.1V232v1.1c0,0.5,0.1,0.9,0.3,1.3
					l0,0l0,0c0.2,0.4,0.6,0.8,1,1c0,0,0,0,0.1,0c0.2,0.1,0.3,0.2,0.5,0.2c0.1,0,0.1,0,0.2,0c0.2,0.1,0.5,0.1,0.7,0.1h91.3
					c0.2,0,0.5,0,0.7-0.1c0.1,0,0.1,0,0.2,0c0.2-0.1,0.4-0.1,0.5-0.2c0,0,0,0,0.1,0c0.4-0.3,0.7-0.6,1-1c0,0,0,0,0,0h0
					c0.2-0.4,0.3-0.8,0.3-1.3V232v-41.2v-10.4C753.6,178.8,752.4,177.6,750.8,177.6z"/>
				<g>
					<rect x="218.4" y="254.5" width="11.1" height="5"/>
					<path class="st1" d="M213.9,259.4h-16.5v-3.2c0-1,0.8-1.8,1.8-1.8h12.9c1,0,1.8,0.8,1.8,1.8V259.4z"/>
					<rect x="197.5" y="257.5" class="st19" width="16.5" height="5"/>
					<g class="st19">
						<rect x="198.1" y="256.4" width="0.2" height="2.7"/>
						<rect x="198.9" y="256.4" width="0.2" height="2.7"/>
						<rect x="199.8" y="256.4" width="0.2" height="2.7"/>
						<rect x="200.7" y="256.4" width="0.2" height="2.7"/>
						<rect x="201.6" y="256.4" width="0.2" height="2.7"/>
						<rect x="202.5" y="256.4" width="0.2" height="2.7"/>
						<rect x="203.4" y="256.4" width="0.2" height="2.7"/>
						<rect x="204.2" y="256.4" width="0.2" height="2.7"/>
						<rect x="205.1" y="256.4" width="0.2" height="2.7"/>
						<rect x="206" y="256.4" width="0.2" height="2.7"/>
						<rect x="206.9" y="256.4" width="0.2" height="2.7"/>
						<rect x="207.8" y="256.4" width="0.2" height="2.7"/>
						<rect x="208.7" y="256.4" width="0.2" height="2.7"/>
						<rect x="209.5" y="256.4" width="0.2" height="2.7"/>
						<rect x="210.4" y="256.4" width="0.2" height="2.7"/>
						<rect x="211.3" y="256.4" width="0.2" height="2.7"/>
						<rect x="212.2" y="256.4" width="0.2" height="2.7"/>
						<rect x="213.1" y="256.4" width="0.2" height="2.7"/>
					</g>
					<path class="st28" d="M229.8,258.3h-11.7c-0.8,0-1.5-0.7-1.5-1.5v-1.9c0-0.8,0.7-1.5,1.5-1.5h11.7c0.8,0,1.5,0.7,1.5,1.5v1.9
						C231.3,257.6,230.7,258.3,229.8,258.3z"/>
					<g>
						<path class="st1" d="M235.2,254.2v1.8c0,1.5-1.2,2.8-2.8,2.8h-39.1c-1.5,0-2.8,1.2-2.8,2.8v45.4c0,1.5,1.2,2.8,2.8,2.8h91.3
							c1.5,0,2.8-1.2,2.8-2.8v-52.7c0-1.5-1.2-2.8-2.8-2.8H238C236.5,251.4,235.2,252.7,235.2,254.2z"/>
						<rect x="190.6" y="264.6" class="st28" width="96.9" height="41.2"/>
					</g>
					<g>
						<path d="M282.4,263.1h-13.5c-0.8,0-1.5-0.7-1.5-1.5V255c0-0.8,0.7-1.5,1.5-1.5h13.5c0.8,0,1.5,0.7,1.5,1.5v6.6
							C283.9,262.4,283.2,263.1,282.4,263.1z"/>
						<path class="st28" d="M268.9,262.3h13.5c0.4,0,0.7-0.3,0.7-0.7V255c0-0.4-0.3-0.7-0.7-0.7h-13.5c-0.4,0-0.7,0.3-0.7,0.7v6.6
							C268.2,262,268.5,262.3,268.9,262.3z"/>
						<path class="st37" d="M282.8,254.5l-14.3,7.7c0.1,0.1,0.2,0.1,0.4,0.1h13.5c0.4,0,0.7-0.3,0.7-0.7V255
							C283.1,254.8,283,254.6,282.8,254.5z"/>
						<path class="st19" d="M280.5,258.3L280.5,258.3c0-0.8-0.6-1.4-1.4-1.4h-6.9c-0.8,0-1.4,0.6-1.4,1.4l0,0c0,0.8,0.6,1.4,1.4,1.4
							h6.9C279.9,259.7,280.5,259.1,280.5,258.3z"/>
					</g>
					<g>
						<path d="M263.3,255.6c-1.3,0-2.3,1-2.3,2.3s1,2.3,2.3,2.3c1.3,0,2.3-1,2.3-2.3S264.5,255.6,263.3,255.6z"/>
						<circle class="st6" cx="263.3" cy="257.9" r="2"/>
						<circle class="st13" cx="263.9" cy="257.3" r="0.8"/>
					</g>
					<g>
						<path class="st1" d="M260.5,266.2c-1.4,0-2.5,1.1-2.5,2.5c0,1.4,1.1,2.5,2.5,2.5c1.4,0,2.5-1.1,2.5-2.5
							C262.9,267.3,261.8,266.2,260.5,266.2z"/>
						<circle cx="260.5" cy="268.7" r="2.2"/>
					</g>
					<g>
						<path class="st19" d="M239,260c-13.5,0-24.4,11-24.4,24.4c0,13.5,11,24.4,24.4,24.4s24.4-11,24.4-24.4
							C263.5,271,252.5,260,239,260z"/>
						<g>
							<circle class="st1" cx="239" cy="284.5" r="23"/>
							<circle class="st28" cx="239" cy="284.5" r="20.6"/>
							<circle class="st0" cx="239" cy="284.5" r="17.2"/>
							<circle class="st35" cx="239" cy="284.5" r="15.5"/>
							<circle class="st31" cx="239" cy="284.5" r="7.2"/>
							<g class="st3">
								<circle class="st23" cx="244.8" cy="290.2" r="5"/>
								<circle class="st23" cx="239.2" cy="284.7" r="1.9"/>
							</g>
						</g>
					</g>
					<path class="st14" d="M190.9,308.3c0.5,0.9,1.4,1.5,2.4,1.5h91.3c1.1,0,2-0.6,2.4-1.5H190.9z"/>
					<g>
						<g>
							<path d="M219.5,260.1c-0.7-0.1-1.3,0.1-1.7,0.5c-0.3,0.3-0.6,0.4-1,0.4h-2.9c-0.7,0-1.4,0.5-1.5,1.3
								c-0.1,0.9,0.6,1.7,1.5,1.7h5.3c1.1,0,2-1,1.9-2.2C221,260.9,220.3,260.2,219.5,260.1z"/>
							<g>
								<g>
									<circle class="st1" cx="219.2" cy="262" r="1.7"/>
									<circle class="st28" cx="219.2" cy="262" r="1.5"/>
									<circle class="st15" cx="219.6" cy="261.6" r="0.6"/>
								</g>
								<g>
									<path class="st1" d="M213.9,261.2c-0.7,0-1.2,0.5-1.2,1.2s0.6,1.2,1.2,1.2c0.7,0,1.2-0.5,1.2-1.2S214.6,261.2,213.9,261.2z
										"/>
									<circle class="st6" cx="213.9" cy="262.5" r="1.1"/>
									<circle class="st13" cx="214.2" cy="262.1" r="0.4"/>
								</g>
							</g>
						</g>
						<path class="st1" d="M216.6,262.9h-0.8c-0.2,0-0.4-0.2-0.4-0.4l0,0c0-0.2,0.2-0.4,0.4-0.4h0.8c0.2,0,0.4,0.2,0.4,0.4l0,0
							C217,262.7,216.8,262.9,216.6,262.9z"/>
					</g>
				</g>
			</g>
			<g>
				<path class="st33" d="M90.9,278.5c0.3,0.1,0.6,0.1,0.9,0.1l0,0h78.7l0,0l0,0h7.7l0,0c0.2,0,0.4,0,0.6-0.1
					c0.1-0.1,0.2-0.1,0.3-0.2c0,0,0.1-0.1,0.1-0.1c0.3-0.3,0.5-0.6,0.5-1c0,0,0,0,0,0l0,0c0-0.1,0.1-0.2,0.1-0.3v-1.8
					c0-0.9-0.7-1.7-1.7-1.7h-7.7h-3H91.8c-0.3,0-0.6,0-0.9,0.1l-5.6,1.7v0l-1.9,0.6v0.2l1.9,0.6v0L90.9,278.5z"/>
				<path class="st33" d="M182.1,301.7c0,0,0.3-0.5,0.3-1.6c0-1.1-0.3-1.6-0.3-1.6l-14.2-0.6h-64.6c0.1-0.3-0.1-0.6-0.4-0.6
					l-2.7,0.2c0-0.2-0.1-0.4-0.4-0.4l-12,0.7c-0.7,0.9-0.7,2.3-0.7,2.3s0,1.4,0.7,2.3l12,0.7c0.2,0,0.4-0.2,0.4-0.4l2.7,0.2
					c0.3,0,0.5-0.3,0.4-0.6h64.6L182.1,301.7z"/>
				<path class="st33" d="M182.1,287.4l-14.2-0.6h-64.6c0.1-0.3-0.1-0.6-0.4-0.6l-2.7,0.2c0-0.2-0.1-0.4-0.4-0.4l-12,0.7
					c-0.7,0.9-0.7,2.3-0.7,2.3s0,1.4,0.7,2.3l12,0.7c0.2,0,0.4-0.2,0.4-0.4l2.7,0.2c0.3,0,0.5-0.3,0.4-0.6h64.6l14.2-0.6
					c0,0,0.3-0.5,0.3-1.6S182.1,287.4,182.1,287.4z"/>
				<path class="st33" d="M167.9,312.1l14.2-0.6c0,0,0.3-0.5,0.3-1.6c0-1.1-0.3-1.6-0.3-1.6l-14.2-0.6h-64.6
					c0.1-0.3-0.1-0.6-0.4-0.6l-2.7,0.2c0-0.2-0.1-0.4-0.4-0.4l-12,0.7c-0.7,0.9-0.7,2.3-0.7,2.3s0,1.4,0.7,2.3l12,0.7
					c0.2,0,0.4-0.2,0.4-0.4l2.7,0.2c0.3,0,0.5-0.3,0.4-0.6H167.9z"/>
			</g>
		</g>
	</g>
</g>
</svg>
