<?xml version="1.0" encoding="utf-8"?>
<!-- Generator: Adobe Illustrator 16.0.0, SVG Export Plug-In . SVG Version: 6.00 Build 0)  -->
<!DOCTYPE svg PUBLIC "-//W3C//DTD SVG 1.1//EN" "http://www.w3.org/Graphics/SVG/1.1/DTD/svg11.dtd">
<svg version="1.1" id="Calque_1" xmlns="http://www.w3.org/2000/svg" xmlns:xlink="http://www.w3.org/1999/xlink" x="0px" y="0px"
	 width="500px" height="500.682px" viewBox="0 0 500 500.682" enable-background="new 0 0 500 500.682" xml:space="preserve">
<g display="none">
	<defs>
		<rect id="SVGID_1_" width="500" height="500"/>
	</defs>
	<clipPath id="SVGID_2_" display="inline">
		<use xlink:href="#SVGID_1_"  overflow="visible"/>
	</clipPath>
	<path display="inline" clip-path="url(#SVGID_2_)" fill="#171617" d="M180,200h90c16.568,0,30,13.432,30,30v90
		c0,16.568-13.432,30-30,30h-90c-16.568,0-30-13.432-30-30v-90C150,213.432,163.432,200,180,200"/>
</g>
<g>
	<defs>
		<rect id="SVGID_3_" x="2" y="2.341" width="496" height="496"/>
	</defs>
	<clipPath id="SVGID_4_">
		<use xlink:href="#SVGID_3_"  overflow="visible"/>
	</clipPath>
	<path clip-path="url(#SVGID_4_)" d="M144.683,170.056l-16.501-11.002v-54.657l4.16-2.771l23.935,19.522v26.675
		c0,2.749,2.223,4.971,4.967,4.971c2.74,0,4.97-2.222,4.97-4.971v-26.38l77.806-51.875l77.817,51.875V258.27
		c0,2.743,2.226,4.966,4.965,4.966c2.743,0,4.966-2.223,4.966-4.966V121.149l23.925-19.528l4.222,2.814v178.87
		c0,2.858,1.853,5.177,4.14,5.177c2.286,0,4.137-2.318,4.137-5.177V109.955v-8.278V85.121L244.024,2.341l-99.341,66.225
		l-41.33,27.557v13.832v10.997v21.553v8.841v5.557v12.356L343.355,329.26l16.59,11.059v56.585l-4.264,2.837l-23.915-19.524V353.74
		c0-2.742-2.223-4.966-4.966-4.966c-2.739,0-4.965,2.224-4.965,4.966v26.179l-77.817,51.871l-77.806-51.871V242.401
		c0-2.743-2.23-4.966-4.97-4.966c-2.744,0-4.967,2.223-4.967,4.966v137.814l-23.94,19.51l-4.205-2.803v-178.86
		c0-2.713-1.854-4.911-4.14-4.911c-2.286,0-4.138,2.198-4.138,4.911v173.342v8.28v16.55l124.171,82.781l99.331-66.223l41.422-27.611
		v-13.812v-11.023v-23.47v-6.896v-5.466v-14.396L144.683,170.056z M326.501,112.619L248.986,60.94V30.483l98.057,65.374
		L326.501,112.619z M239.053,30.489V60.94l-77.509,51.684L140.99,95.857l3.693-2.462L239.053,30.489z M161.538,388.738
		l77.515,51.679v30.457L140.98,405.49L161.538,388.738z M248.986,470.874v-30.457l77.515-51.674l20.537,16.768l-3.683,2.449
		L248.986,470.874z"/>
</g>
</svg>
