<?xml version="1.0" encoding="utf-8"?>
<!-- Generator: Adobe Illustrator 16.0.0, SVG Export Plug-In . SVG Version: 6.00 Build 0)  -->
<!DOCTYPE svg PUBLIC "-//W3C//DTD SVG 1.1//EN" "http://www.w3.org/Graphics/SVG/1.1/DTD/svg11.dtd">
<svg version="1.1" id="Calque_1" xmlns="http://www.w3.org/2000/svg" xmlns:xlink="http://www.w3.org/1999/xlink" x="0px" y="0px"
	 width="39.1px" height="67px" viewBox="0 0 39.1 67" style="enable-background:new 0 0 39.1 67;" xml:space="preserve">
<style type="text/css">
<![CDATA[
	.st0{fill:#E2E5EA;}
	.st1{fill:#212328;}
	.st2{fill:#25272D;}
	.st3{fill:#31343B;}
	.st4{fill:#434549;}
]]>
</style>
<g>
	<path class="st3" d="M22.6,67h-6.2C7.4,67,0,59.6,0,50.5v-34C0,7.4,7.4,0,16.5,0h6.2c9.1,0,16.5,7.4,16.5,16.5v34
		C39.1,59.6,31.7,67,22.6,67z"/>
	<g>
		<g>
			<path class="st4" d="M22.4,56h-5.8C8.2,56,1.3,49.2,1.3,40.6V17.4C1.3,8.9,8.2,2,16.7,2h5.8c8.5,0,15.4,6.9,15.4,15.4v23.3
				C37.8,49.2,30.9,56,22.4,56z"/>
			<path class="st2" d="M19.6,9.3"/>
		</g>
	</g>
	<path class="st1" d="M19.6,2c-0.1,0-0.3,0-0.4,0v7.4c-1.6,0.2-2.9,1.8-2.9,3.7v8.6c0,1.9,1.3,3.5,2.9,3.7v10.3
		c0,0.3,0.2,0.5,0.4,0.5s0.4-0.2,0.4-0.5V25.3c1.6-0.2,2.9-1.8,2.9-3.7V13c0-1.9-1.3-3.4-2.9-3.7V2C19.8,2,19.7,2,19.6,2z"/>
	<path class="st0" d="M20,24.6h-0.8c-1.2,0-2.2-1-2.2-2.2V12.3c0-1.2,1-2.2,2.2-2.2H20c1.2,0,2.2,1,2.2,2.2v10.1
		C22.2,23.6,21.2,24.6,20,24.6z"/>
</g>
</svg>
