<svg xmlns="http://www.w3.org/2000/svg" width="886.8" height="138.8" fill="#fff"><path d="M58.4 63.8c0-2.6-.2-5.3-.4-8-.3-2.7-1-5.2-2.2-7.5-1.2-2.3-3-4.1-5.4-5.6-2.4-1.5-5.8-2.2-10.2-2.2-4.4 0-7.8.7-10.2 2.2-2.4 1.5-4.2 3.4-5.4 5.6-1.2 2.3-1.9 4.7-2.2 7.5-.3 2.7-.4 5.4-.4 8v45H0v-45c0-6.2.6-11.6 1.7-16.2s2.6-8.6 4.5-12a35.7 35.7 0 0 1 13.7-14c5.8-3.3 12.5-5.1 20.1-5.3 7.5.2 14.1 2 19.9 5.3 2.5 1.4 5 3.3 7.4 5.5 2.4 2.3 4.6 5.1 6.4 8.5 1.8 3.4 3.4 7.4 4.5 12 1.2 4.6 1.8 10 1.8 16.2v45H58.4v-45zm58.4 0c0-2.6-.1-5.3-.4-8-.3-2.7-1-5.2-2.2-7.5-1.2-2.3-3-4.1-5.4-5.6-2.4-1.5-5.8-2.2-10.2-2.2-4.4 0-7.8.7-10.2 2.2-2.4 1.5-4.2 3.4-5.4 5.6-1.2 2.3-1.9 4.7-2.2 7.5-.3 2.7-.4 5.4-.4 8v45h-22v-45c0-6.2.6-11.6 1.7-16.2s2.6-8.6 4.5-12a35.7 35.7 0 0 1 13.7-14c5.8-3.3 12.5-5.1 20.1-5.3 7.5.2 14.1 2 19.9 5.3 2.5 1.4 5 3.3 7.4 5.5 2.4 2.3 4.6 5.1 6.4 8.5 1.8 3.4 3.4 7.4 4.5 12 1.2 4.6 1.8 10 1.8 16.2v45h-21.7v-45zM202.2 121.1c-1.3 4.2-3.3 7.4-5.9 9.7a31.7 31.7 0 0 1-8 5.3c-3.1 1.3-6.4 2.2-10 2.7h-28.1V118h18.2c3.4 0 5.8-.5 7.1-1.4 1.3-1 2.1-2 2.5-3.2.4-1.3.2-2.8-.4-4.6l-29-90.1h21.9l21 69.8 21-69.8h21.9l-32.2 102.4zM283.7 54.2c1.7 0 3.9 0 6.9.1 2.9.1 6 .3 9.3.7 3.3.4 6.7 1.1 10.1 2.1 3.4 1 6.4 2.5 9.2 4.4 2.7 1.9 5 4.3 6.7 7.3 1.7 3 2.6 6.6 2.6 11 0 6.9-1.5 12.4-4.5 16.5s-6.7 7.2-11.1 9.3c-4.4 2.1-9.1 3.5-14.2 4.1-5 .6-9.5.9-13.4.9-.7 0-2.3 0-4.6-.1-2.4-.1-5.1-.4-8.3-1-3.1-.6-6.5-1.5-10-2.8a33.1 33.1 0 0 1-9.6-5.6c-2.9-2.4-5.3-5.6-7.2-9.4-1.9-3.9-2.8-8.6-2.8-14.2h21.7c0 1.1.2 2.3.5 3.8.4 1.5 1.2 2.9 2.5 4.4 1.3 1.4 3.3 2.6 5.9 3.6 2.6 1 6.2 1.6 10.7 1.7 5.6.1 9.9-.1 12.9-.7s5.3-1.4 6.7-2.4c1.4-1 2.3-2 2.6-3.1.3-1.1.4-2.1.4-3 0-1.1-.2-2.1-.5-3.2-.4-1.1-1.3-2-2.8-2.9-1.5-.9-3.8-1.6-6.9-2.2-3.1-.6-7.5-.9-13.1-1.1-4.3-.1-8.5-.7-12.8-1.8s-8.1-2.7-11.6-4.9c-3.4-2.2-6.2-5-8.4-8.3-2.1-3.3-3.2-7.2-3.2-11.7 0-5 1.1-9.3 3.2-13.1 2.1-3.7 5-6.8 8.5-9.2 3.5-2.4 7.5-4.2 12-5.3 4.5-1.2 9.3-1.8 14.2-1.8 2.6 0 6.1.3 10.5.9 4.4.6 8.7 2 12.9 4.1 4.2 2.1 7.8 5.3 10.9 9.4 3 4.2 4.5 9.8 4.4 16.9h-21.7c0-3.8-1.3-6.8-3.8-9-2.6-2.2-7.1-3.3-13.6-3.3-4.9 0-8.8.9-11.7 2.8-3 1.8-4.4 4.4-4.4 7.6 0 3.1 1.4 5.3 4.3 6.6 2.4 1.3 6.1 1.9 10.6 1.9zM421.1 52.2l.6 5.5c.2 1.9.3 3.9.3 6.1V67h-62.3c.2 2 .5 4.1.9 6.1.4 2.1.9 4.1 1.8 6.1 1.3 3.1 3.3 5.8 6.1 8.2 2.7 2.4 6.5 3.6 11.4 3.6s8.7-1.2 11.4-3.6c2.7-2.4 4.7-5.1 6.1-8.2h23.1c-1 4.2-2.3 7.8-4 10.9-1.7 3.1-3.6 5.8-5.7 8-2.1 2.3-4.3 4.1-6.7 5.6-2.4 1.5-4.7 2.7-6.9 3.6-5.5 2.1-11.2 3.2-17.3 3.2-8-.1-15-1.8-21.2-5-2.6-1.4-5.2-3.2-7.7-5.4-2.6-2.2-4.8-5-6.8-8.3-2-3.3-3.5-7.3-4.7-11.9-1.2-4.6-1.8-10-1.8-16.2 0-6.2.6-11.6 1.8-16.2 1.2-4.6 2.8-8.6 4.7-12s4.2-6.2 6.8-8.5c2.6-2.3 5.1-4.1 7.7-5.5 6.2-3.3 13.2-5.1 21.2-5.3 6.5.2 12.6 1.6 18.3 4.1 2.4 1.1 4.8 2.5 7.2 4.2a37 37 0 0 1 6.8 6.4c2.1 2.6 3.9 5.6 5.5 9.1 1.6 3.6 2.7 7.6 3.4 12.2zm-22.4 0c-.6-1.9-1.3-3.8-2.2-5.7-.9-1.9-2.1-3.6-3.6-5.2-1.5-1.5-3.4-2.8-5.5-3.6a19 19 0 0 0-7.5-1.3c-2.8 0-5.3.4-7.5 1.3a17.49 17.49 0 0 0-9.2 8.8c-1 1.9-1.7 3.8-2.1 5.7h37.6zM455.3 39.8v39.7c.4 1.4 1 2.7 2 3.9.8 1 2 1.8 3.5 2.7 1.5.8 3.4 1.2 5.8 1.2h13.5v21.5h-21.7c-4.6-.5-8.8-1.8-12.5-3.9-3.1-1.8-5.9-4.4-8.5-7.9-2.6-3.5-3.8-8.3-3.8-14.5V0h21.7v18.6h20.5v21.2h-20.5zM529.9 110.6c-.4 0-1.6-.1-3.8-.2-2.2-.1-4.8-.6-7.7-1.5-3-.9-6.1-2.3-9.4-4.2-3.3-1.9-6.4-4.6-9.3-8.2-2.8-3.6-5.2-8-7-13.4-1.8-5.4-2.8-12.1-2.8-20V18.6h21.7v44.5c0 2.6.2 5.3.7 8 .5 2.7 1.4 5.2 2.7 7.5 1.3 2.3 3.1 4.1 5.5 5.6s5.5 2.2 9.4 2.2 7.1-.7 9.4-2.2c2.4-1.5 4.2-3.4 5.5-5.6 1.3-2.3 2.2-4.7 2.7-7.5.5-2.7.7-5.4.7-8V18.6h21.7v44.5c0 8-.9 14.6-2.8 20-1.8 5.4-4.2 9.9-7 13.4-2.8 3.6-5.9 6.3-9.3 8.2-3.3 1.9-6.5 3.3-9.4 4.2-3 .9-5.5 1.4-7.7 1.5-2.2.2-3.4.2-3.8.2zM581 64c0-7.5.8-14.2 2.3-20 1.5-5.9 4-10.9 7.4-15 3.4-4.1 7.7-7.2 12.9-9.4s11.6-3.3 19-3.3c7.8.2 14.8 2 21 5.3 2.6 1.4 5.2 3.3 7.7 5.5 2.6 2.3 4.8 5.1 6.8 8.5s3.6 7.4 4.8 12 1.9 10 1.9 16.2c0 6.2-.6 11.6-1.7 16.2s-2.6 8.6-4.5 11.9a33.93 33.93 0 0 1-13.4 13.7c-5.7 3.2-12.2 4.9-19.6 5-3.7-.2-7.2-1-10.7-2.3-3-1.2-6-3.1-9.1-5.7-3.1-2.6-5.6-6.4-7.7-11.4l3.9 5.2v42.4h-21V64zm41.6-26.7c-4.6 0-8.3.8-11 2.3-2.7 1.5-4.8 3.6-6.1 6.1a24.2 24.2 0 0 0-2.7 8.5c-.4 3.1-.6 6.3-.6 9.5 0 2.6.2 5.5.7 8.5.5 3.1 1.5 6 2.9 8.6 1.5 2.7 3.6 4.9 6.2 6.7 2.7 1.8 6.2 2.7 10.6 2.7 4.4 0 7.9-.9 10.6-2.7 2.7-1.8 4.7-4 6.1-6.7s2.4-5.5 2.8-8.6a52.1 52.1 0 0 0 0-17c-.5-3.1-1.4-6-2.8-8.6s-3.5-4.9-6.1-6.7c-2.6-1.7-6.2-2.6-10.6-2.6zM675.9 99.1c0-2.6 0-4.6.1-5.9.1-1.3.4-2.3 1.1-2.8.7-.6 1.7-.9 3.2-1 1.5-.1 3.6-.1 6.5-.1 2.8 0 5 0 6.5.1s2.5.4 3.2 1c.7.6 1 1.5 1.1 2.8.1 1.3.1 3.3.1 5.9 0 2.6 0 4.6-.1 5.9-.1 1.3-.4 2.3-1.1 2.8-.7.6-1.7.9-3.2 1-1.5.1-3.6.1-6.5.1-2.8 0-5 0-6.5-.1s-2.6-.4-3.2-1c-.7-.6-1-1.5-1.1-2.8-.1-1.4-.1-3.3-.1-5.9zM792.1 52.4H770c-.6-1.9-1.3-3.8-2.2-5.6a16.55 16.55 0 0 0-9-8.3c-2.1-.8-4.7-1.2-7.7-1.2-4.4 0-7.9.9-10.6 2.7-2.7 1.8-4.7 4-6.1 6.7s-2.4 5.5-2.8 8.6a52.1 52.1 0 0 0 0 17c.5 3.1 1.4 6 2.8 8.6s3.5 4.9 6.1 6.7c2.7 1.8 6.2 2.7 10.6 2.7 5.8 0 10.2-1.5 13.1-4.6 2.9-3.1 4.9-6.6 6-10.7h21.9c-.7 4.7-1.9 8.9-3.5 12.4s-3.4 6.5-5.4 9.1c-2 2.6-4.2 4.7-6.6 6.3-2.4 1.7-4.7 3-7.1 4.1-5.6 2.5-11.7 3.7-18.3 3.7-8-.1-15-1.8-21.2-5-2.6-1.4-5.2-3.2-7.7-5.4-2.6-2.2-4.8-5-6.8-8.3-2-3.3-3.5-7.3-4.7-11.9-1.2-4.6-1.8-10-1.8-16.2 0-6.2.6-11.6 1.8-16.2 1.2-4.6 2.8-8.6 4.8-12 2-3.4 4.3-6.2 6.8-8.5s5.1-4.1 7.8-5.5c6.2-3.3 13.2-5.1 21.2-5.3 6.5.2 12.6 1.6 18.2 4.1 2.4 1.1 4.7 2.5 7.1 4.2 2.4 1.7 4.6 3.9 6.6 6.5s3.8 5.7 5.4 9.2c1.5 3.4 2.7 7.5 3.4 12.1zM802.4 63.8c0-6.2.6-11.6 1.8-16.2 1.2-4.6 2.8-8.6 4.7-12s4.2-6.2 6.8-8.5c2.5-2.3 5.1-4.1 7.7-5.5 6.2-3.3 13.2-5.1 21.2-5.3 7.8.2 14.8 2 21 5.3 2.6 1.4 5.2 3.3 7.7 5.5 2.6 2.3 4.8 5.1 6.8 8.5s3.6 7.4 4.8 12 1.9 10 1.9 16.2c0 6.2-.6 11.6-1.9 16.2s-2.8 8.6-4.8 11.9c-2 3.3-4.2 6.1-6.8 8.3-2.6 2.2-5.1 4-7.7 5.4-6.2 3.2-13.2 4.9-21 5-8-.1-15-1.8-21.2-5-2.6-1.4-5.2-3.2-7.7-5.4-2.6-2.2-4.8-5-6.8-8.3-2-3.3-3.5-7.3-4.7-11.9-1.2-4.6-1.8-10-1.8-16.2zm42.2-26.5c-4.4 0-7.9.9-10.6 2.7-2.7 1.8-4.7 4-6.1 6.7-1.4 2.7-2.4 5.5-2.8 8.6a52.1 52.1 0 0 0 0 17c.5 3.1 1.4 6 2.8 8.6 1.4 2.7 3.5 4.9 6.1 6.7 2.7 1.8 6.2 2.7 10.6 2.7 4.4 0 7.9-.9 10.6-2.7 2.7-1.8 4.7-4 6.1-6.7 1.4-2.7 2.4-5.5 2.8-8.6a52.1 52.1 0 0 0 0-17c-.5-3.1-1.4-6-2.8-8.6a18.6 18.6 0 0 0-6.1-6.7c-2.7-1.8-6.2-2.7-10.6-2.7z"/></svg>