<?xml version="1.0" encoding="utf-8"?>
<!-- Generator: Adobe Illustrator 16.0.0, SVG Export Plug-In . SVG Version: 6.00 Build 0)  -->
<!DOCTYPE svg PUBLIC "-//W3C//DTD SVG 1.1//EN" "http://www.w3.org/Graphics/SVG/1.1/DTD/svg11.dtd">
<svg version="1.1" xmlns="http://www.w3.org/2000/svg" xmlns:xlink="http://www.w3.org/1999/xlink" x="0px" y="0px" width="675px"
	 height="400px" viewBox="0 0 675 400" enable-background="new 0 0 675 400" xml:space="preserve">
<g id="Calque_2">
	<path fill="#FFFFFF" d="M41.927,135.725l-13.163-8.777V83.346l3.319-2.208l19.093,15.57v21.282c0,2.191,1.773,3.965,3.961,3.965
		c2.187,0,3.966-1.774,3.966-3.965V96.946l62.065-41.381l62.074,41.381v109.146c0,2.191,1.777,3.956,3.962,3.956
		c2.188,0,3.961-1.765,3.961-3.956V96.708l19.084-15.574l3.368,2.244v142.684c0,2.283,1.479,4.132,3.302,4.132
		c1.823,0,3.301-1.849,3.301-4.132V87.779v-6.601V67.969L121.172,1.938l-79.245,52.83L8.958,76.746v11.034v8.777v17.19v7.052v4.433
		v9.857l191.451,127.635l13.234,8.82v45.138l-3.402,2.264l-19.076-15.575v-21.124c0-2.184-1.773-3.958-3.961-3.958
		c-2.185,0-3.962,1.774-3.962,3.958v20.887l-62.074,41.373l-62.065-41.373V193.435c0-2.188-1.779-3.961-3.966-3.961
		c-2.188,0-3.961,1.773-3.961,3.961V303.37l-19.097,15.563l-3.355-2.236V174.02c0-2.164-1.479-3.913-3.302-3.913
		c-1.824,0-3.3,1.749-3.3,3.913V312.3v6.601v13.203l99.05,66.029l79.237-52.82l33.04-22.028v-11.017v-8.792v-18.723v-5.501v-4.36
		v-11.483L41.927,135.725z M186.963,89.907L125.13,48.683V24.388l78.221,52.148L186.963,89.907z M117.207,24.392v24.291
		l-61.83,41.229L38.981,76.536l2.946-1.966L117.207,24.392z M55.373,310.168l61.834,41.221v24.301l-78.234-52.163L55.373,310.168z
		 M125.13,375.689v-24.301l61.833-41.217l16.383,13.371l-2.938,1.958L125.13,375.689z"/>
</g>
<g id="Calque_3">
	<g>
		<path fill="#4A8AC9" d="M365.981,149.616h-17.44v-44.334c0-7.063-1.657-12.197-4.971-15.403c-3.314-3.206-6.818-4.7-10.513-4.482
			c-3.912,0.108-7.471,1.901-10.676,5.379c-3.206,3.477-4.808,8.313-4.808,14.506v44.334h-17.114v-43.52
			c0-6.737-1.793-11.872-5.379-15.403c-3.586-3.532-7.389-5.406-11.41-5.624c-4.238,0-8.068,1.657-11.491,4.972
			c-3.423,3.314-5.134,8.394-5.134,15.24v44.334H249.93V68.119h17.114v3.423c5.542-3.803,11.247-5.596,17.114-5.379
			c9.671,0,17.875,4.401,24.612,13.203c8.041-7.824,16.734-11.736,26.079-11.736c8.258,0,15.512,3.369,21.76,10.106
			c6.248,6.737,9.372,15.919,9.372,27.546V149.616z"/>
		<path fill="#4A8AC9" d="M413.383,131.687l-36.835-63.731h19.722l25.264,44.008l18.418-44.008h18.256l-52.342,126.321h-18.494
			L413.383,131.687z"/>
	</g>
</g>
<g id="Calque_4">
	<g>
		<path fill="#FFFFFF" d="M279.499,296.438c5.74,6.423,12.983,9.635,21.73,9.635c9.703,0,17.288-4.373,22.755-13.12l18.45,11.686
			c-4.783,6.833-10.763,12.197-17.938,16.092c-7.176,3.896-14.932,5.843-23.268,5.843c-14.761,0-26.992-5.193-36.695-15.58
			c-10.25-10.25-15.375-22.892-15.375-37.925c0-14.624,4.715-27.129,14.145-37.516c9.84-10.797,21.936-16.195,36.285-16.195
			c14.077,0,26.104,5.398,36.08,16.195c4.237,4.92,7.688,10.558,10.353,16.912c2.665,6.355,3.998,13.223,3.998,20.604v2.46v2.05
			h-39.565h-39.36C271.777,285.231,274.579,291.518,279.499,296.438z M314.553,244.777c-4.373-3.279-9.361-4.92-14.965-4.92
			c-5.74,0-10.831,1.641-15.272,4.92c-4.441,3.28-7.824,7.313-10.147,12.096h50.431C322.276,252.09,318.927,248.058,314.553,244.777
			z"/>
		<path fill="#FFFFFF" d="M379.387,312.429c-9.156-9.294-13.667-20.979-13.53-35.056v-33.825h-2.87v-21.936h2.87l0.018-27.335
			h21.497l0.011,27.335h50.84v21.936h-50.84v33.825c0,7.517,2.392,13.735,7.175,18.655c4.784,5.193,10.591,7.79,17.425,7.79
			c3.279,0,6.834-0.957,10.66-2.87l8.609,21.32c-6.559,2.87-12.982,4.305-19.27,4.305
			C399.136,326.573,388.271,321.858,379.387,312.429z"/>
		<path fill="#FFFFFF" d="M531.141,312.019c-4.51,5.193-9.602,8.917-15.273,11.172c-5.672,2.256-11.377,3.383-17.117,3.383
			c-13.119,0-23.916-4.715-32.391-14.145c-9.156-9.704-13.734-21.525-13.734-35.466v-55.351h21.525v55.351
			c0,7.653,2.391,13.94,7.174,18.86c4.785,5.193,10.592,7.79,17.426,7.79c6.697,0,12.506-2.597,17.426-7.79
			c4.783-4.92,7.105-11.207,6.969-18.86v-55.351h21.73v55.351C544.875,290.63,540.297,302.314,531.141,312.019z"/>
		<path fill="#FFFFFF" d="M649.48,235.143c10.113,10.387,15.17,23.028,15.17,37.926c0,15.17-5.057,27.88-15.17,38.13
			s-22.346,15.375-36.695,15.375c-11.617,0-21.799-3.417-30.545-10.25v59.86h-21.525V221.817h21.525v7.995
			c9.156-6.97,19.338-10.455,30.545-10.455C627.271,219.357,639.504,224.619,649.48,235.143z M634.516,250.518
			c-5.877-6.014-13.121-9.02-21.73-9.02c-8.475,0-15.58,3.006-21.32,9.02c-6.014,6.014-9.088,13.53-9.225,22.551
			c0,8.883,3.074,16.399,9.225,22.55c5.74,6.014,12.846,9.021,21.32,9.021c8.473,0,15.717-3.007,21.73-9.021
			c6.012-6.15,8.951-13.667,8.814-22.55C643.467,264.321,640.527,256.805,634.516,250.518z"/>
	</g>
</g>
</svg>
